<svg id="svg-slogan-same" xmlns="http://www.w3.org/2000/svg" viewBox="0 0 473 138"><path fill="none" stroke="#FFF" stroke-width="1" d="M49.94,42.41q-1.11,2.28-2.17,4.2a39.33,39.33,0,0,1-2.31,3.68,24.39,24.39,0,0,1-2.82,3.33,26.12,26.12,0,0,1-3.78,3.1,32.05,32.05,0,0,1-5.74,3.09,28.65,28.65,0,0,1-6.54,1.86A26.07,26.07,0,0,1,12.1,59.81,18.12,18.12,0,0,1,5.19,54.9,19.42,19.42,0,0,1,1.44,48,25.3,25.3,0,0,1,.38,39.94a37.41,37.41,0,0,1,1.17-8.46,42.49,42.49,0,0,1,2.92-8,36.73,36.73,0,0,1,4.26-6.88A31.91,31.91,0,0,1,8.05,13c-.19-1.31-.31-2.65-.38-4a30.49,30.49,0,0,1,.07-4.16,20.11,20.11,0,0,1,.72-4A1.09,1.09,0,0,1,8.84.11a.88.88,0,0,1,.55-.27c.16,0,.29.1.41.31a1.49,1.49,0,0,1,0,1,28.29,28.29,0,0,0-.27,6.78,57.21,57.21,0,0,0,.82,6.29,32.48,32.48,0,0,1,13-10.38A30.23,30.23,0,0,1,39,1.62,22.39,22.39,0,0,1,47.39,4a14.79,14.79,0,0,1,5.16,4.44,12.2,12.2,0,0,1,2.13,5.67A14.56,14.56,0,0,1,54,20.3a18.17,18.17,0,0,1-3.24,5.81,19.68,19.68,0,0,1-5.6,4.68,24.89,24.89,0,0,1-7.77,2.75,29.89,29.89,0,0,1-9.7.07,26.28,26.28,0,0,1-9.87-3.44,18.68,18.68,0,0,1-7.19-8.25,20.82,20.82,0,0,0-1.79,3.47,49.62,49.62,0,0,0-2.2,6.22,52.12,52.12,0,0,0-1.58,7.74,25.4,25.4,0,0,0,.14,7.95,16.41,16.41,0,0,0,2.88,6.81,12.53,12.53,0,0,0,6.68,4.4,29,29,0,0,0,11.72.93,28.12,28.12,0,0,0,11.32-3.82,21.07,21.07,0,0,0,3.89-2.82,26.87,26.87,0,0,0,2.92-3.23A27.32,27.32,0,0,0,47,45.89q1-2,2.13-4.17c.27-.59.57-.8.89-.61S50.3,41.72,49.94,42.41ZM39.62,4.24A20.64,20.64,0,0,0,32,4.58a27.16,27.16,0,0,0-7.4,3,34.61,34.61,0,0,0-6.77,5.16,39.84,39.84,0,0,0-5.74,7,17.85,17.85,0,0,0,6.7,8.77,22.5,22.5,0,0,0,10,3.48,24.63,24.63,0,0,0,10.8-.9,19.49,19.49,0,0,0,7.5-4.43,15.49,15.49,0,0,0,4-6.43,12.46,12.46,0,0,0,.24-6.88A11.6,11.6,0,0,0,47.53,7.5,15.29,15.29,0,0,0,39.62,4.24Z"/><path fill="none" stroke="#FFF" stroke-width="1" d="M74.9,42.14c-.27.64-.72,1.65-1.34,3a28.88,28.88,0,0,1-2.3,4.13,17.67,17.67,0,0,1-3.2,3.62,6,6,0,0,1-4,1.56A6.25,6.25,0,0,1,61.46,54a5.42,5.42,0,0,1-1.76-1.25,13.72,13.72,0,0,1-3,1.71,7,7,0,0,1-3,.56,4.6,4.6,0,0,1-3.13-1.13A5.34,5.34,0,0,1,49.07,51a11,11,0,0,1,0-4,18.55,18.55,0,0,1,1.31-4.51,24.81,24.81,0,0,1,2.54-4.47,22.9,22.9,0,0,1,3.27-3.72,16.45,16.45,0,0,1,3.61-2.51A7.62,7.62,0,0,1,63.42,31a4.3,4.3,0,0,1,3.09,1.11A5.33,5.33,0,0,1,68.06,35a11.29,11.29,0,0,1,0,4,18.9,18.9,0,0,1-1.3,4.5,25,25,0,0,1-2.27,4A24,24,0,0,1,61,51.63a3.3,3.3,0,0,0,3.23,1.72A4.55,4.55,0,0,0,67.37,52a16.74,16.74,0,0,0,2.72-3.3,37.15,37.15,0,0,0,2.2-3.92c.64-1.33,1.17-2.41,1.58-3.23a.61.61,0,0,1,.83-.35C75.06,41.31,75.13,41.63,74.9,42.14Zm-10-8.94a3.62,3.62,0,0,0-2.41.31,9.13,9.13,0,0,0-2.61,1.85,22.1,22.1,0,0,0-2.55,3,24.88,24.88,0,0,0-2.2,3.82,29.79,29.79,0,0,0-1.61,4,17.57,17.57,0,0,0-.73,3.4A6.15,6.15,0,0,0,53,52.15a1.86,1.86,0,0,0,1.31,1.27,3.46,3.46,0,0,0,2.2-.21,8.89,8.89,0,0,0,2.47-1.51A6.61,6.61,0,0,1,58.12,50a5.82,5.82,0,0,1-.28-1.65,4.63,4.63,0,0,1,.59-2.07,1.93,1.93,0,0,1,1.82-.89,2,2,0,0,1,1.48.62,2,2,0,0,1,.58,1.44,2.17,2.17,0,0,1,0,.38,3.61,3.61,0,0,1-.1.38,28.94,28.94,0,0,0,2.13-3.71,25.57,25.57,0,0,0,1.58-4.06A15.33,15.33,0,0,0,66.51,37a5.9,5.9,0,0,0-.34-2.51A2,2,0,0,0,64.86,33.2Z"/><path fill="none" stroke="#FFF" stroke-width="1" d="M99.46,42.14l-1.89,3.92a30.37,30.37,0,0,1-2.48,4.19,14.57,14.57,0,0,1-3.27,3.37A7.06,7.06,0,0,1,87.49,55a4.13,4.13,0,0,1-2.27-.62,5,5,0,0,1-1.58-1.62,8,8,0,0,1-.93-2.16,7.18,7.18,0,0,1-.24-2.34v-.69a3.23,3.23,0,0,1,.07-.69A39.65,39.65,0,0,1,78.62,53a12.47,12.47,0,0,1-4,3.61,6.77,6.77,0,0,1-2.69.69,3.19,3.19,0,0,1-2.47-1,.65.65,0,0,1-.14-.55,1.05,1.05,0,0,1,.28-.49,1,1,0,0,1,.51-.27.47.47,0,0,1,.52.21q1.17,1,3.51,0a8.28,8.28,0,0,0,2.33-1.9A24.11,24.11,0,0,0,79.06,50a43,43,0,0,0,2.41-4.33,34,34,0,0,0,1.89-4.75c.19-.92.35-1.8.48-2.65A11.7,11.7,0,0,0,84,35.67a2.36,2.36,0,0,0-.34-1.34,1.08,1.08,0,0,0-.93-.52,2.45,2.45,0,0,0-1.41.66,8.46,8.46,0,0,0-1.79,2.23q-.35.55-.93,1.62c-.39.71-.79,1.48-1.2,2.3s-.83,1.61-1.24,2.34-.71,1.29-.89,1.65c-.33.55-.6.73-.83.52s-.16-.68.21-1.41.72-1.52,1.2-2.51,1-2,1.55-3,1.1-1.94,1.65-2.79a9.44,9.44,0,0,1,1.51-1.89,11.6,11.6,0,0,1,1.93-1.24A3.21,3.21,0,0,1,84.39,32a3.06,3.06,0,0,1,2.1,1,4.44,4.44,0,0,1,1,2.06,9.7,9.7,0,0,1,.1,2.72c-.09,1-.23,2-.41,2.92.59-1.14,1.26-2.28,2-3.4a33.68,33.68,0,0,1,2.24-3.06,20.65,20.65,0,0,1,2.16-2.31,5,5,0,0,1,1.79-1.13,3.43,3.43,0,0,1,1.1-.1,1.8,1.8,0,0,1,1,.31,1.6,1.6,0,0,1,.62.72,1.82,1.82,0,0,1,.07,1.13,2.63,2.63,0,0,1-1,1.58,2.72,2.72,0,0,1-1.75.62,1.59,1.59,0,0,1-1.72-1.17,22.91,22.91,0,0,0-2.13,2.34,32.74,32.74,0,0,0-3.92,6.26,30,30,0,0,0-1.38,3.37,11.9,11.9,0,0,0,0,5.13Q86.73,53,88,53.28a3.8,3.8,0,0,0,3.1-.69,12.55,12.55,0,0,0,2.75-2.82,32,32,0,0,0,2.44-4q1.13-2.18,2.1-4c.36-.64.68-.87,1-.68S99.69,41.63,99.46,42.14Z"/><path fill="none" stroke="#FFF" stroke-width="1" d="M93.75,70.06a8.62,8.62,0,0,1-2,3,3.6,3.6,0,0,1-2.65.62,9.19,9.19,0,0,1-1.41-.27,3.08,3.08,0,0,0-1.48-.07,16.22,16.22,0,0,0,1.58-2.38c.78-1.3,1.68-2.91,2.69-4.81s2.08-4,3.23-6.23S96,55.44,97,53.28s1.83-4.14,2.54-6A30.11,30.11,0,0,0,100.9,43a2.51,2.51,0,0,1-1.24,1.14c-.45.16-.57,0-.34-.52s.41-.87.69-1.51.5-1.17.69-1.58a19,19,0,0,0,.86-2.55,16.06,16.06,0,0,0,.48-2.75,7.55,7.55,0,0,0-.11-2.24c-.13-.62-.41-1-.82-1.06l1.44-.28a6.15,6.15,0,0,1,1.14-.17,3.92,3.92,0,0,0,.79-.1l1.24-.11a1.08,1.08,0,0,1,.75.18,1.26,1.26,0,0,1,.38.86,12.53,12.53,0,0,1,.11,1.89,12,12,0,0,1-.31,2.44c-.21.94-.45,1.91-.73,2.92s-.57,2-.89,3-.62,1.81-.9,2.55c.69-.88,1.56-1.9,2.62-3.07a37.13,37.13,0,0,1,3.16-3.13A36.07,36.07,0,0,1,113,36.53a39.35,39.35,0,0,1,3.68-2.27,24.18,24.18,0,0,1,3.48-1.55,4.35,4.35,0,0,1,2.51-.27q-2.07,3.72-3.79,7.08c-.5,1-1,1.95-1.47,3s-.93,2-1.35,2.92-.76,1.83-1.06,2.65a11.55,11.55,0,0,0-.59,2.14,4.55,4.55,0,0,0,0,2.78,1.24,1.24,0,0,0,1.1.65,4.1,4.1,0,0,0,2.76-1.44A22.1,22.1,0,0,0,121,48.77a41.32,41.32,0,0,0,2.34-4c.68-1.33,1.21-2.36,1.58-3.1.27-.59.58-.81.93-.65s.35.59,0,1.27c-.5,1.06-1.13,2.32-1.89,3.79a35.93,35.93,0,0,1-2.58,4.23,18.62,18.62,0,0,1-3.16,3.47,5.71,5.71,0,0,1-3.72,1.45,5.54,5.54,0,0,1-1.86-.35,3.29,3.29,0,0,1-1.61-1.27,5,5,0,0,1-.79-2.48,10.3,10.3,0,0,1,.62-4,16.23,16.23,0,0,1,1.37-3.13c.64-1.17,1.45-2.54,2.41-4.09a4.57,4.57,0,0,0,.69-1.79c0-.51-.13-.8-.52-.9a3,3,0,0,0-1.82.55,18.25,18.25,0,0,0-3.24,2.55c-.59.55-1.27,1.19-2,1.92a27.75,27.75,0,0,0-2.41,2.72,35,35,0,0,0-2.58,3.82A42.82,42.82,0,0,0,100.21,54Z"/><path fill="none" stroke="#FFF" stroke-width="1" d="M151.53,42.34c-.51,1.06-1.14,2.3-1.9,3.72a40.58,40.58,0,0,1-2.51,4.13,19.44,19.44,0,0,1-2.92,3.4,5.4,5.4,0,0,1-3.06,1.55,4.11,4.11,0,0,1-1.79-.31,3.22,3.22,0,0,1-1.58-1.38,5.9,5.9,0,0,1-.72-2.75,14.05,14.05,0,0,1,.65-4.44c-.55.92-1.26,2-2.13,3.2a22.58,22.58,0,0,1-2.82,3.27A8,8,0,0,1,129.07,55a3.43,3.43,0,0,1-2.86-.52,4.77,4.77,0,0,1-1.68-2.71,10.75,10.75,0,0,1-.17-4.37A20.16,20.16,0,0,1,126,41.9a25.93,25.93,0,0,1,4-6.09,13.77,13.77,0,0,1,3.68-3.16,15.63,15.63,0,0,1,4.4-1.86,9.94,9.94,0,0,1,4.33-.14,6.32,6.32,0,0,1,3.54,2q.77.75.45,1.44a1,1,0,0,1-1.2.55A3,3,0,0,0,143,32.3a5,5,0,0,0-3.61.62,19.74,19.74,0,0,0-4.81,4,36.84,36.84,0,0,0-4.34,5.82c-.13.23-.34.59-.62,1.1s-.56,1.09-.86,1.75-.57,1.35-.82,2.06a10.84,10.84,0,0,0-.52,2,4,4,0,0,0,.24,2.62,1.63,1.63,0,0,0,1.45.82,4.13,4.13,0,0,0,2.16-.79,11.12,11.12,0,0,0,2.48-2.23A42.19,42.19,0,0,0,137,45.47c1-1.62,1.93-3.29,2.85-5a22.61,22.61,0,0,1,2.1-3.37,2.8,2.8,0,0,1,2.58-1,10.46,10.46,0,0,1,1.41.25,3.68,3.68,0,0,0,1.48,0,12.44,12.44,0,0,0-1.48,2c-.62,1-1.26,2.11-1.93,3.37s-1.27,2.56-1.82,3.89A21.62,21.62,0,0,0,141,49.22q-.83,4.13.69,4.13A3.27,3.27,0,0,0,144.1,52a24,24,0,0,0,2.58-3.3q1.26-1.92,2.3-3.89c.69-1.3,1.22-2.32,1.58-3.06.32-.59.64-.82,1-.68S151.85,41.66,151.53,42.34Z"/><path fill="none" stroke="#FFF" stroke-width="1" d="M154.62,45.1q-.41.88-.69,1.44c-.18.37-.39.83-.62,1.38s-.55,1.28-1,2.2-1,2.22-1.72,3.92a1.62,1.62,0,0,1-1,.89,7.44,7.44,0,0,1-1.65.14c-.51,0-.93.07-1.28.07a2,2,0,0,0-1.06.34q2.48-4.95,4.71-9.77t4.78-9.49a15.37,15.37,0,0,1,2.27-3.44,3.3,3.3,0,0,1,2.61-.89,12.23,12.23,0,0,1,1.41.24,3.51,3.51,0,0,0,1.48,0A7,7,0,0,0,161.12,34a36.85,36.85,0,0,0-2.2,3.24c-.76,1.23-1.51,2.55-2.27,4S155.22,43.86,154.62,45.1Zm11-3.79a6.27,6.27,0,0,1-1.45,2.24,2.84,2.84,0,0,1-2.41.93,5.77,5.77,0,0,1-2.44-.73A5.77,5.77,0,0,0,157,43a1.85,1.85,0,0,0-1.24.31,2.35,2.35,0,0,0-.82.93c-.05.09-.23.14-.55.14s-.44-.07-.35-.21a9.26,9.26,0,0,1,1.55-2.06,2.76,2.76,0,0,1,2.37-.9,6,6,0,0,1,2.44.66,6.73,6.73,0,0,0,2.31.72,1.51,1.51,0,0,0,1.3-.28,3.72,3.72,0,0,0,.83-1,.81.81,0,0,1,.55-.14C165.63,41.17,165.72,41.22,165.63,41.31Zm1.16,3.79a22.49,22.49,0,0,0-1,2.37,13.48,13.48,0,0,0-.72,2.75,4.94,4.94,0,0,0,.1,2.3,1.42,1.42,0,0,0,1.55,1A3.93,3.93,0,0,0,169.44,52a20.57,20.57,0,0,0,2.65-3.37c.83-1.28,1.57-2.58,2.24-3.88s1.18-2.33,1.54-3.07c.28-.59.59-.81.93-.65s.36.59,0,1.27c-.51,1.06-1.14,2.32-1.89,3.79a35.93,35.93,0,0,1-2.58,4.23,18.66,18.66,0,0,1-3.17,3.47,5.67,5.67,0,0,1-3.71,1.45,3.25,3.25,0,0,1-1.62-.45,4.76,4.76,0,0,1-1.48-1.41,8.24,8.24,0,0,1-.89-2.68,6,6,0,0,1,.27-3.37c.55-1.15,1-2.17,1.45-3.07s.82-1.75,1.24-2.58.84-1.67,1.3-2.54,1-1.86,1.59-3a15.41,15.41,0,0,1,2.26-3.44,3.34,3.34,0,0,1,2.62-.89,12.23,12.23,0,0,1,1.41.24,3.51,3.51,0,0,0,1.48,0A7,7,0,0,0,173.29,34a36.85,36.85,0,0,0-2.2,3.24q-1.12,1.85-2.27,4C168.07,42.54,167.39,43.86,166.79,45.1Z"/><path fill="none" stroke="#FFF" stroke-width="1" d="M189.36,44.82c-.74,1.33-1.48,2.63-2.24,3.89A21.38,21.38,0,0,1,184.68,52a12.55,12.55,0,0,1-2.75,2.34,5.79,5.79,0,0,1-3.1.9q-4,0-5.5-2.82a6.61,6.61,0,0,1-.93-2.86,3.57,3.57,0,0,1,.41-1.93,2.19,2.19,0,0,1,1.14-1,1.55,1.55,0,0,1,1.2,0,1.35,1.35,0,0,1,.69,1,3.12,3.12,0,0,1-.45,2,2,2,0,0,0-.13,1.28,3.35,3.35,0,0,0,.51,1.2,3.28,3.28,0,0,0,1,.93,2.45,2.45,0,0,0,1.35.38,5.29,5.29,0,0,0,2-.24,4.79,4.79,0,0,0,1.62-1,21.6,21.6,0,0,0,3.06-3.37,39.71,39.71,0,0,0,2.72-4.2q.13-.13,1,0C188.69,44.73,189,44.77,189.36,44.82ZM184,39.25a12.24,12.24,0,0,1,.86-2.51,13.2,13.2,0,0,1,1.41-2.38,10.11,10.11,0,0,1,1.89-1.92,6.64,6.64,0,0,1,2.31-1.17,6.78,6.78,0,0,1,3.23-.28,3.2,3.2,0,0,1,2.06,1.24,4.31,4.31,0,0,1,.66,2.62,9.41,9.41,0,0,1-1.07,3.78,36.66,36.66,0,0,1-2.48,2.82,4.05,4.05,0,0,1-1.23,1c-.28.09-.12-.41.48-1.51s1.12-2.16,1.58-3.16a11.07,11.07,0,0,0,.89-2.69,2.8,2.8,0,0,0-.2-1.89,2,2,0,0,0-1.72-.79,3.69,3.69,0,0,0-1.89.38,4.32,4.32,0,0,0-1.62,1.41c-.51.69-1,1.49-1.62,2.41a13.34,13.34,0,0,0-1.27,2.54,5.46,5.46,0,0,0-.34,1.65,3.65,3.65,0,0,0,.27,1.76,2.47,2.47,0,0,0,1.34,1.23,5.53,5.53,0,0,0,2.93.18c.64-.1,1,0,1,.37s-.46.57-1.38.66a7.58,7.58,0,0,1-3.57-.24,4.16,4.16,0,0,1-1.93-1.41,3.94,3.94,0,0,1-.69-2A7.68,7.68,0,0,1,184,39.25Zm9.49,5.85a22.49,22.49,0,0,0-1,2.37,14.22,14.22,0,0,0-.73,2.75,5.06,5.06,0,0,0,.11,2.3,1.41,1.41,0,0,0,1.54,1A4,4,0,0,0,196.13,52a21.12,21.12,0,0,0,2.65-3.37c.82-1.28,1.57-2.58,2.23-3.88s1.18-2.33,1.55-3.07c.28-.59.59-.81.93-.65s.36.59,0,1.27c-.51,1.06-1.14,2.32-1.9,3.79a33.43,33.43,0,0,1-2.58,4.23,18.28,18.28,0,0,1-3.16,3.47,5.69,5.69,0,0,1-3.71,1.45,3.25,3.25,0,0,1-1.62-.45,4.76,4.76,0,0,1-1.48-1.41,6.31,6.31,0,0,1-.72-2.68,7,7,0,0,1,.45-3.37l1.47-3.07c.44-.89.87-1.75,1.31-2.58s.9-1.67,1.38-2.54,1-1.86,1.61-3q.69-1.23,1.14-2.1a7.07,7.07,0,0,1,.89-1.37,2.39,2.39,0,0,1,1-.72,2.88,2.88,0,0,1,1.34-.14,12.61,12.61,0,0,1,1.41.24,3.51,3.51,0,0,0,1.48,0A6.89,6.89,0,0,0,200,34a36.85,36.85,0,0,0-2.2,3.24q-1.12,1.85-2.27,4C194.76,42.54,194.08,43.86,193.48,45.1Z"/><path fill="none" stroke="#FFF" stroke-width="1" d="M216.32,44.82c-.74,1.33-1.48,2.63-2.24,3.89A20.76,20.76,0,0,1,211.64,52a12.55,12.55,0,0,1-2.75,2.34,5.74,5.74,0,0,1-3.1.9q-4,0-5.5-2.82a6.89,6.89,0,0,1-.93-2.86,3.48,3.48,0,0,1,.42-1.93,2.13,2.13,0,0,1,1.13-1,1.55,1.55,0,0,1,1.2,0,1.32,1.32,0,0,1,.69,1,3.06,3.06,0,0,1-.45,2,2,2,0,0,0-.13,1.28,3.35,3.35,0,0,0,.51,1.2,3.31,3.31,0,0,0,1,.93,2.42,2.42,0,0,0,1.34.38,5.35,5.35,0,0,0,2-.24,4.85,4.85,0,0,0,1.61-1,20.66,20.66,0,0,0,3.06-3.37,38.19,38.19,0,0,0,2.72-4.2q.14-.13,1,0C215.65,44.73,216,44.77,216.32,44.82ZM211,39.25a12.87,12.87,0,0,1,.86-2.51,13.2,13.2,0,0,1,1.41-2.38,10.11,10.11,0,0,1,1.89-1.92,6.64,6.64,0,0,1,2.31-1.17,6.78,6.78,0,0,1,3.23-.28,3.18,3.18,0,0,1,2.06,1.24,4.31,4.31,0,0,1,.66,2.62,9.41,9.41,0,0,1-1.07,3.78c-1,1.24-1.83,2.18-2.47,2.82a4.06,4.06,0,0,1-1.24,1c-.28.09-.12-.41.48-1.51s1.12-2.16,1.58-3.16a11.6,11.6,0,0,0,.9-2.69,2.85,2.85,0,0,0-.21-1.89,2,2,0,0,0-1.72-.79,3.74,3.74,0,0,0-1.89.38,4.32,4.32,0,0,0-1.62,1.41c-.5.69-1,1.49-1.61,2.41a12.86,12.86,0,0,0-1.28,2.54,5.46,5.46,0,0,0-.34,1.65,3.65,3.65,0,0,0,.27,1.76,2.46,2.46,0,0,0,1.35,1.23,5.48,5.48,0,0,0,2.92.18c.64-.1,1,0,1,.37s-.46.57-1.37.66a7.61,7.61,0,0,1-3.58-.24,4.21,4.21,0,0,1-1.93-1.41,3.84,3.84,0,0,1-.68-2A7.69,7.69,0,0,1,211,39.25Zm9.5,5.85a20.42,20.42,0,0,0-1,2.37,13.48,13.48,0,0,0-.72,2.75,4.94,4.94,0,0,0,.1,2.3,1.43,1.43,0,0,0,1.55,1A3.93,3.93,0,0,0,223.09,52a20.57,20.57,0,0,0,2.65-3.37c.83-1.28,1.57-2.58,2.24-3.88s1.18-2.33,1.54-3.07c.28-.59.59-.81.93-.65s.36.59,0,1.27c-.51,1.06-1.14,2.32-1.89,3.79A35.93,35.93,0,0,1,226,50.36a18.66,18.66,0,0,1-3.17,3.47,5.67,5.67,0,0,1-3.71,1.45,3.25,3.25,0,0,1-1.62-.45A4.76,4.76,0,0,1,216,53.42a6.46,6.46,0,0,1-.72-2.68,7.3,7.3,0,0,1,.45-3.37c.55-1.15,1-2.17,1.48-3.07s.87-1.75,1.3-2.58.9-1.67,1.38-2.54l1.62-3c.45-.82.83-1.52,1.13-2.1a7.57,7.57,0,0,1,.89-1.37,2.39,2.39,0,0,1,1-.72,2.88,2.88,0,0,1,1.34-.14,12.23,12.23,0,0,1,1.41.24,3.51,3.51,0,0,0,1.48,0A6.89,6.89,0,0,0,227,34a34.74,34.74,0,0,0-2.21,3.24q-1.12,1.85-2.27,4C221.72,42.54,221,43.86,220.45,45.1Z"/><path fill="none" stroke="#FFF" stroke-width="1" d="M286.68,42.34c-.5,1.06-1.13,2.32-1.89,3.79a35.93,35.93,0,0,1-2.58,4.23,17.8,17.8,0,0,1-3.2,3.47,5.73,5.73,0,0,1-3.68,1.45,5.65,5.65,0,0,1-1.92-.35,3.32,3.32,0,0,1-1.62-1.27,5,5,0,0,1-.79-2.48,10.5,10.5,0,0,1,.62-4A16.23,16.23,0,0,1,273,44.1c.65-1.17,1.45-2.54,2.41-4.09a4.57,4.57,0,0,0,.69-1.79c0-.51-.13-.8-.52-.9a3,3,0,0,0-1.82.55,18.25,18.25,0,0,0-3.23,2.55,35.21,35.21,0,0,0-2.65,2.85,49.18,49.18,0,0,0-3,3.92,43.23,43.23,0,0,0-2.58,4.2A14.71,14.71,0,0,0,260.82,55,2,2,0,0,1,259,53.87a3.74,3.74,0,0,1-.38-2.65,15.59,15.59,0,0,1,1.17-4.1c.55-1.21,1.12-2.46,1.72-3.74S262.56,41.11,263,40a6.37,6.37,0,0,0,.65-2.41c0-.51-.4-.59-1.13-.24a18.38,18.38,0,0,0-3.78,3.06,33.38,33.38,0,0,0-4.17,4.68,62.24,62.24,0,0,0-5.33,8.73,1.52,1.52,0,0,1-.89.93,6.48,6.48,0,0,1-1.72.17c-.5,0-.92.07-1.24.07a2,2,0,0,0-1,.34q2.48-5,4.64-9.69t4.71-9.43A15.37,15.37,0,0,1,256,32.78a3.34,3.34,0,0,1,2.62-.89,12.23,12.23,0,0,1,1.41.24,3.51,3.51,0,0,0,1.48,0A6.89,6.89,0,0,0,259.68,34a36.85,36.85,0,0,0-2.2,3.24q-1.12,1.85-2.27,4c-.75,1.4-1.43,2.72-2,4,.69-.88,1.55-1.9,2.58-3.07a34.22,34.22,0,0,1,3.13-3.13c.83-.73,1.71-1.52,2.65-2.37s1.86-1.6,2.75-2.27a15.14,15.14,0,0,1,2.55-1.55,3,3,0,0,1,2.1-.27,1.85,1.85,0,0,1,1.23,1.17,2.45,2.45,0,0,1-.2,1.86,50.18,50.18,0,0,1-2.38,4.64q-1.41,2.45-2.64,5c.68-.88,1.54-1.9,2.58-3.07a32.84,32.84,0,0,1,6.19-5.5,36.91,36.91,0,0,1,3.68-2.27,23,23,0,0,1,3.5-1.55,4.3,4.3,0,0,1,2.48-.27q-2.07,3.72-3.78,7.08c-.51,1-1,1.95-1.45,3s-.89,2-1.3,2.92-.77,1.83-1.07,2.65a17.28,17.28,0,0,0-.65,2.14A4.6,4.6,0,0,0,275.2,53a1.23,1.23,0,0,0,1.09.65,4.11,4.11,0,0,0,2.76-1.41,21.77,21.77,0,0,0,2.75-3.33,36.08,36.08,0,0,0,2.34-4c.68-1.35,1.21-2.42,1.58-3.2.27-.59.58-.81.93-.65S287,41.66,286.68,42.34Zm-2.41-17.88a13.53,13.53,0,0,1-1.34,1.69,9.81,9.81,0,0,1-1.82,1.54,9.22,9.22,0,0,1-2.3,1.1,7.62,7.62,0,0,1-2.72.35,12.75,12.75,0,0,1-2.65-.42c-.85-.22-1.68-.47-2.51-.72s-1.65-.48-2.48-.69a13.17,13.17,0,0,0-2.47-.37,4.53,4.53,0,0,0-2.65.44,5.28,5.28,0,0,0-1.69,1.41c0,.1-.18.15-.41.18a4,4,0,0,1-.69,0,5,5,0,0,1-.62-.11c-.18,0-.27-.11-.27-.2a15.13,15.13,0,0,1,3.27-3,7.8,7.8,0,0,1,5-1.34,16,16,0,0,1,2.58.35c.85.18,1.7.4,2.55.65s1.67.48,2.47.69a13.57,13.57,0,0,0,2.45.38,5.13,5.13,0,0,0,2.82-.45,5.79,5.79,0,0,0,1.85-1.55s.11-.08.31-.1.42,0,.62,0a2.23,2.23,0,0,1,.55.07C284.26,24.37,284.32,24.42,284.27,24.46Z"/><path fill="none" stroke="#FFF" stroke-width="1" d="M281,70.06a8.62,8.62,0,0,1-2,3,3.6,3.6,0,0,1-2.65.62,9.19,9.19,0,0,1-1.41-.27,3.08,3.08,0,0,0-1.48-.07,16,16,0,0,0,1.59-2.38c.78-1.3,1.67-2.91,2.68-4.81s2.09-4,3.23-6.23,2.21-4.44,3.2-6.6,1.83-4.14,2.55-6A31.45,31.45,0,0,0,288.2,43,2.51,2.51,0,0,1,287,44.17c-.46.16-.58,0-.35-.52s.42-.87.69-1.51.5-1.17.69-1.58a17.65,17.65,0,0,0,.86-2.55,16.06,16.06,0,0,0,.48-2.75,7.93,7.93,0,0,0-.1-2.24c-.14-.62-.42-1-.83-1.06l1.45-.28a5.92,5.92,0,0,1,1.13-.17,3.92,3.92,0,0,0,.79-.1L293,31.3a1.12,1.12,0,0,1,.76.18,1.26,1.26,0,0,1,.37.86,12.53,12.53,0,0,1,.11,1.89,12,12,0,0,1-.31,2.44c-.21.94-.45,1.91-.72,2.92s-.58,2-.9,3-.62,1.81-.89,2.55c.69-.88,1.56-1.9,2.61-3.07a37.19,37.19,0,0,1,3.17-3.13,33.12,33.12,0,0,1,3.06-2.37A36.91,36.91,0,0,1,304,34.26a23.62,23.62,0,0,1,3.47-1.55,4.36,4.36,0,0,1,2.51-.27q-2.07,3.72-3.78,7.08c-.51,1-1,1.95-1.48,3s-.93,2-1.34,2.92-.77,1.83-1.07,2.65a11.42,11.42,0,0,0-.58,2.14c-.28,1.42-.28,2.35,0,2.78a1.23,1.23,0,0,0,1.1.65,4.06,4.06,0,0,0,2.75-1.44,22.1,22.1,0,0,0,2.75-3.41,41.32,41.32,0,0,0,2.34-4c.69-1.33,1.21-2.36,1.58-3.1.28-.59.59-.81.93-.65s.35.59,0,1.27c-.5,1.06-1.13,2.32-1.89,3.79a34.64,34.64,0,0,1-2.58,4.23,18.62,18.62,0,0,1-3.16,3.47,5.71,5.71,0,0,1-3.72,1.45,5.49,5.49,0,0,1-1.85-.35,3.32,3.32,0,0,1-1.62-1.27,5,5,0,0,1-.79-2.48,10.5,10.5,0,0,1,.62-4,16.23,16.23,0,0,1,1.37-3.13c.65-1.17,1.45-2.54,2.41-4.09a4.57,4.57,0,0,0,.69-1.79c0-.51-.13-.8-.52-.9a3,3,0,0,0-1.82.55,18.62,18.62,0,0,0-3.23,2.55c-.6.55-1.27,1.19-2,1.92a27.75,27.75,0,0,0-2.41,2.72,35,35,0,0,0-2.58,3.82A41.42,41.42,0,0,0,287.51,54Z"/><path fill="none" stroke="#FFF" stroke-width="1" d="M338.82,42.34q-.76,1.59-1.89,3.72a44.54,44.54,0,0,1-2.51,4.13,19.91,19.91,0,0,1-2.93,3.4,5.4,5.4,0,0,1-3.06,1.55,4.13,4.13,0,0,1-1.79-.31,3.22,3.22,0,0,1-1.58-1.38,5.9,5.9,0,0,1-.72-2.75,14.05,14.05,0,0,1,.65-4.44c-.55.92-1.26,2-2.13,3.2A22.58,22.58,0,0,1,320,52.73,8,8,0,0,1,316.36,55a3.41,3.41,0,0,1-2.85-.52,4.83,4.83,0,0,1-1.69-2.71,10.93,10.93,0,0,1-.17-4.37,20.52,20.52,0,0,1,1.68-5.5,26.25,26.25,0,0,1,4-6.09A13.93,13.93,0,0,1,321,32.65a15.63,15.63,0,0,1,4.4-1.86,9.94,9.94,0,0,1,4.33-.14,6.38,6.38,0,0,1,3.55,2,1.24,1.24,0,0,1,.44,1.44,1,1,0,0,1-1.2.55,3,3,0,0,0-2.24-2.34,5,5,0,0,0-3.61.62,19.74,19.74,0,0,0-4.81,4,36.17,36.17,0,0,0-4.33,5.82c-.14.23-.35.59-.62,1.1s-.57,1.09-.86,1.75-.58,1.35-.83,2.06a11.67,11.67,0,0,0-.52,2,3.92,3.92,0,0,0,.25,2.62,1.6,1.6,0,0,0,1.44.82,4.19,4.19,0,0,0,2.17-.79A11.31,11.31,0,0,0,321,50.12a40.88,40.88,0,0,0,3.27-4.65c1-1.62,1.94-3.29,2.85-5a22.61,22.61,0,0,1,2.1-3.37,2.8,2.8,0,0,1,2.58-1,10.46,10.46,0,0,1,1.41.25,3.68,3.68,0,0,0,1.48,0,12.44,12.44,0,0,0-1.48,2c-.62,1-1.26,2.11-1.92,3.37s-1.28,2.56-1.83,3.89a21.62,21.62,0,0,0-1.17,3.57q-.82,4.13.69,4.13A3.27,3.27,0,0,0,331.39,52a24,24,0,0,0,2.58-3.3,44.52,44.52,0,0,0,2.3-3.89q1-2,1.59-3.06c.32-.59.64-.82,1-.68S339.14,41.66,338.82,42.34Z"/><path fill="none" stroke="#FFF" stroke-width="1" d="M367.5,42.34q-1.31,2.69-2.41,4.82a27.16,27.16,0,0,1-2.3,3.75,17.59,17.59,0,0,1-2.58,2.82,14.14,14.14,0,0,1-3.3,2.1,41.88,41.88,0,0,1-3.34,6.91,37.37,37.37,0,0,1-5.09,6.77,28.82,28.82,0,0,1-6.43,5.16,14,14,0,0,1-7.22,2.07q-6.46,0-6.47-5.3a6.57,6.57,0,0,1,1.76-4.51,17.45,17.45,0,0,1,4.23-3.4A41.71,41.71,0,0,1,339.3,61q2.4-1,4.71-1.85c1.54-.55,3-1.06,4.47-1.52s2.83-1,4.16-1.51a26.61,26.61,0,0,0,1-3.68,39.45,39.45,0,0,0,.58-4,34.26,34.26,0,0,0,.21-3.55,10.28,10.28,0,0,0-.14-2.09c-.55,1.05-1.29,2.35-2.23,3.88a30.77,30.77,0,0,1-3.17,4.3,15.31,15.31,0,0,1-3.74,3.16,4.91,4.91,0,0,1-4.06.56,5.22,5.22,0,0,1-3.27-3.34,9.62,9.62,0,0,1,0-5A21.42,21.42,0,0,1,340,40.9a30,30,0,0,1,3.48-5.09,14.73,14.73,0,0,1,3.47-3.13A13.32,13.32,0,0,1,351,30.89a10.56,10.56,0,0,1,4.3-.14,9.15,9.15,0,0,1,4.09,1.9,2.51,2.51,0,0,1,1,1.44,1.31,1.31,0,0,1-.21,1.07.82.82,0,0,1-.79.31c-.32,0-.57-.32-.75-.83a3.69,3.69,0,0,0-1.89-2.34,3.81,3.81,0,0,0-2.72,0,11.14,11.14,0,0,0-3.2,1.82,26.94,26.94,0,0,0-3.27,3,39.06,39.06,0,0,0-3.44,4.6,27.35,27.35,0,0,0-2.44,4.72,10.43,10.43,0,0,0-.82,3.92,2.34,2.34,0,0,0,1.41,2.3,3.5,3.5,0,0,0,3.4-.72,18,18,0,0,0,3.65-3.58,36,36,0,0,0,3.13-4.71,21.5,21.5,0,0,0,1.85-4.13,3.44,3.44,0,0,1,.9-1.65,2.67,2.67,0,0,1,1.17-.62,5.58,5.58,0,0,1,1.2-.13,1.52,1.52,0,0,0,1-.35A37,37,0,0,1,359,45.2a41.15,41.15,0,0,1-1.34,8.36c.83-.6,1.67-1.27,2.51-2a15.57,15.57,0,0,0,2.31-2.48,21,21,0,0,0,2.58-4.29,29.47,29.47,0,0,1,1.41-3c.32-.59.65-.82,1-.68S367.82,41.66,367.5,42.34ZM352,58.1l-1.17.41-1.24.41c-2.52.87-5.13,1.82-7.81,2.86a37.55,37.55,0,0,0-7.32,3.74,11,11,0,0,0-2.86,2.79A9.53,9.53,0,0,0,330,71.54a3.34,3.34,0,0,0,.34,2.68,3.14,3.14,0,0,0,2.86,1.14,8.45,8.45,0,0,0,2.37-.38,16.61,16.61,0,0,0,2.44-.93,21.74,21.74,0,0,0,2.2-1.17,16.13,16.13,0,0,0,1.65-1.1A30,30,0,0,0,345,68.72c1.05-1.17,2.06-2.39,3-3.68A34.81,34.81,0,0,0,352,58.1Z"/><path fill="none" stroke="#FFF" stroke-width="1" d="M393.78,42.41c-.56,1.2-1.2,2.51-1.93,4a31.12,31.12,0,0,1-2.48,4.09,15,15,0,0,1-3,3.2,5.64,5.64,0,0,1-3.51,1.27,3.65,3.65,0,0,1-2.06-.58,3.56,3.56,0,0,1-1.35-1.72,7.63,7.63,0,0,1-.44-2.79,12.05,12.05,0,0,1,.68-3.71c-.59,1-1.25,2.09-2,3.13a22.93,22.93,0,0,1-2.27,2.82,12.09,12.09,0,0,1-2.51,2.06,4.88,4.88,0,0,1-2.54.79,7.46,7.46,0,0,1-1.2-.1,3.92,3.92,0,0,1-1.28-.45,4,4,0,0,1-1.13-1,3.45,3.45,0,0,1-.72-1.58A6.46,6.46,0,0,1,366,49.7a9.29,9.29,0,0,1,.51-2,14,14,0,0,1,.9-1.92q.51-.93,1-1.89a1.14,1.14,0,0,1-.65-.21c-.21-.14-.2-.43,0-.89a10.76,10.76,0,0,0,.61-1.17c.19-.42.39-.83.62-1.24l2.07-4c.68-1.33,1.28-2.52,1.79-3.58a2.3,2.3,0,0,1,1.06-1.13,3.75,3.75,0,0,1,1.62-.31h4.19a8.23,8.23,0,0,0-1.1.86,11.58,11.58,0,0,0-1,1.06,13.16,13.16,0,0,0-1.07,1.52,23.5,23.5,0,0,0-1.24,2.34c-.64,1.19-1.21,2.34-1.72,3.44s-1,1.94-1.44,2.95S371.33,45.35,371,46a13.64,13.64,0,0,0-1.38,4.47,3.34,3.34,0,0,0,.52,2.51,1.64,1.64,0,0,0,2,.21,8.5,8.5,0,0,0,3-2.44,30.55,30.55,0,0,0,2.85-3.93q1.41-2.27,2.72-4.71t2.51-4.85q1.2-2.4,2.16-4.47a2.32,2.32,0,0,1,1.07-1.13,3.72,3.72,0,0,1,1.62-.31h3.71c-.5.41-.94.79-1.3,1.14a7.84,7.84,0,0,0-1.07,1.24,15.64,15.64,0,0,0-1.07,1.79c-.36.72-.8,1.6-1.3,2.66s-1,2-1.48,3-.94,2-1.38,3S383.3,46.12,383,47a11.05,11.05,0,0,0-.62,2.17,4.86,4.86,0,0,0,0,3.14,1.67,1.67,0,0,0,1.27,1,3.87,3.87,0,0,0,2.51-1.1,14.54,14.54,0,0,0,2.45-2.79,35,35,0,0,0,2.23-3.71c.71-1.35,1.37-2.65,2-3.89.28-.59.59-.81.93-.65S394.1,41.72,393.78,42.41Z"/><path fill="none" stroke="#FFF" stroke-width="1" d="M420.05,42.34c-.55,1.2-1.19,2.51-1.93,4a31.06,31.06,0,0,1-2.47,4.09,15.68,15.68,0,0,1-3,3.23,5.51,5.51,0,0,1-3.51,1.31,3.68,3.68,0,0,1-2.06-.58,3.54,3.54,0,0,1-1.34-1.72,7.62,7.62,0,0,1-.45-2.79,11.8,11.8,0,0,1,.69-3.71c-.6,1-1.25,2.09-2,3.13a23.9,23.9,0,0,1-2.27,2.82,12.09,12.09,0,0,1-2.51,2.06,4.88,4.88,0,0,1-2.55.79,7.65,7.65,0,0,1-1.2-.1,3.79,3.79,0,0,1-1.27-.45,4.23,4.23,0,0,1-1.14-1,3.66,3.66,0,0,1-.72-1.58,6.74,6.74,0,0,1-.07-2.14,9.32,9.32,0,0,1,.52-2,15.18,15.18,0,0,1,.89-1.92c.35-.62.68-1.25,1-1.89a1.12,1.12,0,0,1-.65-.21c-.21-.14-.2-.43,0-.89a9.3,9.3,0,0,0,.62-1.17,13,13,0,0,1,.62-1.24l2.06-4c.69-1.33,1.29-2.52,1.79-3.58a2.32,2.32,0,0,1,1.07-1.13,3.67,3.67,0,0,1,1.61-.31H406a8.23,8.23,0,0,0-1.1.86,11.6,11.6,0,0,0-1,1.06,14.52,14.52,0,0,0-1.07,1.52,23.72,23.72,0,0,0-1.23,2.34c-.65,1.19-1.22,2.34-1.72,3.44s-1,1.94-1.45,2.95-.85,1.84-1.17,2.48a13.83,13.83,0,0,0-1.37,4.47,3.39,3.39,0,0,0,.51,2.51,1.65,1.65,0,0,0,2,.21,8.5,8.5,0,0,0,3-2.44,30.57,30.57,0,0,0,2.86-3.93q1.41-2.27,2.71-4.71t2.51-4.85q1.21-2.4,2.17-4.47a2.32,2.32,0,0,1,1.07-1.13,3.67,3.67,0,0,1,1.61-.31H418c-.51.41-.94.79-1.31,1.13a8.94,8.94,0,0,0-1.07,1.24,14.37,14.37,0,0,0-1.06,1.79c-.37.71-.8,1.59-1.31,2.65s-1,2-1.48,3-.94,2-1.37,3-.82,1.9-1.14,2.75a11.18,11.18,0,0,0-.62,2.16,4.74,4.74,0,0,0,0,3.13,1.64,1.64,0,0,0,1.27,1,3.86,3.86,0,0,0,2.51-1.1,14.74,14.74,0,0,0,2.44-2.78,36.24,36.24,0,0,0,2.24-3.72c.71-1.35,1.36-2.65,2-3.89.27-.59.58-.81.93-.65S420.37,41.66,420.05,42.34Zm-7.77,11.49a29.09,29.09,0,0,0-2.79,2.55,37.5,37.5,0,0,0-2.61,2.95,17.26,17.26,0,0,0-2,3,7.07,7.07,0,0,0-.83,2.68,3,3,0,0,0,.42,1.62,1.73,1.73,0,0,0,1.58.65,3.15,3.15,0,0,0,1.89-.69,13.52,13.52,0,0,0,1.62-1.37.77.77,0,0,1,.48-.17c.23,0,.3.12.2.44a3.36,3.36,0,0,1-.65,1.21A5.84,5.84,0,0,1,408.22,68a10.08,10.08,0,0,1-2,1,7,7,0,0,1-2.44.42,3.47,3.47,0,0,1-2.24-.76,2.71,2.71,0,0,1-.86-2.34A8,8,0,0,1,402,62.63a24.74,24.74,0,0,1,3.06-4,31.78,31.78,0,0,1,3.68-3.44,15.56,15.56,0,0,1,3.13-2.07h.37C412.36,53.14,412.37,53.37,412.28,53.83Z"/><path fill="none" stroke="#FFF" stroke-width="1" d="M446.33,42.41c-.56,1.2-1.2,2.51-1.93,4a31.12,31.12,0,0,1-2.48,4.09,15.21,15.21,0,0,1-3,3.2,5.64,5.64,0,0,1-3.51,1.27,3.65,3.65,0,0,1-2.06-.58A3.56,3.56,0,0,1,432,52.63a7.63,7.63,0,0,1-.44-2.79,12.05,12.05,0,0,1,.68-3.71c-.59,1-1.25,2.09-2,3.13A22.93,22.93,0,0,1,428,52.08a12.09,12.09,0,0,1-2.51,2.06,4.88,4.88,0,0,1-2.54.79,7.46,7.46,0,0,1-1.2-.1,3.92,3.92,0,0,1-1.28-.45,4,4,0,0,1-1.13-1,3.45,3.45,0,0,1-.72-1.58,6.46,6.46,0,0,1-.07-2.14,9.29,9.29,0,0,1,.51-2,14,14,0,0,1,.9-1.92q.51-.93,1-1.89a1.14,1.14,0,0,1-.65-.21c-.21-.14-.2-.43,0-.89a10.76,10.76,0,0,0,.61-1.17c.19-.42.39-.83.62-1.24l2.07-4c.68-1.33,1.28-2.52,1.79-3.58a2.26,2.26,0,0,1,1.06-1.13,3.75,3.75,0,0,1,1.62-.31h4.19a8.23,8.23,0,0,0-1.1.86,11.58,11.58,0,0,0-1,1.06,13.16,13.16,0,0,0-1.07,1.52,23.5,23.5,0,0,0-1.24,2.34c-.64,1.19-1.21,2.34-1.72,3.44s-1,1.94-1.44,2.95-.85,1.84-1.17,2.48a13.64,13.64,0,0,0-1.38,4.47A3.34,3.34,0,0,0,422.7,53a1.64,1.64,0,0,0,2,.21,8.5,8.5,0,0,0,3-2.44,30.55,30.55,0,0,0,2.85-3.93q1.41-2.27,2.72-4.71t2.51-4.85q1.2-2.4,2.16-4.47a2.32,2.32,0,0,1,1.07-1.13,3.72,3.72,0,0,1,1.62-.31h3.71c-.5.41-.94.79-1.3,1.14a7.84,7.84,0,0,0-1.07,1.24,14.31,14.31,0,0,0-1.07,1.79c-.36.72-.8,1.6-1.3,2.66s-1,2-1.48,3-.94,2-1.38,3-.81,1.91-1.13,2.76a11.05,11.05,0,0,0-.62,2.17,4.86,4.86,0,0,0,0,3.14,1.67,1.67,0,0,0,1.27,1,3.87,3.87,0,0,0,2.51-1.1,14.54,14.54,0,0,0,2.45-2.79,35,35,0,0,0,2.23-3.71c.71-1.35,1.37-2.65,2-3.89.28-.59.59-.81.93-.65S446.65,41.72,446.33,42.41Z"/><path fill="none" stroke="#FFF" stroke-width="1" d="M472.6,42.41c-.55,1.2-1.19,2.51-1.93,4a31.06,31.06,0,0,1-2.47,4.09,15.25,15.25,0,0,1-3,3.2,5.64,5.64,0,0,1-3.51,1.27,3.68,3.68,0,0,1-2.06-.58,3.54,3.54,0,0,1-1.34-1.72,7.62,7.62,0,0,1-.45-2.79,11.8,11.8,0,0,1,.69-3.71c-.6,1-1.25,2.09-2,3.13a23.9,23.9,0,0,1-2.27,2.82,12.09,12.09,0,0,1-2.51,2.06,4.88,4.88,0,0,1-2.55.79,7.65,7.65,0,0,1-1.2-.1,3.79,3.79,0,0,1-1.27-.45,4.23,4.23,0,0,1-1.14-1,3.66,3.66,0,0,1-.72-1.58,6.74,6.74,0,0,1-.07-2.14,9.32,9.32,0,0,1,.52-2,15.18,15.18,0,0,1,.89-1.92c.35-.62.68-1.25,1-1.89a1.12,1.12,0,0,1-.65-.21c-.21-.14-.2-.43,0-.89a9.3,9.3,0,0,0,.62-1.17,13,13,0,0,1,.62-1.24l2.06-4c.69-1.33,1.29-2.52,1.79-3.58a2.32,2.32,0,0,1,1.07-1.13,3.67,3.67,0,0,1,1.61-.31h4.2a8.23,8.23,0,0,0-1.1.86,11.6,11.6,0,0,0-1,1.06,14.52,14.52,0,0,0-1.07,1.52,23.72,23.72,0,0,0-1.23,2.34c-.65,1.19-1.22,2.34-1.72,3.44s-1,1.94-1.45,2.95-.85,1.84-1.17,2.48a13.83,13.83,0,0,0-1.37,4.47A3.39,3.39,0,0,0,449,53a1.65,1.65,0,0,0,2,.21,8.5,8.5,0,0,0,3-2.44,30.57,30.57,0,0,0,2.86-3.93q1.41-2.27,2.71-4.71T462,37.25q1.21-2.4,2.17-4.47a2.32,2.32,0,0,1,1.07-1.13,3.67,3.67,0,0,1,1.61-.31h3.72c-.51.41-.94.79-1.31,1.14a8.39,8.39,0,0,0-1.07,1.24,14.37,14.37,0,0,0-1.06,1.79c-.37.72-.81,1.6-1.31,2.66s-1,2-1.48,3-.94,2-1.37,3-.82,1.91-1.14,2.76a11.05,11.05,0,0,0-.62,2.17,4.77,4.77,0,0,0,0,3.14,1.64,1.64,0,0,0,1.27,1,3.91,3.91,0,0,0,2.51-1.1,14.51,14.51,0,0,0,2.44-2.79,35,35,0,0,0,2.24-3.71c.71-1.35,1.36-2.65,2-3.89.27-.59.58-.81.93-.65S472.92,41.72,472.6,42.41Z"/><path fill="none" stroke="#FFF" stroke-width="1" d="M63.93,103.55c-.82,1.79-1.65,3.47-2.47,5a21.36,21.36,0,0,1-2.79,4.1,11.48,11.48,0,0,1-3.58,2.75,11,11,0,0,1-4.85,1,8.07,8.07,0,0,1-4.26-1,5.53,5.53,0,0,1-2.27-2.51,7.6,7.6,0,0,1-.58-3.54,16.93,16.93,0,0,1,.75-4.13,26.84,26.84,0,0,1,4-7.91,14.48,14.48,0,0,1,4.33-4,9.54,9.54,0,0,1,4.88-1.41,5,5,0,0,1,3.82,1.31,4.06,4.06,0,0,1,.93,3.43,5.08,5.08,0,0,1-.65,1.72A6.19,6.19,0,0,1,60,99.91a3.33,3.33,0,0,1-1.44.79,1.33,1.33,0,0,1-1.31-.38q.56-.69,1.2-1.62a6,6,0,0,0,.93-1.89,3.68,3.68,0,0,0,0-2.58A1.52,1.52,0,0,0,58,93.44a3.91,3.91,0,0,0-1.93.55,14.12,14.12,0,0,0-2,1.38,14.67,14.67,0,0,0-1.89,1.89,23.06,23.06,0,0,0-1.58,2.1c-.32.46-.7,1.08-1.14,1.85a27,27,0,0,0-1.24,2.58,22,22,0,0,0-1,3,12,12,0,0,0-.42,3.09,7.24,7.24,0,0,0,.93,3.68,3.31,3.31,0,0,0,3.13,1.62A7.22,7.22,0,0,0,55,114a13.73,13.73,0,0,0,3.19-2.89,24.62,24.62,0,0,0,2.62-3.88q1.17-2.13,2.2-4.2.48-1,1-.75C64.25,102.45,64.25,102.87,63.93,103.55Z"/><path fill="none" stroke="#FFF" stroke-width="1" d="M88.35,103.28c-.27.64-.72,1.65-1.34,3a28,28,0,0,1-2.31,4.13,17.08,17.08,0,0,1-3.19,3.62,6,6,0,0,1-4,1.56,6.3,6.3,0,0,1-2.65-.49,5.48,5.48,0,0,1-1.75-1.25,13.72,13.72,0,0,1-3,1.71,6.91,6.91,0,0,1-3,.56A4.58,4.58,0,0,1,64,115a5.28,5.28,0,0,1-1.52-2.82,11.05,11.05,0,0,1,0-4,19,19,0,0,1,1.3-4.51,25.48,25.48,0,0,1,2.55-4.47,22.41,22.41,0,0,1,3.27-3.71A15.8,15.8,0,0,1,73.22,93a7.51,7.51,0,0,1,3.64-.87A4.31,4.31,0,0,1,80,93.24a5.4,5.4,0,0,1,1.55,2.88,11.29,11.29,0,0,1,0,4,18.48,18.48,0,0,1-1.31,4.5,23.51,23.51,0,0,1-2.27,4,23.89,23.89,0,0,1-3.5,4.09,3.3,3.3,0,0,0,3.23,1.72,4.55,4.55,0,0,0,3.13-1.38,17.1,17.1,0,0,0,2.72-3.3,39,39,0,0,0,2.2-3.92c.64-1.33,1.17-2.41,1.58-3.23a.59.59,0,0,1,.82-.34Q88.7,102.52,88.35,103.28Zm-10-8.94a3.61,3.61,0,0,0-2.41.31,9.33,9.33,0,0,0-2.61,1.85,22.1,22.1,0,0,0-2.55,3,24.88,24.88,0,0,0-2.2,3.82,28.65,28.65,0,0,0-1.62,4,16.71,16.71,0,0,0-.72,3.41,6.1,6.1,0,0,0,.21,2.51,1.86,1.86,0,0,0,1.31,1.27,3.46,3.46,0,0,0,2.2-.21,8.89,8.89,0,0,0,2.47-1.51,6.3,6.3,0,0,1-.82-1.72,5.49,5.49,0,0,1-.28-1.65,4.55,4.55,0,0,1,.59-2.06,1.91,1.91,0,0,1,1.82-.9,2,2,0,0,1,1.48.62,2,2,0,0,1,.58,1.44,2.17,2.17,0,0,1,0,.38,3.61,3.61,0,0,1-.1.38,30.73,30.73,0,0,0,2.13-3.71,25.57,25.57,0,0,0,1.58-4.06A15.23,15.23,0,0,0,80,98.12a5.88,5.88,0,0,0-.35-2.51A2,2,0,0,0,78.31,94.34Z"/><path fill="none" stroke="#FFF" stroke-width="1" d="M113.39,103.48q-1.17,2.42-2.38,4.65a29.47,29.47,0,0,1-2.61,4.06,16.48,16.48,0,0,1-3.1,3.09,9.14,9.14,0,0,1-3.88,1.69,33.91,33.91,0,0,1-7.81,12.55A28.92,28.92,0,0,1,80.92,137a9.19,9.19,0,0,1-4.68.28A5.91,5.91,0,0,1,73,135.43a5.14,5.14,0,0,1-1.24-3.3A7.14,7.14,0,0,1,73.08,128a12.44,12.44,0,0,1,4.09-3.68,40.08,40.08,0,0,1,6.09-2.92c2.25-.87,4.58-1.68,7-2.41s4.74-1.45,6.94-2.13a28,28,0,0,0,.79-3,17.54,17.54,0,0,0,.42-3.31,5.19,5.19,0,0,0-.49-2.54c-.34-.67-1-.91-2-.72-.46.23-.94.44-1.45.65l-1.58.65a.9.9,0,0,1-.72,0,.72.72,0,0,1-.42-.38.62.62,0,0,1,0-.51.87.87,0,0,1,.55-.41,10.91,10.91,0,0,0,3-1.31,14.37,14.37,0,0,0,2.2-1.72,16.27,16.27,0,0,0,1.55-1.69,15.21,15.21,0,0,0,1-1.34,3.93,3.93,0,0,0,.76-3.4,3.21,3.21,0,0,0-1.89-2.13,4.3,4.3,0,0,0-3.27.13,7.54,7.54,0,0,0-3.44,3.41c-.23.37-.49.82-.79,1.37l-1,1.76c-.35.62-.68,1.26-1,1.92s-.62,1.28-.89,1.83-.58.81-.9.65-.3-.63.07-1.41c.64-1.19,1.28-2.45,1.93-3.78s1.35-2.69,2.13-4.06a10.73,10.73,0,0,1,3.82-4.23A8.63,8.63,0,0,1,99.87,92a5.1,5.1,0,0,1,3.41,1.1,3.76,3.76,0,0,1,1.3,3.2,10.49,10.49,0,0,1-1.79,4.89,14.66,14.66,0,0,1-5,4.6c1.74,0,3,.37,3.65,1.24a5.46,5.46,0,0,1,1.1,3.24c0,.23,0,.57-.07,1s-.1.94-.17,1.44-.15,1-.24,1.45-.19.82-.28,1.1a7.5,7.5,0,0,0,3.2-1.52,16.8,16.8,0,0,0,2.79-2.85,28.54,28.54,0,0,0,2.44-3.75c.75-1.38,1.48-2.77,2.16-4.2.32-.59.65-.82,1-.68S113.71,102.8,113.39,103.48ZM96.6,118.62q-2.26.75-4.67,1.41t-4.65,1.37c-1.49.48-2.9,1-4.23,1.52a23.36,23.36,0,0,0-3.5,1.68A10.75,10.75,0,0,0,75.87,128a10,10,0,0,0-1.69,4.06,3.53,3.53,0,0,0,.83,3.09c.73.78,2,1,3.78.62a16.32,16.32,0,0,0,4.5-1.79,27.41,27.41,0,0,0,5-3.57,32.2,32.2,0,0,0,4.72-5.2A27.4,27.4,0,0,0,96.6,118.62Z"/><path fill="none" stroke="#FFF" stroke-width="1" d="M142.07,103.48c-.87,1.79-1.68,3.4-2.41,4.82a27.16,27.16,0,0,1-2.3,3.75,18.57,18.57,0,0,1-2.58,2.82,14.14,14.14,0,0,1-3.3,2.1,42.7,42.7,0,0,1-3.34,6.91,37.37,37.37,0,0,1-5.09,6.77,28.82,28.82,0,0,1-6.43,5.16,14,14,0,0,1-7.22,2.07q-6.47,0-6.47-5.3a6.57,6.57,0,0,1,1.76-4.51,17.08,17.08,0,0,1,4.23-3.4,41.71,41.71,0,0,1,5-2.55q2.4-1,4.71-1.85c1.54-.55,3-1.06,4.47-1.52s2.83-1,4.16-1.51a28.09,28.09,0,0,0,1-3.68,39.45,39.45,0,0,0,.58-4,34.26,34.26,0,0,0,.21-3.55,10.28,10.28,0,0,0-.14-2.09c-.55,1-1.29,2.35-2.23,3.88a30.77,30.77,0,0,1-3.17,4.3,15.44,15.44,0,0,1-3.75,3.17,4.92,4.92,0,0,1-4,.55,5.22,5.22,0,0,1-3.27-3.34,9.72,9.72,0,0,1,0-5,21.83,21.83,0,0,1,2.17-5.54A30.55,30.55,0,0,1,118,97a15,15,0,0,1,3.48-3.13A13.32,13.32,0,0,1,125.56,92a10.56,10.56,0,0,1,4.3-.14,9.2,9.2,0,0,1,4.09,1.9,2.51,2.51,0,0,1,1,1.44,1.31,1.31,0,0,1-.21,1.07.82.82,0,0,1-.79.31c-.32,0-.57-.32-.75-.83a3.67,3.67,0,0,0-1.9-2.34,3.78,3.78,0,0,0-2.71,0,11.14,11.14,0,0,0-3.2,1.82,26.22,26.22,0,0,0-3.27,3,39.06,39.06,0,0,0-3.44,4.6,26.66,26.66,0,0,0-2.44,4.72,10.43,10.43,0,0,0-.82,3.92,2.34,2.34,0,0,0,1.41,2.3,3.5,3.5,0,0,0,3.4-.72,18,18,0,0,0,3.65-3.58,37,37,0,0,0,3.13-4.71,21.5,21.5,0,0,0,1.85-4.13,3.44,3.44,0,0,1,.9-1.65,2.67,2.67,0,0,1,1.17-.62,5.58,5.58,0,0,1,1.2-.13,1.52,1.52,0,0,0,1-.35,38.23,38.23,0,0,1,.44,8.36,41,41,0,0,1-1.34,8.36c.83-.6,1.66-1.26,2.51-2a15.94,15.94,0,0,0,2.31-2.47,21.33,21.33,0,0,0,2.58-4.3,29.47,29.47,0,0,1,1.41-3c.32-.59.65-.82,1-.68S142.39,102.8,142.07,103.48Zm-15.55,15.76-1.17.41-1.23.41q-3.8,1.31-7.81,2.86a37.93,37.93,0,0,0-7.33,3.74,11.1,11.1,0,0,0-2.85,2.79,9.53,9.53,0,0,0-1.58,3.23,3.37,3.37,0,0,0,.34,2.69,3.16,3.16,0,0,0,2.86,1.13,8.45,8.45,0,0,0,2.37-.38,16.61,16.61,0,0,0,2.44-.93,21.74,21.74,0,0,0,2.2-1.17,16.13,16.13,0,0,0,1.65-1.1,30,30,0,0,0,3.17-3.06c1-1.17,2.06-2.39,3-3.68A34.25,34.25,0,0,0,126.52,119.24Z"/><path fill="none" stroke="#FFF" stroke-width="1" d="M167.86,103.48q-.75,1.59-1.89,3.72a42.47,42.47,0,0,1-2.51,4.13,19.87,19.87,0,0,1-2.92,3.4,5.37,5.37,0,0,1-3.06,1.55,4.11,4.11,0,0,1-1.79-.31,3.22,3.22,0,0,1-1.58-1.38,5.78,5.78,0,0,1-.73-2.75,13.73,13.73,0,0,1,.66-4.43c-.55.91-1.26,2-2.14,3.19a22.58,22.58,0,0,1-2.82,3.27,7.85,7.85,0,0,1-3.68,2.27,3.41,3.41,0,0,1-2.85-.52,4.77,4.77,0,0,1-1.68-2.71,10.74,10.74,0,0,1-.18-4.37,20.21,20.21,0,0,1,1.69-5.5,25.87,25.87,0,0,1,4-6.09A14.09,14.09,0,0,1,150,93.79a16,16,0,0,1,4.41-1.86,9.94,9.94,0,0,1,4.33-.14,6.32,6.32,0,0,1,3.54,2,1.25,1.25,0,0,1,.45,1.44,1,1,0,0,1-1.21.55,3,3,0,0,0-2.23-2.34,5,5,0,0,0-3.61.62,19.77,19.77,0,0,0-4.82,4,36.77,36.77,0,0,0-4.33,5.82c-.14.23-.34.59-.62,1.1s-.56,1.09-.86,1.75-.57,1.35-.82,2.07a9.87,9.87,0,0,0-.52,2,4,4,0,0,0,.24,2.62,1.61,1.61,0,0,0,1.44.82,4.16,4.16,0,0,0,2.17-.79,11.34,11.34,0,0,0,2.48-2.23,40.8,40.8,0,0,0,3.26-4.65c1-1.62,1.94-3.29,2.86-5a22.61,22.61,0,0,1,2.1-3.37,2.77,2.77,0,0,1,2.58-1,9.25,9.25,0,0,1,1.41.24,3.68,3.68,0,0,0,1.48,0,12.44,12.44,0,0,0-1.48,2c-.62,1-1.26,2.11-1.93,3.37s-1.27,2.56-1.82,3.89a21.62,21.62,0,0,0-1.17,3.57q-.83,4.13.69,4.13a3.25,3.25,0,0,0,2.4-1.31,23.4,23.4,0,0,0,2.58-3.3c.85-1.28,1.62-2.58,2.31-3.88s1.21-2.33,1.58-3.07.64-.82,1-.68S168.18,102.8,167.86,103.48Z"/><path fill="none" stroke="#FFF" stroke-width="1" d="M186.57,103.35c-.64,1.37-1.33,2.83-2.06,4.36a23.94,23.94,0,0,1-2.62,4.27,13.1,13.1,0,0,1-3.54,3.2,9.31,9.31,0,0,1-4.92,1.24,7,7,0,0,1-4.57-1.62,6.2,6.2,0,0,1-2-4.92,15.15,15.15,0,0,1,.38-3.23,19.06,19.06,0,0,1,1.1-3.41A25.76,25.76,0,0,1,170,100a23.77,23.77,0,0,1,2.14-3A19.8,19.8,0,0,1,175,94.27a13,13,0,0,1,3.16-1.89,7.89,7.89,0,0,1,3.06-.66,4.48,4.48,0,0,1,2.65.83A2.88,2.88,0,0,1,185,94.47a5.07,5.07,0,0,1-.37,2.58,11.37,11.37,0,0,1-1.72,2.86,16.08,16.08,0,0,1-2.82,2.68,12.69,12.69,0,0,1-2,1.17,18.48,18.48,0,0,1-2.38,1,21,21,0,0,1-2.34.66,8.76,8.76,0,0,1-1.78.24,12.79,12.79,0,0,0-.73,2.54,12.13,12.13,0,0,0-.2,3.1,5.59,5.59,0,0,0,.82,2.65A2.68,2.68,0,0,0,174,115a6.78,6.78,0,0,0,4.1-1.34,16,16,0,0,0,3.23-3.2,24.91,24.91,0,0,0,2.41-3.85c.66-1.33,1.2-2.45,1.61-3.37a1.77,1.77,0,0,1,.52-.72,1,1,0,0,1,.55-.24.35.35,0,0,1,.34.24C186.81,102.72,186.75,103,186.57,103.35Zm-7.15-2a12,12,0,0,0,2.3-2.61A10,10,0,0,0,183,96.06a4.11,4.11,0,0,0,.14-2.07.93.93,0,0,0-1-.79,4.7,4.7,0,0,0-2.27,1.1,23.24,23.24,0,0,0-3.58,3.61,28.22,28.22,0,0,0-2.51,3.58c-.75,1.28-1.29,2.25-1.61,2.89a7.11,7.11,0,0,0,1.3-.17,14.71,14.71,0,0,0,1.86-.55,15,15,0,0,0,2.1-1A14.83,14.83,0,0,0,179.42,101.35Z"/><path fill="none" stroke="#FFF" stroke-width="1" d="M192.35,113a13.77,13.77,0,0,0,2.51-2.85,35,35,0,0,0,2.13-3.61c.67-1.28,1.28-2.59,1.86-3.92l1.61-3.75c.51-1.17,1-2.2,1.45-3.09a7.17,7.17,0,0,1,1.44-2,3.79,3.79,0,0,1,2.41-1.21,13,13,0,0,1,1.75-.1H210c.18,0,.2.06.06.17a3,3,0,0,1-.61.38,6.58,6.58,0,0,1-1,.38,3.79,3.79,0,0,1-1,.17,3.62,3.62,0,0,0-2.82.79,12.51,12.51,0,0,0-1.72,2.44,46.63,46.63,0,0,0-2.37,5.23,67.13,67.13,0,0,1-2.89,6.36,25.5,25.5,0,0,1-3.65,5.4,6.13,6.13,0,0,1-4.71,2.27,7.9,7.9,0,0,1-3.06-.58,4.69,4.69,0,0,1-2.3-2.24c-.83-1.51-1.07-2.73-.73-3.64a2.79,2.79,0,0,1,1.48-1.76,1.39,1.39,0,0,1,1.65.35c.46.48.39,1.36-.2,2.64A1.69,1.69,0,0,0,186,112a2.88,2.88,0,0,0,.52,1.14,2.73,2.73,0,0,0,1,.82,2.5,2.5,0,0,0,1.2.31,9.33,9.33,0,0,0,2-.31A4.06,4.06,0,0,0,192.35,113Zm11.07,3a4,4,0,0,1-2.06-.65A3.44,3.44,0,0,1,200,113.7a7.47,7.47,0,0,1-.45-2.75,11.73,11.73,0,0,1,.69-3.68c.32-1,.71-2.09,1.17-3.23s.95-2.31,1.48-3.48,1.05-2.33,1.58-3.47,1-2.2,1.41-3.17A2.35,2.35,0,0,1,207,92.79a3.75,3.75,0,0,1,1.62-.31h3.72c-.51.41-1,.79-1.31,1.13a8.94,8.94,0,0,0-1.07,1.24,14.37,14.37,0,0,0-1.06,1.79c-.37.71-.81,1.59-1.31,2.65s-1,2-1.48,3-.94,2-1.38,3-.81,1.9-1.13,2.75a11.05,11.05,0,0,0-.62,2.17,4.61,4.61,0,0,0,0,3.09,1.85,1.85,0,0,0,1.27,1,3.22,3.22,0,0,0,2.71-1,14.57,14.57,0,0,0,2.58-3.27,40.68,40.68,0,0,0,2.38-4.54c.75-1.67,1.48-3.3,2.16-4.88s1.34-3,2-4.23a9.13,9.13,0,0,1,1.76-2.61,4,4,0,0,1,1.1-.83,4.3,4.3,0,0,1,1.31-.38,12.82,12.82,0,0,1,1.75-.1h2.51c.18,0,.21.06.07.17a3.42,3.42,0,0,1-.62.38,6.58,6.58,0,0,1-1,.38,3.79,3.79,0,0,1-1,.17,3.49,3.49,0,0,0-2.78.79,15.62,15.62,0,0,0-1.75,2.44,24.19,24.19,0,0,0-1.55,3.27c-.53,1.31-1.1,2.68-1.72,4.13s-1.3,2.89-2,4.33a24.59,24.59,0,0,1-2.41,3.85,12.13,12.13,0,0,1-2.85,2.72A5.58,5.58,0,0,1,203.42,116.07Zm17-22.15a2.36,2.36,0,0,1,1.07-1.13,3.67,3.67,0,0,1,1.61-.31h3.72c-.51.41-.94.79-1.31,1.13a8.28,8.28,0,0,0-1.06,1.24,14.31,14.31,0,0,0-1.07,1.79c-.37.71-.8,1.59-1.31,2.65s-1,2-1.48,3-.94,2-1.37,3-.82,1.9-1.14,2.75a11.79,11.79,0,0,0-.62,2.17,4.71,4.71,0,0,0,0,3.12,1.66,1.66,0,0,0,1.27,1,3.84,3.84,0,0,0,2.51-1.1,14.74,14.74,0,0,0,2.44-2.78,36.24,36.24,0,0,0,2.24-3.72c.71-1.35,1.36-2.65,2-3.88q.41-.9.93-.66c.34.16.35.59,0,1.27q-.83,1.8-1.92,4a32.24,32.24,0,0,1-2.48,4.09,15.68,15.68,0,0,1-3,3.23,5.51,5.51,0,0,1-3.5,1.31,3.71,3.71,0,0,1-2.07-.58,3.6,3.6,0,0,1-1.34-1.72,7.62,7.62,0,0,1-.45-2.79,11.8,11.8,0,0,1,.69-3.71c.32-1,.71-2.09,1.17-3.23s.95-2.31,1.48-3.48,1.05-2.33,1.58-3.47S220,94.89,220.41,93.92Z"/><path fill="none" stroke="#FFF" stroke-width="1" d="M254.32,113a13.48,13.48,0,0,0,2.51-2.85,35,35,0,0,0,2.13-3.61c.67-1.28,1.29-2.59,1.86-3.92s1.11-2.58,1.62-3.75,1-2.2,1.44-3.09a7,7,0,0,1,1.45-2,4,4,0,0,1,1.1-.83,4.23,4.23,0,0,1,1.3-.38,13.08,13.08,0,0,1,1.76-.1H272c.18,0,.2.06.07.17a3.42,3.42,0,0,1-.62.38,6.58,6.58,0,0,1-1,.38,3.79,3.79,0,0,1-1,.17,3.62,3.62,0,0,0-2.82.79,12.51,12.51,0,0,0-1.72,2.44,46.63,46.63,0,0,0-2.37,5.23,67.13,67.13,0,0,1-2.89,6.36,25.86,25.86,0,0,1-3.64,5.4,6.16,6.16,0,0,1-4.72,2.27,7.9,7.9,0,0,1-3.06-.58,4.69,4.69,0,0,1-2.3-2.24c-.83-1.51-1.07-2.73-.72-3.64a2.74,2.74,0,0,1,1.48-1.76,1.39,1.39,0,0,1,1.65.35c.45.48.39,1.36-.21,2.64A1.75,1.75,0,0,0,248,112a3,3,0,0,0,.52,1.14,2.73,2.73,0,0,0,1,.82,2.5,2.5,0,0,0,1.2.31,9.33,9.33,0,0,0,2-.31A3.93,3.93,0,0,0,254.32,113Zm14.79-19.12a2.35,2.35,0,0,1,1.06-1.13,3.75,3.75,0,0,1,1.62-.31h3.72c-.51.41-.94.79-1.31,1.13a8.94,8.94,0,0,0-1.07,1.24,14.37,14.37,0,0,0-1.06,1.79c-.37.71-.81,1.59-1.31,2.65s-1,2-1.48,3-.94,2-1.37,3-.82,1.9-1.14,2.75a11.05,11.05,0,0,0-.62,2.17,4.71,4.71,0,0,0,0,3.12,1.64,1.64,0,0,0,1.27,1,3.86,3.86,0,0,0,2.51-1.1,14.74,14.74,0,0,0,2.44-2.78,38.12,38.12,0,0,0,2.24-3.72c.71-1.35,1.36-2.65,2-3.88.27-.6.58-.82.92-.66s.36.59,0,1.27c-.55,1.2-1.19,2.52-1.93,4a32.18,32.18,0,0,1-2.47,4.09,15.68,15.68,0,0,1-3,3.23,5.51,5.51,0,0,1-3.51,1.31,3.65,3.65,0,0,1-2.06-.58,3.54,3.54,0,0,1-1.34-1.72,7.62,7.62,0,0,1-.45-2.79,11.8,11.8,0,0,1,.69-3.71c.32-1,.71-2.09,1.17-3.23s.95-2.31,1.48-3.48,1.05-2.33,1.58-3.47S268.7,94.89,269.11,93.92Z"/><path fill="none" stroke="#FFF" stroke-width="1" d="M306.73,103.62c-1.19,2.39-2.24,4.39-3.16,6a20.86,20.86,0,0,1-3.06,4.2,17.6,17.6,0,0,1-4.06,3.09,37.78,37.78,0,0,1-6.09,2.65q-1.65,2.9-3.75,6.12a39.76,39.76,0,0,1-4.71,6,23.94,23.94,0,0,1-5.84,4.47,14.51,14.51,0,0,1-7,1.76,8.94,8.94,0,0,1-4.06-.76,4.42,4.42,0,0,1-2-2,4.75,4.75,0,0,1-.38-2.71,8.94,8.94,0,0,1,1-2.93,9.64,9.64,0,0,1,2.71-3.3,21.39,21.39,0,0,1,3.75-2.34,40.93,40.93,0,0,1,8-2.71q4.5-1.06,8.7-2.24a36.53,36.53,0,0,0,1.85-3.85q.9-2.13,1.65-4.26c.51-1.43,1-2.78,1.38-4.06s.76-2.39,1-3.3c-.59,1-1.3,2.3-2.13,3.74a32.86,32.86,0,0,1-2.79,4.13,19.19,19.19,0,0,1-3.37,3.37,6.12,6.12,0,0,1-3.81,1.41,7.67,7.67,0,0,1-1.21-.1,3.87,3.87,0,0,1-1.27-.45,4,4,0,0,1-1.13-1,3.56,3.56,0,0,1-.73-1.58,7,7,0,0,1-.07-2.14,9.68,9.68,0,0,1,.52-2,14.68,14.68,0,0,1,.89-1.93c.35-.62.68-1.25,1-1.89a1.12,1.12,0,0,1-.65-.21c-.21-.14-.2-.43,0-.89a9.3,9.3,0,0,0,.62-1.17c.18-.41.39-.83.62-1.24q1-2,2.06-4c.69-1.33,1.29-2.52,1.79-3.58a2.36,2.36,0,0,1,1.07-1.13,3.69,3.69,0,0,1,1.62-.31h4.19a13.42,13.42,0,0,1-1.2.89A4.46,4.46,0,0,0,287.34,95q-1.8,3-3.27,6.05t-2.92,6.12a13.64,13.64,0,0,0-1.38,4.47,3.34,3.34,0,0,0,.52,2.51,1.64,1.64,0,0,0,2,.21,8.49,8.49,0,0,0,2.95-2.44,37.32,37.32,0,0,0,3-3.92q1.51-2.28,2.92-4.72t2.69-4.85Q295,96,296,93.92a2.36,2.36,0,0,1,1.07-1.13,3.69,3.69,0,0,1,1.62-.31h3.71A9.27,9.27,0,0,0,300.71,94a12.93,12.93,0,0,0-1.34,2,20.43,20.43,0,0,0-1.17,2.51c-.36.94-.75,2-1.17,3.13q-1.3,3.51-2.64,7.56t-2.86,8.19c.73-.23,1.55-.53,2.44-.9a16.28,16.28,0,0,0,2.65-1.37,18.09,18.09,0,0,0,2.55-2,17.18,17.18,0,0,0,2.27-2.58,44.68,44.68,0,0,0,2.68-4.47c.73-1.42,1.28-2.45,1.65-3.1s.64-.81,1-.65S307.05,102.93,306.73,103.62Zm-21.25,17.47-3.54.9c-1.27.32-2.54.66-3.82,1s-2.52.74-3.71,1.13-2.28.8-3.24,1.21a13.67,13.67,0,0,0-4.37,3,9.9,9.9,0,0,0-2.33,3.68,3.94,3.94,0,0,0,.1,3.13c.46.87,1.42,1.31,2.89,1.31a9.21,9.21,0,0,0,4.67-1.41,28.74,28.74,0,0,0,4.65-3.4,45.4,45.4,0,0,0,4.13-4.2q1.89-2.2,3.06-3.85c.22-.37.47-.77.72-1.21S285.2,121.55,285.48,121.09Z"/><path fill="none" stroke="#FFF" stroke-width="1" d="M326.33,103.55c-.5,1.06-1.1,2.25-1.78,3.58a42.25,42.25,0,0,1-2.27,3.85,18.88,18.88,0,0,1-2.75,3.27,7.21,7.21,0,0,1-3.17,1.82,3.9,3.9,0,0,1-2-.1,3.42,3.42,0,0,1-1.82-1.34,5.39,5.39,0,0,1-.9-2.79,10.55,10.55,0,0,1,.9-4.43c.27-.69.61-1.43,1-2.21s.8-1.53,1.23-2.27.84-1.42,1.21-2.06.64-1.17.82-1.58a1.62,1.62,0,0,0-.82-2.44,11.7,11.7,0,0,0-4.47-.79l-.83,2.2c-.41,1.1-.92,2.35-1.51,3.75s-1.26,2.82-2,4.26a43.58,43.58,0,0,1-2.33,4.06,20.47,20.47,0,0,1-2.48,3.13c-.28.23-.49.22-.65,0a.71.71,0,0,1,.1-.86,43,43,0,0,0,3.78-5.88,63.4,63.4,0,0,0,3.06-6.53A64.35,64.35,0,0,0,311,93.51q.93-3.3,1.48-6.19a2.53,2.53,0,0,1,1.1-1.89,1.64,1.64,0,0,1,1.62,0,3.16,3.16,0,0,1,1.3,1.55,4.61,4.61,0,0,1,.18,2.86A5.69,5.69,0,0,1,315,92.51a17.23,17.23,0,0,1-2.17,1.9q1.93.14,4.44.06c1.67,0,3.36-.16,5.06-.34a1.54,1.54,0,0,1,.1,1,8.82,8.82,0,0,1-.34,1.37c-.17.48-.36,1-.59,1.52s-.44,1-.62,1.41l-.93,1.85c-.43.88-.92,1.85-1.44,2.93s-1,2.21-1.52,3.4a22.32,22.32,0,0,0-1.06,3.27,6.12,6.12,0,0,0-.17,2.44,1.16,1.16,0,0,0,1.2,1,3.47,3.47,0,0,0,2.31-1.37,24.5,24.5,0,0,0,2.47-3.24,41.32,41.32,0,0,0,2.2-3.81c.67-1.31,1.18-2.33,1.55-3.06s.63-.81.93-.62S326.7,102.87,326.33,103.55Z"/><path fill="none" stroke="#FFF" stroke-width="1" d="M338.58,107.27c-.6,1-1.25,2.1-2,3.13a23.9,23.9,0,0,1-2.27,2.82,12.35,12.35,0,0,1-2.51,2.06,4.88,4.88,0,0,1-2.55.79,7.46,7.46,0,0,1-1.2-.1,3.79,3.79,0,0,1-1.27-.45,4.08,4.08,0,0,1-1.14-1A3.66,3.66,0,0,1,325,113a6.74,6.74,0,0,1-.07-2.14,8.58,8.58,0,0,1,.52-2,14.68,14.68,0,0,1,.89-1.93c.34-.62.68-1.25,1-1.89a1.17,1.17,0,0,1-.66-.21c-.2-.14-.19-.43,0-.89a10.82,10.82,0,0,0,.62-1.17c.18-.41.39-.83.62-1.24q1-2,2.06-4c.69-1.33,1.28-2.52,1.79-3.58a2.35,2.35,0,0,1,1.06-1.13,3.75,3.75,0,0,1,1.62-.31h4.2a7.63,7.63,0,0,0-1.1.86,9.57,9.57,0,0,0-1,1.07,13.32,13.32,0,0,0-1.07,1.51,25.81,25.81,0,0,0-1.24,2.34c-.64,1.19-1.21,2.34-1.71,3.44s-1,2-1.45,3-.85,1.84-1.17,2.48a13.83,13.83,0,0,0-1.37,4.47,3.34,3.34,0,0,0,.51,2.51,1.65,1.65,0,0,0,2,.21,8.5,8.5,0,0,0,3-2.44,30.41,30.41,0,0,0,2.85-3.92q1.41-2.28,2.72-4.72t2.51-4.85c.8-1.6,1.53-3.09,2.17-4.47a2.35,2.35,0,0,1,1.06-1.13,3.75,3.75,0,0,1,1.62-.31h3.72c-.51.41-.95.79-1.31,1.14a8.39,8.39,0,0,0-1.07,1.24,14.37,14.37,0,0,0-1.06,1.79c-.37.72-.81,1.6-1.31,2.66s-1,2-1.48,3-.94,2-1.38,3-.81,1.91-1.13,2.76a11.05,11.05,0,0,0-.62,2.17,4.86,4.86,0,0,0,0,3.14,1.67,1.67,0,0,0,1.28,1,3.28,3.28,0,0,0,1.92-.69,11.67,11.67,0,0,0,1.93-1.79,30.7,30.7,0,0,0,2.85-3.94c.94-1.51,1.85-3.09,2.72-4.72s1.71-3.26,2.51-4.87,1.53-3.1,2.17-4.48a2.37,2.37,0,0,1,1.06-1.14,3.75,3.75,0,0,1,1.62-.31h3.71c-.5.41-.94.79-1.3,1.14a8.39,8.39,0,0,0-1.07,1.24,14.37,14.37,0,0,0-1.06,1.79c-.37.72-.81,1.6-1.31,2.66s-1,2-1.48,3-.94,2-1.38,3-.81,1.91-1.13,2.76a11.05,11.05,0,0,0-.62,2.17,4.77,4.77,0,0,0,0,3.14,1.64,1.64,0,0,0,1.27,1,3.91,3.91,0,0,0,2.51-1.1,14.74,14.74,0,0,0,2.44-2.78,38.12,38.12,0,0,0,2.24-3.72c.71-1.35,1.36-2.65,2-3.89.27-.59.58-.81.92-.65s.36.59,0,1.27c-.55,1.2-1.19,2.51-1.93,4a32.18,32.18,0,0,1-2.47,4.09,15.25,15.25,0,0,1-3,3.2,5.64,5.64,0,0,1-3.51,1.27,3.65,3.65,0,0,1-2.06-.58,3.49,3.49,0,0,1-1.34-1.72,7.62,7.62,0,0,1-.45-2.79,11.8,11.8,0,0,1,.69-3.71c-.41.78-.95,1.67-1.62,2.68a21.87,21.87,0,0,1-2.23,2.85,16,16,0,0,1-2.62,2.31,4.87,4.87,0,0,1-2.82,1,3.65,3.65,0,0,1-2.06-.58,3.49,3.49,0,0,1-1.34-1.72,7.62,7.62,0,0,1-.45-2.79A11.8,11.8,0,0,1,338.58,107.27Zm13.07,11.83a14.69,14.69,0,0,1-1.34,1.68,9.87,9.87,0,0,1-1.83,1.55,9.05,9.05,0,0,1-2.3,1.1,7.62,7.62,0,0,1-2.72.35,12.75,12.75,0,0,1-2.65-.42c-.85-.23-1.68-.47-2.51-.72s-1.65-.48-2.47-.69a14.18,14.18,0,0,0-2.48-.38,4.6,4.6,0,0,0-2.65.45,5.13,5.13,0,0,0-1.68,1.41c0,.09-.19.15-.42.17a2.58,2.58,0,0,1-.68,0,3.5,3.5,0,0,1-.62-.1c-.19,0-.28-.11-.28-.21a15.36,15.36,0,0,1,3.27-3,7.81,7.81,0,0,1,5-1.34,17.19,17.19,0,0,1,2.58.34c.84.19,1.69.41,2.54.66s1.67.48,2.48.69a12.51,12.51,0,0,0,2.44.37,5,5,0,0,0,2.82-.44A5.93,5.93,0,0,0,350,119s.1-.08.31-.1a4.17,4.17,0,0,1,.61,0,1.84,1.84,0,0,1,.55.07C351.63,119,351.69,119.05,351.65,119.1Z"/><path fill="none" stroke="#FFF" stroke-width="1" d="M383.84,103.35c-.65,1.37-1.33,2.83-2.07,4.36a23.33,23.33,0,0,1-2.61,4.27,13.1,13.1,0,0,1-3.54,3.2,9.36,9.36,0,0,1-4.92,1.24,7,7,0,0,1-4.58-1.62,6.19,6.19,0,0,1-2-4.92,15.11,15.11,0,0,1,.37-3.23,19.1,19.1,0,0,1,1.11-3.41,25.76,25.76,0,0,1,1.68-3.26,22.72,22.72,0,0,1,2.13-3,20.32,20.32,0,0,1,2.89-2.75,13.26,13.26,0,0,1,3.17-1.89,7.89,7.89,0,0,1,3.06-.66,4.48,4.48,0,0,1,2.64.83,2.89,2.89,0,0,1,1.14,1.92,5.08,5.08,0,0,1-.38,2.58,11.09,11.09,0,0,1-1.72,2.86,16.08,16.08,0,0,1-2.82,2.68,12.23,12.23,0,0,1-2,1.17,18.94,18.94,0,0,1-2.37,1,22.28,22.28,0,0,1-2.34.66,8.84,8.84,0,0,1-1.79.24,13.58,13.58,0,0,0-.72,2.54,11.71,11.71,0,0,0-.21,3.1,5.6,5.6,0,0,0,.83,2.65,2.67,2.67,0,0,0,2.44,1.13,6.75,6.75,0,0,0,4.09-1.34,16.09,16.09,0,0,0,3.24-3.2,24.84,24.84,0,0,0,2.4-3.85c.67-1.33,1.21-2.45,1.62-3.37a1.77,1.77,0,0,1,.52-.72.91.91,0,0,1,.55-.24.35.35,0,0,1,.34.24C384.08,102.72,384,103,383.84,103.35Zm-7.16-2A11.84,11.84,0,0,0,379,98.74a10,10,0,0,0,1.27-2.68A4.11,4.11,0,0,0,380.4,94a.93.93,0,0,0-1-.79,4.7,4.7,0,0,0-2.27,1.1,22.81,22.81,0,0,0-3.58,3.61,27.23,27.23,0,0,0-2.51,3.58c-.76,1.28-1.3,2.25-1.62,2.89a7.19,7.19,0,0,0,1.31-.17,14.71,14.71,0,0,0,1.86-.55,15.48,15.48,0,0,0,2.09-1A13.7,13.7,0,0,0,376.68,101.35Z"/><path fill="none" stroke="#FFF" stroke-width="1" d="M402.48,103.35c-.65,1.37-1.33,2.83-2.07,4.36A23.33,23.33,0,0,1,397.8,112a13.1,13.1,0,0,1-3.54,3.2,9.36,9.36,0,0,1-4.92,1.24,7,7,0,0,1-4.58-1.62,6.19,6.19,0,0,1-2-4.92,15.11,15.11,0,0,1,.37-3.23,19.89,19.89,0,0,1,1.1-3.41A27.21,27.21,0,0,1,385.9,100,22.72,22.72,0,0,1,388,97a20.32,20.32,0,0,1,2.89-2.75,13.4,13.4,0,0,1,3.16-1.89,8,8,0,0,1,3.07-.66,4.48,4.48,0,0,1,2.64.83,2.89,2.89,0,0,1,1.14,1.92,5.08,5.08,0,0,1-.38,2.58,11.09,11.09,0,0,1-1.72,2.86,16.08,16.08,0,0,1-2.82,2.68,12.23,12.23,0,0,1-2,1.17,18.94,18.94,0,0,1-2.37,1,22.28,22.28,0,0,1-2.34.66,8.84,8.84,0,0,1-1.79.24,13.58,13.58,0,0,0-.72,2.54,11.71,11.71,0,0,0-.21,3.1,5.6,5.6,0,0,0,.83,2.65,2.67,2.67,0,0,0,2.44,1.13A6.75,6.75,0,0,0,394,113.7a15.79,15.79,0,0,0,3.23-3.2,24.17,24.17,0,0,0,2.41-3.85c.67-1.33,1.21-2.45,1.62-3.37a1.85,1.85,0,0,1,.51-.72,1,1,0,0,1,.55-.24.36.36,0,0,1,.35.24C402.72,102.72,402.66,103,402.48,103.35Zm-7.16-2a11.84,11.84,0,0,0,2.31-2.61,10,10,0,0,0,1.27-2.68A4.23,4.23,0,0,0,399,94a.93.93,0,0,0-1-.79,4.7,4.7,0,0,0-2.27,1.1,22.81,22.81,0,0,0-3.58,3.61,27.23,27.23,0,0,0-2.51,3.58c-.76,1.28-1.3,2.25-1.62,2.89a7.19,7.19,0,0,0,1.31-.17,14.71,14.71,0,0,0,1.86-.55,15.48,15.48,0,0,0,2.09-1A14.24,14.24,0,0,0,395.32,101.35Z"/><path fill="none" stroke="#FFF" stroke-width="1" d="M413.14,114.28a3.37,3.37,0,0,1-1.17,2,3.19,3.19,0,0,1-2.13.82,2.3,2.3,0,0,1-1.86-.82,2.33,2.33,0,0,1-.48-2,3,3,0,0,1,1.13-2,3.35,3.35,0,0,1,2.17-.83,2.3,2.3,0,0,1,1.86.83A2.34,2.34,0,0,1,413.14,114.28Zm23.25-40.17a13.89,13.89,0,0,1-1.1,1.93c-.65,1-1.47,2.28-2.48,3.82S430.67,83.1,429.4,85s-2.55,3.81-3.88,5.78l-4,5.88c-1.3,2-2.52,3.74-3.64,5.37s-2.09,3-2.89,4.26-1.37,2-1.69,2.51l-.68-.07.06-.48L430.2,74.94a2,2,0,0,1,1-1,4.86,4.86,0,0,1,1.51-.38,15.14,15.14,0,0,1,1.65,0l1.52,0,.34.14Z"/></svg>