<svg id="Слой_1" data-name="Слой 1" xmlns="http://www.w3.org/2000/svg" viewBox="0 0 60 60"><title>Монтажная область 2 копия 9</title><path d="M48.23,26.51,30.57,13.59a1,1,0,0,0-1.14,0L11.77,26.51a1,1,0,0,0-.21,1.36,1,1,0,0,0,1.36.2L30,15.57l17.08,12.5a1,1,0,0,0,.57.19,1,1,0,0,0,.79-.39A1,1,0,0,0,48.23,26.51Z"/><path d="M43.55,28.29a1,1,0,0,0-1,1V44.67H34.84V36.26a4.84,4.84,0,0,0-9.68,0v8.41H17.42V29.26a1,1,0,0,0-1.94,0V45.63a1,1,0,0,0,1,1h9.68a1,1,0,0,0,1-.89.19.19,0,0,0,0-.08V36.26a2.9,2.9,0,1,1,5.8,0v9.37s0,.06,0,.08a1,1,0,0,0,1,.89h9.68a1,1,0,0,0,1-1V29.26A1,1,0,0,0,43.55,28.29Z"/></svg>