<svg id="Слой_1" data-name="Слой 1" xmlns="http://www.w3.org/2000/svg" viewBox="0 0 60 60"><title>Монтажная область 2 копия 8</title><path d="M35.52,22.66A1.28,1.28,0,0,0,34.24,24v3a1.15,1.15,0,0,1-1.14,1.14H31.33a0,0,0,0,1,0-.05V23.06a1.28,1.28,0,0,0-2.56,0V28a.05.05,0,0,1,0,.05H26.9a1.14,1.14,0,0,1-1.14-1.14V24a1.28,1.28,0,0,0-2.56,0v3a3.7,3.7,0,0,0,3.7,3.7h1.77a.05.05,0,0,1,0,.05V53.78a1.28,1.28,0,0,0,2.56,0V30.66a0,0,0,0,1,0-.05H33.1a3.7,3.7,0,0,0,3.7-3.7V24A1.28,1.28,0,0,0,35.52,22.66Z"/><path d="M54.12,20.59H52s0,0,0,0l.18-.18,0,0a4.33,4.33,0,0,0,1.27-3.06,7.58,7.58,0,0,0-2-4.59,13.43,13.43,0,0,0-3.33-3h0A37.3,37.3,0,0,0,30,4.94,37.26,37.26,0,0,0,11.85,9.76h0a13.29,13.29,0,0,0-3.34,3,7.61,7.61,0,0,0-2,4.59,4.33,4.33,0,0,0,1.27,3.06l0,0,.18.18s0,0,0,0H5.88a1.07,1.07,0,0,0-.77,1.82L8.5,25.84a1.07,1.07,0,0,0,1.83-.74l0-2.16s0,0,0,0l.3.29,0,0a5.67,5.67,0,0,0,3.91,1.4,10.47,10.47,0,0,0,5.08-1.48A21.83,21.83,0,0,1,30,20.5a21.76,21.76,0,0,1,10.27,2.69,10.54,10.54,0,0,0,5.09,1.48h0a5.69,5.69,0,0,0,3.88-1.4l0,0,.3-.29s0,0,0,0l0,2.16a1.07,1.07,0,0,0,1.83.74l3.39-3.43A1.07,1.07,0,0,0,54.12,20.59Zm-3.74-2c-1.14,1.12-1.71,1.69-2.85,2.8a3.15,3.15,0,0,1-2.17.73A7.92,7.92,0,0,1,41.55,21l0,0a24.39,24.39,0,0,0-11.49-3h0a24.4,24.4,0,0,0-11.5,3l-.05,0a7.92,7.92,0,0,1-3.81,1.15,3.17,3.17,0,0,1-2.17-.73c-1.14-1.11-1.71-1.68-2.85-2.8a1.7,1.7,0,0,1-.53-1.26,5.2,5.2,0,0,1,1.38-3A11.11,11.11,0,0,1,13.1,12,34.88,34.88,0,0,1,30,7.51,34.81,34.81,0,0,1,46.9,12a10.92,10.92,0,0,1,2.63,2.36,5.2,5.2,0,0,1,1.38,3A1.7,1.7,0,0,1,50.38,18.58Z"/><path d="M48.44,15.11a2.66,2.66,0,0,0-1.28-.3,7.71,7.71,0,0,0-2.35.52,6.41,6.41,0,0,1-1.64.41H43.1a.3.3,0,0,1-.18-.08,1.51,1.51,0,0,1-.33-.38c-.31-.45-.64-1.2-1.05-1.93a5.91,5.91,0,0,0-.73-1.06,2.62,2.62,0,0,0-1.25-.81,2.27,2.27,0,0,0-.62-.09,3.69,3.69,0,0,0-1.58.43c-.68.34-1.29.77-1.83,1.09a3.07,3.07,0,0,1-1.05.47h-.06a1.6,1.6,0,0,1-.49-.33c-.42-.36-.94-1-1.51-1.6a6.32,6.32,0,0,0-1-.85A2.64,2.64,0,0,0,30,10.13h0a2.93,2.93,0,0,0-1.78.73,19.38,19.38,0,0,0-1.69,1.75,5.46,5.46,0,0,1-.64.6.93.93,0,0,1-.31.17h0a1.36,1.36,0,0,1-.58-.2c-.45-.22-1-.62-1.66-1a4.51,4.51,0,0,0-2.24-.79,2.27,2.27,0,0,0-.62.09,2.93,2.93,0,0,0-1.53,1.15,18.63,18.63,0,0,0-1.18,2.11,5.09,5.09,0,0,1-.47.74.79.79,0,0,1-.26.24.37.37,0,0,1-.17,0,6.41,6.41,0,0,1-1.64-.41,7.71,7.71,0,0,0-2.35-.52,2.66,2.66,0,0,0-1.28.3,1.11,1.11,0,0,0,1.06,2s0,0,0,0h0a1.13,1.13,0,0,1,.19,0,6.18,6.18,0,0,1,1.65.41,8.1,8.1,0,0,0,2.34.53,2.65,2.65,0,0,0,1-.19,3.34,3.34,0,0,0,1.41-1.25c.48-.71.81-1.5,1.15-2.09a3.71,3.71,0,0,1,.44-.66.88.88,0,0,1,.15-.14l.07,0a1.45,1.45,0,0,1,.6.19c.45.22,1,.63,1.66,1a4.49,4.49,0,0,0,2.22.78,2,2,0,0,0,.34,0,3.26,3.26,0,0,0,1.66-.86c.65-.57,1.17-1.24,1.64-1.73a4,4,0,0,1,.6-.53.73.73,0,0,1,.18-.09H30l0,0a2.54,2.54,0,0,1,.63.49c.39.39.85.95,1.36,1.47a5.8,5.8,0,0,0,.87.75,2.8,2.8,0,0,0,1.18.48,2,2,0,0,0,.34,0A3.55,3.55,0,0,0,36,15.18c.67-.34,1.28-.77,1.82-1.09a3,3,0,0,1,1.06-.47H39l.06,0a2.26,2.26,0,0,1,.47.63c.29.48.58,1.14.95,1.78a3.79,3.79,0,0,0,1.69,1.7,2.65,2.65,0,0,0,1,.19,8.1,8.1,0,0,0,2.34-.53A6.18,6.18,0,0,1,47.16,17a.44.44,0,0,1,.2,0,1.11,1.11,0,0,0,1.08-1.95Z"/></svg>