<svg id="Слой_1" data-name="Слой 1" xmlns="http://www.w3.org/2000/svg" viewBox="0 0 60 60"><title>Монтажная область 2</title><path d="M57,10.94a1.87,1.87,0,0,0-1.33-.5,2.93,2.93,0,0,0-1.15.25c-1.67.71-2.53,1.1-4.22,1.9h0a8.3,8.3,0,0,0-3,2.56s0,.05-.08,0a2.57,2.57,0,0,0-1.11-.25,3.31,3.31,0,0,0-2.41,1.13c-1,1.08-1.5,1.66-2.44,2.78a8.33,8.33,0,0,0-2,5.3v.13s0,0-.06.06a6.38,6.38,0,0,0-1.57.65l-.14.08s0,0-.06,0a2.94,2.94,0,0,0-.9-1.81L36.17,23a.06.06,0,0,1,0-.09,8.07,8.07,0,0,0,1.2-4.25V15.21a2.89,2.89,0,0,0-.92-2.15,3,3,0,0,0-1.61-.79s0,0,0-.07a7,7,0,0,0,.08-1,6.68,6.68,0,0,0-.61-2.81l-2-4.22A2.83,2.83,0,0,0,31.36,3a2.28,2.28,0,0,0-2.72,0,3,3,0,0,0-.89,1.1l-2,4.23a6.83,6.83,0,0,0-.61,2.81,7,7,0,0,0,.08,1s0,.07,0,.07a3,3,0,0,0-1.61.79,2.91,2.91,0,0,0-.92,2.15v3.44a8.16,8.16,0,0,0,1.2,4.25.07.07,0,0,1,0,.09,3.11,3.11,0,0,0-.28.23,2.94,2.94,0,0,0-.9,1.81s0,.06-.06,0L22.46,25a6.38,6.38,0,0,0-1.57-.65s-.06,0-.06-.06v-.13a8.28,8.28,0,0,0-2-5.3c-.93-1.12-1.44-1.7-2.43-2.78a3.31,3.31,0,0,0-2.41-1.13,2.57,2.57,0,0,0-1.11.25s-.06,0-.07,0A8.41,8.41,0,0,0,9.7,12.6h0c-1.68-.8-2.55-1.19-4.22-1.9a2.93,2.93,0,0,0-1.15-.25,1.87,1.87,0,0,0-1.33.5,1.84,1.84,0,0,0-.56,1.35,2.78,2.78,0,0,0,.41,1.37,36,36,0,0,1,1.92,3.76,8.75,8.75,0,0,0,2.08,2.81.06.06,0,0,1,0,.08,2.54,2.54,0,0,0-.42,1.43,3.12,3.12,0,0,0,.66,1.88c.77,1,1.12,1.47,1.83,2.5a8.8,8.8,0,0,0,2.92,2.64.09.09,0,0,1,0,.09,2.83,2.83,0,0,0-.14.87,3,3,0,0,0,.4,1.49c.62,1.09.9,1.6,1.46,2.71a8.19,8.19,0,0,0,2.57,3,0,0,0,0,1,0,.07,3,3,0,0,0-.33,1.35,2.73,2.73,0,0,0,.21,1.08c.45,1.16.66,1.7,1.06,2.88v0a9.07,9.07,0,0,0,3.42,4.17,14.91,14.91,0,0,0,3.1,1.64,1.35,1.35,0,0,0,.47.09,1.31,1.31,0,0,0,.47-2.54,12.52,12.52,0,0,1-2.53-1.34,6.58,6.58,0,0,1-2.46-2.92c-.4-1.18-.64-1.81-1.1-3a.26.26,0,0,1,0-.11.21.21,0,0,1,.07-.18.12.12,0,0,1,.11-.05h.06l1.38.38c.78.21,1.75.48,2.44.69h0s0,0,0,.06a8.14,8.14,0,0,0,3.14,6.17l.09.07.57.43a.14.14,0,0,1,0,.1l-.7,10a1.32,1.32,0,0,0,1.31,1.41h5.8A1.3,1.3,0,0,0,34.21,56l-.7-10a.11.11,0,0,1,0-.08l.64-.49a8.12,8.12,0,0,0,3.18-6.19s0-.06,0-.07h.06l2.42-.68,1.38-.38h.06a.11.11,0,0,1,.11.05.21.21,0,0,1,.07.18.23.23,0,0,1,0,.11c-.46,1.17-.7,1.8-1.1,3a6.6,6.6,0,0,1-2.46,2.91,12.52,12.52,0,0,1-2.53,1.34,1.31,1.31,0,0,0,.47,2.54,1.27,1.27,0,0,0,.47-.09,14.42,14.42,0,0,0,3.1-1.64,9.07,9.07,0,0,0,3.42-4.17v0c.41-1.18.61-1.72,1.07-2.88a2.72,2.72,0,0,0,.2-1.08A3,3,0,0,0,43.8,37s0-.05,0-.07a8.19,8.19,0,0,0,2.57-3c.56-1.11.84-1.62,1.46-2.71a3,3,0,0,0,.4-1.49,2.83,2.83,0,0,0-.14-.87.09.09,0,0,1,0-.09,8.63,8.63,0,0,0,2.92-2.65c.71-1,1.06-1.49,1.83-2.49a3.12,3.12,0,0,0,.66-1.88,2.54,2.54,0,0,0-.42-1.43.08.08,0,0,1,0-.08,8.75,8.75,0,0,0,2.08-2.81,36,36,0,0,1,1.92-3.76,2.78,2.78,0,0,0,.41-1.37A1.84,1.84,0,0,0,57,10.94ZM7.15,16.33c-.47-1-.81-1.75-1.24-2.55,0,0,0,0,0,0,.82.36,1.53.69,2.61,1.2a5.71,5.71,0,0,1,2.62,2.63c.13.31.57,1.5.23,1.84s-1.6-.35-1.91-.52A6,6,0,0,1,7.15,16.33Zm3.93,8.28C10.36,23.57,10,23,9.18,22l0-.07s0-.06,0-.06c.67.05,2.27.17,3.27.27A1.31,1.31,0,0,0,13.86,21c.14-1,.25-2.59.3-3.31,0,0,0,0,.06,0a1.45,1.45,0,0,1,.19.17c1,1.07,1.43,1.58,2.36,2.69a5.67,5.67,0,0,1,1.43,3.61,4.7,4.7,0,0,1-.09.92c0,.05-.53,1.93-.67,2.4a0,0,0,0,1-.06,0c-1-.16-2.59-.45-2.59-.45A5.76,5.76,0,0,1,11.08,24.61Zm12.76,8.54a3.11,3.11,0,0,0-.28.23,2.91,2.91,0,0,0-.92,2.15v.85s0,0-.07,0c-1.42-.4-3.16-.87-3.17-.87h0A5.42,5.42,0,0,1,16,32.73c-.58-1.13-.9-1.72-1.52-2.82a.34.34,0,0,1-.06-.19v0a.06.06,0,0,1,.07,0l.55.09.73.13c.71.12,1.58.27,2.24.4,1.73.34,2-1.85,2.29-3.07l.07-.26s.05,0,.07,0a4,4,0,0,1,.76.32,2.56,2.56,0,0,1,1.12,1.33,19.32,19.32,0,0,1,.56,2,8.1,8.1,0,0,0,1,2.53A0,0,0,0,1,23.84,33.15ZM28.13,9.5,30,5.59s0,0,0,0L31.87,9.5a4,4,0,0,1,.36,1.68,4,4,0,0,1-.36,1.69s-1,2-1.87,2-1.87-2-1.87-2a4,4,0,0,1-.36-1.69A3.91,3.91,0,0,1,28.13,9.5Zm-2.86,5.71a.27.27,0,0,1,.1-.24.33.33,0,0,1,.24-.1h0a.24.24,0,0,1,.14,0l.09.06,3.35,2.57a1.32,1.32,0,0,0,1.6,0l2.51-1.92h0l.87-.67a.3.3,0,0,1,.2-.07.31.31,0,0,1,.25.1.27.27,0,0,1,.1.24v3.44A5.49,5.49,0,0,1,32.62,23l-.09.06-2.31,1.77-.16.12a.09.09,0,0,1-.12,0L27.42,23a5.51,5.51,0,0,1-2.15-4.36Zm0,10.16a.28.28,0,0,1,.1-.24.37.37,0,0,1,.24-.1h0a.29.29,0,0,1,.2.07l2.89,2.21.49.38a1.3,1.3,0,0,0,.51.23l.08,0h0L30,28a1.38,1.38,0,0,0,.62-.15l.18-.12,3.38-2.59a.3.3,0,0,1,.2-.07.3.3,0,0,1,.25.1.28.28,0,0,1,.1.24v3.44a5.47,5.47,0,0,1-2.12,4.34l-.06,0-1.36,1.05L30,35.12a0,0,0,0,1-.07,0l-1-.76-1.55-1.19a5.46,5.46,0,0,1-2-3.16v0a5.14,5.14,0,0,1-.13-1.18Zm6.17,29.41H28.56a.06.06,0,0,1,0-.06L29,47.91s0,0,.06,0l.15.12a1.32,1.32,0,0,0,1.6,0l.15-.12s.06,0,.06,0l.48,6.81A.06.06,0,0,1,31.44,54.78ZM34.73,39a5.47,5.47,0,0,1-2.15,4.36l-2.52,1.94a.13.13,0,0,1-.12,0c-1.16-.9-2.52-1.93-2.52-1.94A5.49,5.49,0,0,1,25.27,39V35.53a.28.28,0,0,1,.1-.24.37.37,0,0,1,.24-.1h0a.29.29,0,0,1,.2.07h0l3.37,2.58a1.34,1.34,0,0,0,.59.25H30a1.33,1.33,0,0,0,.8-.27L33.27,36l.87-.66.1-.07a.24.24,0,0,1,.14,0,.33.33,0,0,1,.25.1.28.28,0,0,1,.1.24Zm10.84-9.06c-.62,1.1-.94,1.69-1.52,2.82a5.45,5.45,0,0,1-3.45,2.81h0c-.09,0-1.79.48-3.17.87,0,0-.06,0-.06,0v-.85a3,3,0,0,0-.93-2.15l-.27-.23s0,0,0-.07a8.1,8.1,0,0,0,1-2.53A9.13,9.13,0,0,1,38,28.08a2.56,2.56,0,0,1,.87-.82,3.83,3.83,0,0,1,.75-.32.06.06,0,0,1,.08,0c.3,1.15.53,3.66,2.22,3.34l2.37-.43,1.17-.2.1,0s.08,0,.08,0v0A.34.34,0,0,1,45.57,29.91Zm5.3-8,0,.07c-.77,1-1.17,1.55-1.9,2.59a5.72,5.72,0,0,1-3.71,2.44s-1.32.22-2.58.45c0,0-.06,0-.07,0-.11-.37-.22-.76-.31-1.11s-.21-.73-.27-1-.07-.27-.08-.32a4.05,4.05,0,0,1-.1-.92,5.68,5.68,0,0,1,1.42-3.6c.94-1.12,1.39-1.63,2.37-2.7a1.37,1.37,0,0,1,.19-.17s.06,0,.06,0c0,.37.22,2.7.3,3.33a1.31,1.31,0,0,0,1.43,1.14c1-.1,2.6-.22,3.27-.27C50.87,21.89,50.88,21.93,50.87,22Zm2-5.62a5.93,5.93,0,0,1-2.32,2.58c-.31.17-1.61.73-1.92.52s.1-1.53.23-1.83A5.64,5.64,0,0,1,51.46,15s0,0,0,0h0c1.07-.51,1.78-.83,2.6-1.19,0,0,0,0,0,0C53.67,14.58,53.32,15.3,52.85,16.33Z"/></svg>