<svg id="Слой_1" data-name="Слой 1" xmlns="http://www.w3.org/2000/svg" viewBox="0 0 60 60"><title>Монтажная область 2 копия 3</title><path d="M58,12a.66.66,0,0,0,0-.14,2.31,2.31,0,0,0-.18-.8l-.12-.23a2.48,2.48,0,0,0-1.25-1,4.24,4.24,0,0,0-1.58-.27A12.23,12.23,0,0,0,49.55,11a13.72,13.72,0,0,0-3.49,2.5A6.74,6.74,0,0,0,45,15a3.39,3.39,0,0,0-.49,1.65h0V48h0a2.21,2.21,0,0,0,.26,1.05A2.41,2.41,0,0,0,46,50.22a4.24,4.24,0,0,0,1.58.27A12.23,12.23,0,0,0,52.92,49a14.36,14.36,0,0,0,3.49-2.47,7,7,0,0,0,1.1-1.4A3.39,3.39,0,0,0,58,43.44V12ZM48.65,47.79a.06.06,0,0,1,0,.06,5.61,5.61,0,0,1-1,.1,2.33,2.33,0,0,1-.55-.06.06.06,0,0,1-.05-.06V19.09s0-.05,0-.05a5.12,5.12,0,0,0,.56,0,8.2,8.2,0,0,0,1-.07s.07,0,.07,0Zm3.72-1.48a.11.11,0,0,1,0,.08l-.59.32a12.17,12.17,0,0,1-1.6.7s0,0,0,0V18.73s0-.06,0-.06a15.51,15.51,0,0,0,2.21-.84s0,0,0,0Zm-.62-31a9.9,9.9,0,0,1-4.14,1.25,2.27,2.27,0,0,1-.52-.05.05.05,0,0,1,0-.07,2.21,2.21,0,0,1,.11-.21,9.17,9.17,0,0,1,3.55-2.91,9.86,9.86,0,0,1,4.14-1.24,2.27,2.27,0,0,1,.52,0,.05.05,0,0,1,0,.07,1.44,1.44,0,0,1-.11.2A9,9,0,0,1,51.75,15.28Zm3.69,28.26A4,4,0,0,1,54.35,45c-.15.13-.31.27-.49.41,0,0,0,0,0,0V17.08s0-.06.06-.08a15.43,15.43,0,0,0,1.54-1.07,0,0,0,0,1,0,0V43.4a.34.34,0,0,1,0,.1Z"/><path d="M38.45,32a5,5,0,0,1,0-4c1.12-2.55,2.15-5,2.91-7.16a18.11,18.11,0,0,0,1.29-5.46,4.8,4.8,0,0,0-.07-.85,5.26,5.26,0,0,0-.37-1.26,3.14,3.14,0,0,0-1.48-1.59,2.68,2.68,0,0,0-1.11-.24,3.16,3.16,0,0,0-1.43.35,4.34,4.34,0,0,0-.8.48,3.18,3.18,0,0,1-.45.3,1.26,1.26,0,0,1-.3.11.1.1,0,0,1-.09,0,1.52,1.52,0,0,1-.24-.31,3.86,3.86,0,0,1-.27-.54,4.86,4.86,0,0,0-.67-1.14,3.31,3.31,0,0,0-.71-.68,2.5,2.5,0,0,0-1.13-.46,2.31,2.31,0,0,0-.37,0,3,3,0,0,0-1.83.69,4.45,4.45,0,0,0-.83.85,3.22,3.22,0,0,1-.44.5,1.08,1.08,0,0,1-.2.13.08.08,0,0,1-.09,0,1.09,1.09,0,0,1-.25-.19,4.34,4.34,0,0,1-.38-.44,4.45,4.45,0,0,0-.83-.85,3,3,0,0,0-1.83-.69l-.37,0A2.5,2.5,0,0,0,25,10a3.76,3.76,0,0,0-1,1,5.85,5.85,0,0,0-.42.8,3.35,3.35,0,0,1-.32.62,1.15,1.15,0,0,1-.19.22.08.08,0,0,1-.09,0,1.12,1.12,0,0,1-.3-.11,3.89,3.89,0,0,1-.45-.3,4.55,4.55,0,0,0-.79-.48A3.25,3.25,0,0,0,20,11.45a2.56,2.56,0,0,0-1.11.24,3.14,3.14,0,0,0-1.48,1.59,5.44,5.44,0,0,0-.37,1.25,6,6,0,0,0-.08.86,18.17,18.17,0,0,0,1.3,5.46C19,23,20.08,25.46,21.19,28a5,5,0,0,1,0,4c-1.11,2.55-2.15,5-2.91,7.16A18.17,18.17,0,0,0,17,44.61a6.11,6.11,0,0,0,.08.86,5.73,5.73,0,0,0,.37,1.25,3.14,3.14,0,0,0,1.48,1.59,2.71,2.71,0,0,0,1.11.24,3.25,3.25,0,0,0,1.44-.35,4.55,4.55,0,0,0,.79-.48,3.89,3.89,0,0,1,.45-.3,1.26,1.26,0,0,1,.3-.11.1.1,0,0,1,.09,0,1.52,1.52,0,0,1,.24.31,3.44,3.44,0,0,1,.27.55,5.06,5.06,0,0,0,.67,1.13A3.31,3.31,0,0,0,25,50a2.5,2.5,0,0,0,1.14.46l.36,0a3,3,0,0,0,1.83-.69,4.45,4.45,0,0,0,.83-.85,3.22,3.22,0,0,1,.44-.5,1.08,1.08,0,0,1,.2-.13.07.07,0,0,1,.09,0,1.5,1.5,0,0,1,.25.19,4.34,4.34,0,0,1,.38.44,4.45,4.45,0,0,0,.83.85,3,3,0,0,0,1.83.69l.36,0A2.62,2.62,0,0,0,34.66,50a3.76,3.76,0,0,0,1-1,5.85,5.85,0,0,0,.42-.8,3.07,3.07,0,0,1,.32-.62,1.15,1.15,0,0,1,.19-.22.08.08,0,0,1,.09,0,1.12,1.12,0,0,1,.3.11,3.18,3.18,0,0,1,.45.3,4.34,4.34,0,0,0,.8.48,3.16,3.16,0,0,0,1.43.35,2.64,2.64,0,0,0,1.1-.24,3.12,3.12,0,0,0,1.49-1.59,5.73,5.73,0,0,0,.37-1.25,6.11,6.11,0,0,0,.08-.86,18.48,18.48,0,0,0-1.3-5.46C40.6,37,39.57,34.54,38.45,32Zm1.64,13v0a2.53,2.53,0,0,1-.19.64,1.53,1.53,0,0,1-.15.27l-.08.07h0a.85.85,0,0,1-.35-.1c-.14-.07-.28-.17-.35-.21a5.3,5.3,0,0,0-.79-.52,3.39,3.39,0,0,0-1.54-.42,2.34,2.34,0,0,0-.72.11,3,3,0,0,0-1.61,1.26,6.27,6.27,0,0,0-.56,1.07,2.57,2.57,0,0,1-.32.54,1.14,1.14,0,0,1-.18.19.12.12,0,0,1-.1,0,1.81,1.81,0,0,1-.58-.52,6.13,6.13,0,0,0-.8-.88,3.4,3.4,0,0,0-.78-.51,2.46,2.46,0,0,0-2.24,0,3.69,3.69,0,0,0-1.06.78c-.25.26-.43.5-.52.61a1.93,1.93,0,0,1-.38.39.73.73,0,0,1-.2.13s-.07,0-.1,0a1,1,0,0,1-.24-.25,3,3,0,0,1-.26-.47,6.27,6.27,0,0,0-.56-1.07,3,3,0,0,0-1.61-1.26,2.34,2.34,0,0,0-.72-.11,3.39,3.39,0,0,0-1.54.42,5.3,5.3,0,0,0-.79.52c-.07,0-.21.14-.35.21A.85.85,0,0,1,20,46h0l-.08-.07a2.4,2.4,0,0,1-.34-.91v0a2.76,2.76,0,0,1,0-.38A16.37,16.37,0,0,1,20.67,40c.73-2,1.74-4.46,2.84-7a7.62,7.62,0,0,0,0-6c-1.1-2.53-2.11-4.95-2.84-7a16.37,16.37,0,0,1-1.15-4.61,2.76,2.76,0,0,1,0-.38v0a2.53,2.53,0,0,1,.19-.64,1.53,1.53,0,0,1,.15-.27L20,14h0a.85.85,0,0,1,.35.1,2.9,2.9,0,0,1,.35.21,5.3,5.3,0,0,0,.79.52,3.39,3.39,0,0,0,1.54.42,2.34,2.34,0,0,0,.72-.11,3,3,0,0,0,1.61-1.26,6.27,6.27,0,0,0,.56-1.07,2.57,2.57,0,0,1,.32-.54,1.14,1.14,0,0,1,.18-.19.12.12,0,0,1,.1,0,1.81,1.81,0,0,1,.58.52,5.78,5.78,0,0,0,.81.88,3.12,3.12,0,0,0,.77.51,2.46,2.46,0,0,0,2.24,0A3.69,3.69,0,0,0,32,13.2c.25-.26.43-.5.52-.61a1.93,1.93,0,0,1,.38-.39.73.73,0,0,1,.2-.13.09.09,0,0,1,.1,0,1.27,1.27,0,0,1,.24.26,3,3,0,0,1,.26.47,6.27,6.27,0,0,0,.56,1.07,3,3,0,0,0,1.61,1.26,2.34,2.34,0,0,0,.72.11,3.39,3.39,0,0,0,1.54-.42,5.3,5.3,0,0,0,.79-.52,2.9,2.9,0,0,1,.35-.21.85.85,0,0,1,.35-.1.18.18,0,0,1,.09,0s0,0,0,0a2.4,2.4,0,0,1,.34.91v0a2.76,2.76,0,0,1,0,.38A16.37,16.37,0,0,1,39,20c-.73,2.05-1.74,4.46-2.84,7a7.62,7.62,0,0,0,0,6c1.1,2.53,2.11,4.94,2.84,7a16.37,16.37,0,0,1,1.15,4.61A2.76,2.76,0,0,1,40.09,45Z"/><path d="M26,24.15a1.27,1.27,0,0,0-.65,1.67,10.59,10.59,0,0,1,0,8.36A1.27,1.27,0,0,0,26,35.85a1.34,1.34,0,0,0,.51.11,1.28,1.28,0,0,0,1.16-.76,13.06,13.06,0,0,0,0-10.4A1.27,1.27,0,0,0,26,24.15Z"/><path d="M33.43,30a10.44,10.44,0,0,1,.87-4.18,1.27,1.27,0,0,0-2.33-1h0A13.09,13.09,0,0,0,32,35.2a1.28,1.28,0,0,0,1.16.76,1.34,1.34,0,0,0,.51-.11,1.28,1.28,0,0,0,.66-1.67A10.44,10.44,0,0,1,33.43,30Z"/><path d="M14.41,34.38a.09.09,0,0,1,0-.1,8,8,0,0,0,.77-3.48,8.11,8.11,0,0,0-.77-3.52.09.09,0,0,1,0-.1,7.88,7.88,0,0,0,.77-3.48,8,8,0,0,0-.77-3.52.09.09,0,0,1,0-.1,7.88,7.88,0,0,0,.77-3.48,8.06,8.06,0,0,0-1.32-4.5,11.21,11.21,0,0,0-.69-.93l-.08-.09A5.23,5.23,0,0,0,10.9,9.84a8.38,8.38,0,0,0-2.43-.33,10.75,10.75,0,0,0-2.9.4,5.16,5.16,0,0,0-2.2,1.15l0,0h0l-.09.11h0a.83.83,0,0,0-.08.12h0l0,.06h0A8.32,8.32,0,0,0,2.77,19a.09.09,0,0,1,0,.1,8.34,8.34,0,0,0,0,7,.11.11,0,0,1,0,.11,8.34,8.34,0,0,0,0,7,.09.09,0,0,1,0,.1,8.34,8.34,0,0,0,0,7,.09.09,0,0,1,0,.1,8.31,8.31,0,0,0,.54,8,9.78,9.78,0,0,0,.71.95l.16.16a4,4,0,0,0,2.63,1h.07a15.22,15.22,0,0,0,2.6-.37,14.74,14.74,0,0,1,2.9-.33h.51A1.3,1.3,0,0,0,14,49.19,8,8,0,0,0,15.18,45a8.07,8.07,0,0,0-.77-3.51.11.11,0,0,1,0-.11,7.88,7.88,0,0,0,.77-3.48A8.11,8.11,0,0,0,14.41,34.38ZM8.47,12.05a6,6,0,0,1,1.7.22,2.72,2.72,0,0,1,1.09.57c.17.22.33.43.48.65a5.9,5.9,0,0,1,.83,4s0,0,0,0c-.27-.28-.55-.55-.84-.8-.8-.69-1.64-1.32-2.46-1.91a24.81,24.81,0,0,1-3-2.45s0-.05,0-.06A8.36,8.36,0,0,1,8.47,12.05ZM4.63,14.46s0,0,.06,0a29.39,29.39,0,0,0,3,2.47c.81.58,1.59,1.17,2.29,1.78a9.38,9.38,0,0,1,1.71,1.89h0a0,0,0,0,0,0,0,5.48,5.48,0,0,1,.89,3.1,6.06,6.06,0,0,1-.09,1.06s0,0-.06,0a28,28,0,0,0-3-2.46,15.8,15.8,0,0,1-4-3.68,1.18,1.18,0,0,1-.11-.19l0,0a5.55,5.55,0,0,1-.77-2.89A6.06,6.06,0,0,1,4.63,14.46ZM9,47.63A12.23,12.23,0,0,1,6.88,48a1.44,1.44,0,0,1-1-.29l-.06-.06c-.14-.18-.28-.37-.41-.56a5.61,5.61,0,0,1-.9-3.12A6.74,6.74,0,0,1,4.61,43s0,0,0,0A27.22,27.22,0,0,0,8,45.67c.77.56,1.53,1.13,2.21,1.72a0,0,0,0,1,0,0C9.74,47.49,9.35,47.56,9,47.63Zm3.55-1.57s0,0-.06,0a29.26,29.26,0,0,0-3-2.46,15.62,15.62,0,0,1-4-3.68,1.74,1.74,0,0,1-.11-.18l0,0a5.64,5.64,0,0,1-.76-2.89,6.74,6.74,0,0,1,.07-.92s0,0,0,0A27.22,27.22,0,0,0,8,38.57a17.15,17.15,0,0,1,3.94,3.57A5.46,5.46,0,0,1,12.64,45,6,6,0,0,1,12.55,46.06Zm0-7.1s0,0-.06,0a28.14,28.14,0,0,0-3-2.47,15.62,15.62,0,0,1-4-3.68,1.74,1.74,0,0,1-.11-.18l0,0a5.53,5.53,0,0,1-.77-2.89,5.64,5.64,0,0,1,.08-.93s0-.05,0,0A27.12,27.12,0,0,0,8,31.46,17.15,17.15,0,0,1,11.87,35a5.52,5.52,0,0,1,.77,2.9A5.9,5.9,0,0,1,12.55,39Zm0-7.1s0,0-.06,0a29.39,29.39,0,0,0-3-2.47,15.6,15.6,0,0,1-4-3.67,5.54,5.54,0,0,1-.91-3.12,6.89,6.89,0,0,1,.07-.93s0-.05,0,0A26.21,26.21,0,0,0,8,24.36a17.15,17.15,0,0,1,3.94,3.57,5.47,5.47,0,0,1,.75,2.87A6.06,6.06,0,0,1,12.55,31.86Z"/></svg>