<svg id="Layer_1" data-name="Layer 1" xmlns="http://www.w3.org/2000/svg" viewBox="0 0 71.32 74.62"><defs><style>.cls-1{fill:#201600;}</style></defs><title>Монтажная область 1</title><path class="cls-1" d="M70.6,42.86a3.81,3.81,0,0,0-1.45-1c-2.28-.89-3.48-1.33-5.85-2.14h0a10.23,10.23,0,0,0-3.09-.49,9.76,9.76,0,0,0-2.22.26.07.07,0,0,1-.09-.05,3.65,3.65,0,0,0-1.06-1.57,4.18,4.18,0,0,0-2.76-1l-.52,0c-1.93.22-3,.36-4.88.68a10.56,10.56,0,0,0-2.6.75L45.5,2A1.48,1.48,0,0,0,44.74.69,1.59,1.59,0,0,0,43.49,0L9.83.14A1.47,1.47,0,0,0,8.75.6L.42,9.3h0a1.5,1.5,0,0,0-.3.48s0,0,0,0a1.7,1.7,0,0,0-.09.5V57.5A1.5,1.5,0,0,0,1.46,59l10.17.29C8.76,61.47,6,63.77,3.26,66.23A1.74,1.74,0,0,0,3,68.56L7,73.91a1.74,1.74,0,0,0,1.26.71h.15a1.75,1.75,0,0,0,1.22-.49q3.2-3.09,6.56-5.88a1.75,1.75,0,0,0-2.21-2.71v0h0c-1.79,1.48-3.54,3-5.26,4.63,0,0-.06,0-.07,0L6.81,67.81s0-.06,0-.09c2.43-2.14,4.9-4.15,7.46-6.06a0,0,0,0,1,0,0c0,.08,0,.16,0,.24a1.76,1.76,0,0,0,1.08,1.72c.94.38,2.24.94,3.29,1.4l1.87.83a9.65,9.65,0,0,0,4,.88h0a9.41,9.41,0,0,0,5.07-1.49c.89-.57,1.48-.94,2.15-1.33a1.76,1.76,0,0,0,.61-2.4,1.73,1.73,0,0,0-2.37-.62h0c-.7.42-1.34.81-2.23,1.38a5.87,5.87,0,0,1-3.2.94A6.09,6.09,0,0,1,22,62.7h0s-2.18-1-4.05-1.77c0,0,0-.06,0-.11.07-.87.16-1.82.23-2.66.12-1.21.22-2.17.23-2.28a8,8,0,0,1,1.38-3.56A7.36,7.36,0,0,1,22.43,50c1.77-.9,2.6-1.31,4.39-2.11a.63.63,0,0,1,.26-.07.41.41,0,0,1,.41.43.72.72,0,0,1,0,.19h0v0s-1,3.7-1.43,5.91a1.76,1.76,0,0,0,.87,1.9c.86.46,2.05,1.14,3,1.69l1.71,1a9.66,9.66,0,0,0,8.91.49c.94-.42,1.58-.69,2.29-1a1.75,1.75,0,1,0-1.31-3.24c-.75.31-1.44.6-2.4,1a6.22,6.22,0,0,1-5.73-.32s-1.9-1.11-3.58-2a.12.12,0,0,1-.07-.12c.18-.77.38-1.59.57-2.32.27-1.09.5-2,.53-2.08a7.32,7.32,0,0,1,4.72-4.89c1.85-.61,2.72-.88,4.58-1.39a.72.72,0,0,1,.23,0c.34,0,.4.19.4.24a.26.26,0,0,1,0,.14h0s-1.47,3.28-2.23,5.27a1.74,1.74,0,0,0,.65,2.06c.78.54,1.85,1.3,2.72,1.93l1.55,1.11a9.92,9.92,0,0,0,5.88,1.91h0a10.24,10.24,0,0,0,2.75-.37c1.24-.33,2-.51,3-.74a1.75,1.75,0,0,0-.75-3.42c-1.07.24-1.89.45-3.15.79a7.28,7.28,0,0,1-1.84.25A6.6,6.6,0,0,1,45.46,51s-1.63-1.19-3.12-2.25a.09.09,0,0,1-.05-.11c.26-.64.55-1.31.81-1.9.41-1,.74-1.7.8-1.83a7.08,7.08,0,0,1,5.31-3.82c1.91-.32,2.8-.44,4.71-.65h.13a.82.82,0,0,1,.39.09.09.09,0,0,1,0,.11c-.09.12-.34.49-.68,1a.43.43,0,0,0,0,.07c-.65,1-1.58,2.35-2.19,3.38a1.73,1.73,0,0,0-.2,1.35A4.93,4.93,0,0,0,53,48.75a6,6,0,0,0,2.56,1.39l1.45.37a8.64,8.64,0,0,0,2.26.28,10.4,10.4,0,0,0,4.64-1.08,44.19,44.19,0,0,1,5.22-2.3,3.81,3.81,0,0,0,1.46-.95,2.67,2.67,0,0,0,.74-1.81A2.74,2.74,0,0,0,70.6,42.86ZM10.48,3.13,40.34,3,35.62,8.83H5ZM29.23,44.88s-.06,0-.09,0a3.84,3.84,0,0,0-2.06-.59,4.11,4.11,0,0,0-1.7.37c-1.81.81-2.76,1.27-4.54,2.19a11.21,11.21,0,0,0-5.93,8.59v0s0,.35-.09.89L3,56V11.83H34.83V41l-.36.12A10.73,10.73,0,0,0,29.23,44.88Zm13.61-4.51a3.93,3.93,0,0,0-2.47-.85,4.14,4.14,0,0,0-1.15.16l-1.39.38V10.87l4.72-5.82.53,35.22-.13.11S42.88,40.39,42.84,40.37Zm23.64,4.31c-1.43.58-2.52,1.08-4.15,1.9a6.86,6.86,0,0,1-3.07.71,5.37,5.37,0,0,1-1.37-.16c-.6-.15-2.5-.5-2.81-1.31s2-2.22,2.33-2.42a6.44,6.44,0,0,1,2.77-.63,6.89,6.89,0,0,1,2,.31c1.81.62,2.87,1,4.3,1.55C66.51,44.64,66.51,44.67,66.48,44.68Z"/></svg>