<svg id="Слой_1" data-name="Слой 1" xmlns="http://www.w3.org/2000/svg" viewBox="0 0 60 60"><title>Монтажная область 2 копия 7</title><path d="M7.81,38l2,1.51a.09.09,0,0,1,0,.08V49a1.13,1.13,0,0,0,2.25,0V39.59a.12.12,0,0,1,0-.08l2-1.49.06-.05a6.07,6.07,0,0,0,2.35-4.79v-2.5A2.35,2.35,0,0,0,15.75,29l-.1-.08a0,0,0,0,1,0-.07,6.08,6.08,0,0,0,.82-3.05v-2.5a2.35,2.35,0,0,0-.72-1.69l-.1-.08a0,0,0,0,1,0-.07,6,6,0,0,0,.82-3v-2.5a2.34,2.34,0,0,0-.72-1.69,2.27,2.27,0,0,0-1.11-.59.05.05,0,0,1,0-.05,6,6,0,0,0,0-.61,5,5,0,0,0-.46-2.11L12.74,7.79a2.37,2.37,0,0,0-.7-.87A1.92,1.92,0,0,0,11,6.56a1.87,1.87,0,0,0-1.09.36,2.27,2.27,0,0,0-.7.87L7.71,10.86A4.87,4.87,0,0,0,7.25,13a6.08,6.08,0,0,0,0,.61s0,0,0,.05a2.28,2.28,0,0,0-1.1.59,2.3,2.3,0,0,0-.73,1.69v2.5a6.16,6.16,0,0,0,.83,3,.06.06,0,0,1,0,.07l-.09.08a2.32,2.32,0,0,0-.73,1.69v2.5a6.2,6.2,0,0,0,.83,3.05.06.06,0,0,1,0,.07L6.15,29a2.32,2.32,0,0,0-.73,1.69v2.5A6.11,6.11,0,0,0,7.81,38Zm6.41-4.82a3.86,3.86,0,0,1-1.5,3L11,37.54a.06.06,0,0,1-.08,0L9.17,36.22a3.86,3.86,0,0,1-1.5-3v-2.5a.13.13,0,0,1,0-.06l.07,0h0l0,0h0l.57.45c.28.21.63.47,1,.74l.13.1,0,0,.74.57a1.19,1.19,0,0,0,.69.23,1.18,1.18,0,0,0,.52-.13l.16-.1c.89-.68,2.46-1.88,2.46-1.89l0,0,.07,0s0,0,0,.06Zm0-7.39a3.84,3.84,0,0,1-1.45,3l-.09.07L11,30.16s-.05,0-.08,0l-1.29-1-.44-.34h0a3.84,3.84,0,0,1-1.5-3v-2.5a.12.12,0,0,1,0-.05.11.11,0,0,1,.07,0h0s0,0,0,0h0l0,0,1.84,1.4.58.45a1.12,1.12,0,0,0,1,.18,1.22,1.22,0,0,0,.36-.18l2.46-1.88s0,0,0,0a.11.11,0,0,1,.07,0s0,0,0,.05Zm-4.48-14,1.19-2.51a0,0,0,0,1,0,0l1.18,2.51a2.79,2.79,0,0,1,0,2.31s-.51,1.28-1.2,1.28-1.21-1.28-1.21-1.28a2.9,2.9,0,0,1,0-2.31ZM7.67,15.91a.13.13,0,0,1,0-.06.11.11,0,0,1,.07,0h0l0,0,2.46,1.88a1.13,1.13,0,0,0,1.37,0l2.46-1.88,0,0a.11.11,0,0,1,.07,0s0,0,0,.06v2.5a3.83,3.83,0,0,1-1.46,3l-.08.06L11,22.77a0,0,0,0,1-.07,0l-1.17-.89-.57-.44h0a3.84,3.84,0,0,1-1.5-3Z"/><path d="M54.63,18.41v-2.5a2.3,2.3,0,0,0-.73-1.69,2.28,2.28,0,0,0-1.1-.59s0,0,0-.05a6.08,6.08,0,0,0,0-.61,4.87,4.87,0,0,0-.46-2.11L50.89,7.79a2.27,2.27,0,0,0-.7-.87,1.82,1.82,0,0,0-2.17,0,2.18,2.18,0,0,0-.7.87l-1.46,3.07A5,5,0,0,0,45.41,13a6.08,6.08,0,0,0,0,.61.05.05,0,0,1,0,.05,2.19,2.19,0,0,0-1.1.59,2.3,2.3,0,0,0-.73,1.69v2.5a6,6,0,0,0,.82,3,0,0,0,0,1,0,.07l-.09.08a2.32,2.32,0,0,0-.73,1.69v2.5a6.08,6.08,0,0,0,.82,3.05,0,0,0,0,1,0,.07l-.09.08a2.32,2.32,0,0,0-.73,1.69v2.5A6.07,6.07,0,0,0,46,38l2,1.51a.12.12,0,0,1,0,.08V49a1.13,1.13,0,0,0,2.25,0V39.59a.12.12,0,0,1,0-.08L52.22,38l.06-.05a6.07,6.07,0,0,0,2.35-4.79v-2.5A2.32,2.32,0,0,0,53.9,29l-.09-.08a.06.06,0,0,1,0-.07,6.09,6.09,0,0,0,.83-3.05v-2.5a2.32,2.32,0,0,0-.73-1.69l-.09-.08a.06.06,0,0,1,0-.07A6.06,6.06,0,0,0,54.63,18.41ZM47.9,11.82l1.18-2.51s0,0,0,0l1.19,2.51a2.9,2.9,0,0,1,0,2.31s-.51,1.28-1.21,1.28-1.2-1.28-1.2-1.28a2.79,2.79,0,0,1,0-2.31Zm-2.07,4.09c0-.05,0,0,0-.06a.11.11,0,0,1,.07,0h0l0,0,2.46,1.88a1.13,1.13,0,0,0,1.37,0l2.46-1.88,0,0a.11.11,0,0,1,.07,0,.13.13,0,0,1,0,.06v2.5a3.83,3.83,0,0,1-1.46,3l-.08.06-1.7,1.3a.06.06,0,0,1-.08,0l-1.16-.89-.57-.44h0a3.84,3.84,0,0,1-1.5-3Zm6.55,17.27a3.86,3.86,0,0,1-1.5,3l-1.74,1.32a.06.06,0,0,1-.08,0l-1.73-1.32a3.86,3.86,0,0,1-1.5-3v-2.5c0-.05,0,0,0-.06l.06,0h0l0,0h0l.58.45,1,.74.13.1,0,0,.74.57a1.14,1.14,0,0,0,.68.23,1.19,1.19,0,0,0,.53-.13l.16-.1,2.46-1.89,0,0,.07,0a.13.13,0,0,1,0,.06Zm0-7.39a3.82,3.82,0,0,1-1.46,3l-.08.07-1.7,1.3a.06.06,0,0,1-.08,0l-1.29-1-.44-.34h0a3.84,3.84,0,0,1-1.5-3v-2.5s0,0,0-.05a.11.11,0,0,1,.06,0h0s.06,0,.08.05l1.83,1.4.59.45a1.1,1.1,0,0,0,1,.18,1.27,1.27,0,0,0,.37-.18l2.46-1.88s0,0,0,0a.11.11,0,0,1,.07,0,.12.12,0,0,1,0,.05Z"/><path d="M33.24,38l2,1.51a.12.12,0,0,1,0,.08V49a1.13,1.13,0,0,0,2.25,0V39.59a.12.12,0,0,1,0-.08l2-1.49.06-.05a6.07,6.07,0,0,0,2.35-4.79v-2.5A2.32,2.32,0,0,0,41.18,29l-.09-.08a.06.06,0,0,1,0-.07,6,6,0,0,0,.83-3.05v-2.5a2.32,2.32,0,0,0-.73-1.69l-.09-.08a.06.06,0,0,1,0-.07,6,6,0,0,0,.83-3v-2.5a2.3,2.3,0,0,0-.73-1.69,2.24,2.24,0,0,0-1.1-.59s0,0,0-.05a6.08,6.08,0,0,0,0-.61,5,5,0,0,0-.45-2.11L38.17,7.79a2.27,2.27,0,0,0-.7-.87,1.82,1.82,0,0,0-2.17,0,2.27,2.27,0,0,0-.7.87l-1.46,3.07A5,5,0,0,0,32.69,13a6.08,6.08,0,0,0,0,.61s0,0,0,.05a2.28,2.28,0,0,0-1.1.59,2.3,2.3,0,0,0-.73,1.69v2.5a6.06,6.06,0,0,0,.83,3,.06.06,0,0,1,0,.07l-.09.08a2.32,2.32,0,0,0-.73,1.69v2.5a6.09,6.09,0,0,0,.83,3.05.06.06,0,0,1,0,.07l-.09.08a2.32,2.32,0,0,0-.73,1.69v2.5A6.07,6.07,0,0,0,33.24,38Zm6.42-4.82a3.86,3.86,0,0,1-1.5,3l-1.74,1.32a0,0,0,0,1-.07,0l-1.74-1.32a3.86,3.86,0,0,1-1.5-3v-2.5a.13.13,0,0,1,0-.06l.07,0h0l0,0h0l.58.45,1,.74.13.1,0,0,.74.57a1.14,1.14,0,0,0,.69.23,1.18,1.18,0,0,0,.52-.13l.16-.1,2.46-1.89,0,0,.07,0s0,0,0,.06Zm0-7.39a3.82,3.82,0,0,1-1.46,3l-.08.07-1.7,1.3a.06.06,0,0,1-.08,0l-1.29-1-.44-.34h0a3.84,3.84,0,0,1-1.5-3v-2.5a.12.12,0,0,1,0-.05.11.11,0,0,1,.07,0h0s.06,0,.08.05l1.84,1.4.58.45a1.14,1.14,0,0,0,.69.23,1.25,1.25,0,0,0,.32-.05,1.35,1.35,0,0,0,.36-.18l2.46-1.88s0,0,0,0a.11.11,0,0,1,.07,0s0,0,0,.05Zm-4.48-14,1.19-2.51a0,0,0,0,1,0,0l1.19,2.51A2.52,2.52,0,0,1,37.83,13a2.54,2.54,0,0,1-.24,1.16s-.51,1.28-1.2,1.28-1.21-1.28-1.21-1.28A2.54,2.54,0,0,1,34.94,13,2.52,2.52,0,0,1,35.18,11.82Zm-2.07,4.09a.13.13,0,0,1,0-.06.11.11,0,0,1,.07,0h0l0,0,2.46,1.88a1.13,1.13,0,0,0,1.37,0l2.46-1.88,0,0a.11.11,0,0,1,.07,0s0,0,0,.06v2.5a3.83,3.83,0,0,1-1.46,3l-.08.06-1.7,1.3a0,0,0,0,1-.07,0l-1.17-.89-.57-.44h0a3.84,3.84,0,0,1-1.5-3Z"/><path d="M20.52,38l2,1.51a.12.12,0,0,1,0,.08V49a1.13,1.13,0,0,0,2.25,0V39.59a.12.12,0,0,1,0-.08l2-1.49.06-.05a6.07,6.07,0,0,0,2.35-4.79v-2.5A2.35,2.35,0,0,0,28.47,29l-.1-.08a0,0,0,0,1,0-.07,6.08,6.08,0,0,0,.82-3.05v-2.5a2.35,2.35,0,0,0-.72-1.69l-.1-.08a0,0,0,0,1,0-.07,6,6,0,0,0,.82-3v-2.5a2.34,2.34,0,0,0-.72-1.69,2.27,2.27,0,0,0-1.11-.59.05.05,0,0,1,0-.05,6.08,6.08,0,0,0,0-.61,5,5,0,0,0-.45-2.11L25.45,7.79a2.34,2.34,0,0,0-.69-.87,1.92,1.92,0,0,0-1.09-.36,1.87,1.87,0,0,0-1.09.36,2.27,2.27,0,0,0-.7.87l-1.45,3.07A4.87,4.87,0,0,0,20,13a6.08,6.08,0,0,0,0,.61s0,0,0,.05a2.28,2.28,0,0,0-1.1.59,2.3,2.3,0,0,0-.73,1.69v2.5a6.06,6.06,0,0,0,.83,3,.06.06,0,0,1,0,.07l-.09.08a2.32,2.32,0,0,0-.73,1.69v2.5A6.09,6.09,0,0,0,19,28.84a.06.06,0,0,1,0,.07l-.09.08a2.32,2.32,0,0,0-.73,1.69v2.5A6.1,6.1,0,0,0,20.52,38Zm6.42-4.82a3.86,3.86,0,0,1-1.5,3l-1.73,1.32a.06.06,0,0,1-.08,0l-1.74-1.32a3.86,3.86,0,0,1-1.5-3v-2.5a.13.13,0,0,1,0-.06l.07,0h0l0,0h0l.58.45,1,.74.13.1,0,0,.74.57a1.19,1.19,0,0,0,.69.23,1.18,1.18,0,0,0,.52-.13l.16-.1,2.46-1.89,0,0,.07,0s0,0,0,.06Zm0-7.39a3.84,3.84,0,0,1-1.45,3l-.09.07-1.7,1.3a.06.06,0,0,1-.08,0l-1.29-1-.44-.34h0a3.84,3.84,0,0,1-1.5-3v-2.5a.12.12,0,0,1,0-.05.11.11,0,0,1,.07,0h0s.06,0,.08.05l1.84,1.4.58.45a1.19,1.19,0,0,0,.69.23,1.25,1.25,0,0,0,.32-.05,1.22,1.22,0,0,0,.36-.18l2.46-1.88s0,0,0,0a.11.11,0,0,1,.07,0s0,0,0,.05Zm-4.48-14,1.19-2.51s0,0,0,0l1.18,2.51a2.79,2.79,0,0,1,0,2.31s-.51,1.28-1.2,1.28-1.21-1.28-1.21-1.28a2.9,2.9,0,0,1,0-2.31Zm-2.07,4.09a.13.13,0,0,1,0-.06.11.11,0,0,1,.07,0h0l0,0L23,17.72a1.13,1.13,0,0,0,1.37,0l2.46-1.88,0,0a.11.11,0,0,1,.07,0s0,0,0,.06v2.5a3.83,3.83,0,0,1-1.46,3l-.08.06-1.7,1.3a0,0,0,0,1-.07,0l-1.17-.89-.57-.44h0a3.84,3.84,0,0,1-1.5-3Z"/><path d="M53.5,51.19H6.55a1.13,1.13,0,1,0,0,2.25h47a1.13,1.13,0,1,0,0-2.25Z"/></svg>