<svg id="Слой_1" data-name="Слой 1" xmlns="http://www.w3.org/2000/svg" viewBox="0 0 30.98 34.45"><defs><style>.cls-1{fill:#050505;}</style></defs><title>Монтажная область 2</title><path class="cls-1" d="M31,15.82a5.68,5.68,0,0,0-5.18-5.65l-.06-.07a10.25,10.25,0,0,0-20.5.07A5.66,5.66,0,0,0,3.38,21l4.5,11.46a3.11,3.11,0,0,0,2.92,2h9.31a3.12,3.12,0,0,0,2.92-2L27.52,21A5.71,5.71,0,0,0,31,15.82Zm-21.45,16L5.41,21.32H9.56l1.72,11.36H10.8A1.35,1.35,0,0,1,9.53,31.81Zm6.81-10.49h3.21L17.84,32.68h-1.5ZM14.57,32.68h-1.5L11.35,21.32h3.22Zm6.81-.87a1.35,1.35,0,0,1-1.27.87h-.48l1.72-11.36H25.5Zm5.29-12.33s-.06.05-.1.06H4.49a3.9,3.9,0,0,1,1.19-7.62l.39,0a.89.89,0,0,0,1-.79A.65.65,0,0,0,7,11s0-.06,0-.09c0-.2,0-.4,0-.61a8.48,8.48,0,1,1,17,0,1.43,1.43,0,0,0,.35.92.89.89,0,0,0,.77.74h.22a3.9,3.9,0,0,1,1.36,7.56Z"/><path class="cls-1" d="M6.41,13.43,5,14.09a.89.89,0,0,0,.37,1.69,1,1,0,0,0,.37-.08L7.15,15a.89.89,0,0,0-.74-1.61Z"/><path class="cls-1" d="M16.89,7.8a.89.89,0,0,0-1.18.42l-.85,1.84a.88.88,0,0,0,.43,1.17.83.83,0,0,0,.37.08.87.87,0,0,0,.81-.51L17.32,9A.88.88,0,0,0,16.89,7.8Z"/><path class="cls-1" d="M12.14,8.21,10.79,6.78A.89.89,0,0,0,9.5,8l1.36,1.43a.89.89,0,0,0,1.25,0A.88.88,0,0,0,12.14,8.21Z"/><path class="cls-1" d="M18.92,7.09a.9.9,0,0,0,.67.31.84.84,0,0,0,.58-.22.89.89,0,0,0,.09-1.25l-2.2-2.52a.88.88,0,1,0-1.33,1.16Z"/><path class="cls-1" d="M20,13.48l-2,2.3a.89.89,0,0,0,1.35,1.16l2-2.31a.9.9,0,0,0-.1-1.25A.89.89,0,0,0,20,13.48Z"/><path class="cls-1" d="M13.68,13.68a.88.88,0,0,0-1.24.17.89.89,0,0,0,.17,1.24l1.51,1.13a.85.85,0,0,0,.53.18.88.88,0,0,0,.53-1.59Z"/><path class="cls-1" d="M26.22,13.77A.89.89,0,0,0,25.83,15l.66,1.32a.87.87,0,0,0,.79.49.88.88,0,0,0,.79-1.28l-.66-1.32A.89.89,0,0,0,26.22,13.77Z"/></svg>