<svg id="Слой_1" data-name="Слой 1" xmlns="http://www.w3.org/2000/svg" viewBox="0 0 60 60"><title>Монтажная область 2 копия 6</title><path d="M31,33.51c-.82-.68-1.74-1.35-2.63-2L28,31.22c-.8-.58-1.59-1.26-2.38-1.94a28.43,28.43,0,0,0-3-2.38A6.66,6.66,0,0,0,19,25.68c-3.17,0-6.44,1.33-9.75,3.76a7.23,7.23,0,0,0-2.57,3.3A13.34,13.34,0,0,0,6,37.57a12.66,12.66,0,0,0,.72,4.73,7.57,7.57,0,0,0,2.62,3.26c2.4,1.75,5.62,2.51,9.69,2.51a34.47,34.47,0,0,0,5.13-.29,10.68,10.68,0,0,0,4.77-1.72c2.88-2.14,4.81-5.31,4.84-8.49a3.47,3.47,0,0,0-.66-1.9A11.16,11.16,0,0,0,31,33.51Zm0,4.07c0,2-1.41,4.58-3.71,6.24a8,8,0,0,1-3.53,1.23A34.56,34.56,0,0,1,19,45.3c-3.75,0-6.33-.71-8-2A4.54,4.54,0,0,1,9.3,41.26a9.92,9.92,0,0,1-.52-3.69,10.85,10.85,0,0,1,.52-3.84,4.44,4.44,0,0,1,1.63-2.06c3-2.21,5.74-3.23,8.11-3.22a3.94,3.94,0,0,1,2.09.78,26.54,26.54,0,0,1,2.7,2.15c.79.68,1.64,1.41,2.55,2.08l.39.28a37.76,37.76,0,0,1,3.16,2.48,6.56,6.56,0,0,1,.9,1,3.33,3.33,0,0,1,.16.3s0,0,0,.05h0Z"/><path d="M26.58,37.91l-1-.71-.39-.29c-1-.72-1.91-1.51-2.73-2.23-1.19-1-2.81-2.42-3.52-2.42-2.08,0-4.45,1-7,2.85-.53.39-.67.49-.67,2.47,0,1.78.07,1.83.73,2.32,1.44,1.05,3.78,1.58,7,1.58,1.56,0,5.71,0,7.18-1.08.2-.15.39-.3.56-.45A1.42,1.42,0,0,0,26.58,37.91ZM18.09,39a2,2,0,1,1,0-3.91,2,2,0,1,1,0,3.91Z"/><path d="M58.18,13.84a4.8,4.8,0,0,0-2.59-1.77s-.05,0,0-.05a8.08,8.08,0,0,0,.11-1.31,5.58,5.58,0,0,0-1.41-3.9,4.93,4.93,0,0,0-7,0,5.67,5.67,0,0,0-1.41,3.9c0,.18,0,.36,0,.54s0,.49,0,.73a4.19,4.19,0,0,1-.19,1.38.85.85,0,0,1-.42.52,8.81,8.81,0,0,1-3.75.81,9.93,9.93,0,0,1-2-.2,49.2,49.2,0,0,0-9.7-1,31.83,31.83,0,0,0-18,5A32.52,32.52,0,0,0,4.2,25.73l-.4.5a13,13,0,0,0-2.15,3.84A22.08,22.08,0,0,0,.5,37.63a21.11,21.11,0,0,0,1.19,7.5,13.25,13.25,0,0,0,4.65,6.1c3.57,2.61,8,3.44,12.63,3.44a38.45,38.45,0,0,0,6.73-.45,15.67,15.67,0,0,0,4.66-1.54,28.55,28.55,0,0,0,9.9-7.89c3.24-4,6.19-9.5,8.25-17.13a12,12,0,0,1,2.57-4.9s.05-.05.09-.05a2.13,2.13,0,0,1,.95.41,4.29,4.29,0,0,0,2.44.78A4.57,4.57,0,0,0,58.18,22a7,7,0,0,0,0-8.16ZM30.07,49.38a11.45,11.45,0,0,1-4.89,1.92,35.78,35.78,0,0,1-6.21.41c-4.33,0-8-.79-10.87-2.88a10.16,10.16,0,0,1-3.64-4.76,18.09,18.09,0,0,1-1-6.44,19.06,19.06,0,0,1,1-6.54A10,10,0,0,1,8,26.27C11.09,24,14.94,22,18.93,22h0a8.61,8.61,0,0,1,5.09,2.05c1.67,1.23,3.28,2.83,5,4.11a32.22,32.22,0,0,1,5.22,4.33,7.32,7.32,0,0,1,2,5.1A15.06,15.06,0,0,1,30.07,49.38ZM55.83,20.2a1.63,1.63,0,0,1-1.27.73,1.32,1.32,0,0,1-.76-.25,4.88,4.88,0,0,0-2.66-.94,3,3,0,0,0-2.19,1,14.91,14.91,0,0,0-3.3,6.19,44,44,0,0,1-6.8,14.89c-.07.09-.14.08-.12,0a15.87,15.87,0,0,0,.55-4.13,10.32,10.32,0,0,0-2.76-7.06,35,35,0,0,0-5.69-4.76c-1.48-1.07-3.11-2.7-5-4.1A11.58,11.58,0,0,0,19,19.07a18.33,18.33,0,0,0-2.36.18s0,0,0,0a30.23,30.23,0,0,1,13.26-2.81,46,46,0,0,1,9.12,1,12.62,12.62,0,0,0,2.53.25,11.75,11.75,0,0,0,5-1.09,3.85,3.85,0,0,0,1.93-2.14A7.14,7.14,0,0,0,48.82,12c0-.33,0-.65,0-1,0-.1,0-.21,0-.32a2.63,2.63,0,0,1,.61-1.87,1.8,1.8,0,0,1,1.35-.55,1.83,1.83,0,0,1,1.36.55,2.63,2.63,0,0,1,.61,1.87,4.08,4.08,0,0,1-.27,1.49,0,0,0,0,1,0,0h0a1.91,1.91,0,0,0-.14.71,1.94,1.94,0,0,0,.65,1.44,2.06,2.06,0,0,0,1.37.54h.26a1.68,1.68,0,0,1,1.27.74,4.06,4.06,0,0,1,0,4.56Z"/></svg>