<svg id="Слой_1" data-name="Слой 1" xmlns="http://www.w3.org/2000/svg" viewBox="0 0 60 60"><title>Монтажная область 2 копия 5</title><path d="M50.37,32.86a2.24,2.24,0,0,0-.86-.57C48.15,31.76,47.43,31.5,46,31h0a6,6,0,0,0-1.84-.29,5.94,5.94,0,0,0-1.32.15s-.05,0-.05,0a2.2,2.2,0,0,0-.63-.94,2.51,2.51,0,0,0-1.65-.6l-.31,0c-1.15.12-1.76.21-2.91.4a6.44,6.44,0,0,0-3.39,1.65,0,0,0,0,1-.07,0,2.35,2.35,0,0,0-1.47-.5,2.72,2.72,0,0,0-.69.09c-1.12.31-1.71.49-2.83.86a6.52,6.52,0,0,0-3.12,2.24s0,0,0,0a2.27,2.27,0,0,0-1.23-.36,2.44,2.44,0,0,0-1,.23c-1.08.48-1.65.76-2.71,1.3a6.68,6.68,0,0,0-3.53,5.12v0s0,.35-.09.86a.11.11,0,0,1,0,.07,73.56,73.56,0,0,0-6.82,5.47,1,1,0,0,0-.14,1.39c.93,1.28,1.4,1.92,2.34,3.19a1,1,0,0,0,.75.42h.09a1,1,0,0,0,.72-.3c1.28-1.23,2.58-2.39,3.92-3.5a1,1,0,0,0-1.32-1.62,0,0,0,0,1,0,0h0c-1.07.88-2.11,1.8-3.14,2.76h0l-1-1.42s0,0,0-.06c1.45-1.27,2.92-2.47,4.45-3.61,0,0,0,0,0,0v.14a1,1,0,0,0,.65,1l2,.84,1.11.49A5.69,5.69,0,0,0,23,47.1h0a5.62,5.62,0,0,0,3-.89c.53-.34.88-.56,1.28-.79a1,1,0,0,0-1.05-1.8h0l-1.33.82A3.54,3.54,0,0,1,23,45a3.61,3.61,0,0,1-1.52-.34h0s-1.3-.58-2.41-1.05c0,0,0,0,0-.06.05-.52.1-1.09.14-1.59.07-.72.13-1.29.14-1.36a4.76,4.76,0,0,1,.82-2.12,4.48,4.48,0,0,1,1.59-1.39c1-.54,1.55-.78,2.61-1.26a.41.41,0,0,1,.16,0,.24.24,0,0,1,.25.25.52.52,0,0,1,0,.11h0s-.58,2.2-.86,3.52a1,1,0,0,0,.53,1.13l1.79,1,1,.59a5.83,5.83,0,0,0,2.94.8,5.74,5.74,0,0,0,2.37-.51c.56-.25.94-.41,1.37-.58a1,1,0,0,0,.57-1.36,1,1,0,0,0-1.35-.57c-.45.18-.86.35-1.43.61a3.8,3.8,0,0,1-1.53.33,3.72,3.72,0,0,1-1.89-.52S27.07,40,26.07,39.4a.06.06,0,0,1,0-.07c.11-.45.23-.94.33-1.38l.32-1.24A4.35,4.35,0,0,1,29.5,33.8c1.1-.37,1.62-.52,2.73-.83l.13,0c.2,0,.24.12.24.15a.17.17,0,0,1,0,.08h0s-.87,2-1.33,3.14a1,1,0,0,0,.39,1.23l1.62,1.15.92.66a5.91,5.91,0,0,0,3.51,1.14h0a6.06,6.06,0,0,0,1.64-.22c.74-.2,1.18-.31,1.78-.44a1,1,0,1,0-.45-2c-.63.14-1.12.27-1.87.47a4.22,4.22,0,0,1-1.1.15,3.81,3.81,0,0,1-2.28-.74l-1.87-1.34s0,0,0-.06c.15-.38.32-.79.48-1.14.24-.56.44-1,.48-1.09a4.2,4.2,0,0,1,3.16-2.28c1.13-.18,1.67-.26,2.8-.38h.08a.46.46,0,0,1,.24.06,0,0,0,0,1,0,.06l-.41.59,0,0c-.39.57-.94,1.41-1.31,2a1.06,1.06,0,0,0-.11.8,2.88,2.88,0,0,0,1,1.41,3.64,3.64,0,0,0,1.52.83l.87.22a6.09,6.09,0,0,0,1.35.17,6.36,6.36,0,0,0,2.76-.65,25.3,25.3,0,0,1,3.11-1.37,2.2,2.2,0,0,0,.87-.57,1.58,1.58,0,0,0,.44-1.07A1.62,1.62,0,0,0,50.37,32.86Zm-4.93,2.22a4.27,4.27,0,0,1-1.82.42,3,3,0,0,1-.82-.1c-.36-.09-1.49-.3-1.67-.77s1.16-1.33,1.39-1.45a3.78,3.78,0,0,1,1.64-.37,4.16,4.16,0,0,1,1.2.18c1.07.37,1.71.6,2.56.92,0,0,0,0,0,0C47.06,34.29,46.42,34.59,45.44,35.08Z"/><polygon class="hard-line-one" points="9.2 13.48 9.2 41.58 9.91 41.6 18.19 41.84 22.36 35.5 29.96 32.81 29.96 13.48 9.2 13.48" fill="none" stroke-linecap="round" stroke-linejoin="round" stroke-width="3"/><polyline class="hard-line-two" points="9.2 13.48 14.17 8.3 34.23 8.21 29.96 13.48" fill="none" stroke-linecap="round" stroke-linejoin="round" stroke-width="3"/><line class="hard-line-three" x1="34.87" y1="32.8" x2="34.53" y2="8.51" fill="none" stroke-linecap="round" stroke-linejoin="round" stroke-width="3"/></svg>