<svg id="Слой_1" data-name="Слой 1" xmlns="http://www.w3.org/2000/svg" viewBox="0 0 60 60"><title>Монтажная область 2 копия 4</title><path d="M51.17,14.9l-5.65-2.45a.08.08,0,0,1-.05-.08V7.61a1.53,1.53,0,0,0-.92-1.4L30.85.26A1.53,1.53,0,0,0,29.4.39a1.5,1.5,0,0,0-.69,1.28V6.89a.18.18,0,0,1,0,.1l-2.48,3.09a.1.1,0,0,1-.09,0l-9-3.89A1.54,1.54,0,0,0,15,7.61v5.23a.14.14,0,0,1,0,.1L8.25,21.29a1.57,1.57,0,0,0-.34.95h0V52.38a1.53,1.53,0,0,0,.92,1.41l13.71,6a1.58,1.58,0,0,0,.61.12,1.62,1.62,0,0,0,.61-.12l13.7-6a1.53,1.53,0,0,0,.92-1.41V22.85a.15.15,0,0,1,0-.1L40.61,20l3.76-4.67a.08.08,0,0,1,.09,0l4.51,2a.08.08,0,0,1,.06.08v28a.09.09,0,0,1-.06.08l-8.64,3.75a1.53,1.53,0,0,0,.61,2.93,1.46,1.46,0,0,0,.61-.13l9.62-4.17a1.52,1.52,0,0,0,.92-1.4V16.3A1.53,1.53,0,0,0,51.17,14.9ZM18.06,10a0,0,0,0,1,.05,0l10.54,4.57a.09.09,0,0,1,.06.08V17a0,0,0,0,1-.06,0L18.11,12.45a.08.08,0,0,1-.05-.08Zm3.56,45.94s0,.05-.05,0L11,51.4a.08.08,0,0,1,0-.08V24.64a0,0,0,0,1,0,0l10.55,4.57a.09.09,0,0,1,.05.08Zm1.1-29.65a.09.09,0,0,1-.09,0L11.94,21.67a0,0,0,0,1,0-.07l5-6.25a.08.08,0,0,1,.09,0L27.73,20a0,0,0,0,1,0,.07Zm12.6,25a.08.08,0,0,1,0,.08L24.73,56s-.05,0-.05,0V28.8a.2.2,0,0,1,0-.11l5.95-7.4a.1.1,0,0,1,.09,0l4.52,2a.1.1,0,0,1,0,.08Zm2.9-33.21-1.79,2.23a.08.08,0,0,1-.09,0l-4.52-2a.09.09,0,0,1-.05-.08V13.56a1.54,1.54,0,0,0-.92-1.4l-1.73-.75a0,0,0,0,1,0-.07L30.66,9.4a.07.07,0,0,1,.09,0L41.44,14a.05.05,0,0,1,0,.07ZM42.41,11s0,.05,0,0L31.82,6.5a.08.08,0,0,1-.05-.08V4.06s0,0,.05,0L42.36,8.6a.08.08,0,0,1,0,.08Z"/></svg>