<svg id="Слой_1" data-name="Слой 1" xmlns="http://www.w3.org/2000/svg" viewBox="0 0 60 60"><title>Монтажная область 2 копия</title><path d="M51,8.23a1.4,1.4,0,0,0-1-.39,2.23,2.23,0,0,0-.89.2c-1.29.55-2,.85-3.28,1.47h0a6.45,6.45,0,0,0-2.38,2,0,0,0,0,1,0,0,2.07,2.07,0,0,0-.87-.19,2.59,2.59,0,0,0-1.87.87c-.77.84-1.17,1.29-1.9,2.17a6.52,6.52,0,0,0-1.59,4.11s0,.07,0,.11a0,0,0,0,1-.05,0,5.65,5.65,0,0,0-1.22.5l-.11.07s0,0,0,0a2.35,2.35,0,0,0-.7-1.41,1.92,1.92,0,0,0-.22-.18s0-.05,0-.07a6.32,6.32,0,0,0,.93-3.3V11.55A2.27,2.27,0,0,0,35,9.87a2.37,2.37,0,0,0-1.26-.61s0,0,0-.06a5.16,5.16,0,0,0,.05-.79,5.19,5.19,0,0,0-.47-2.18L31.75,3a2.23,2.23,0,0,0-.69-.86,1.78,1.78,0,0,0-2.12,0,2.23,2.23,0,0,0-.69.86L26.7,6.23a5.15,5.15,0,0,0-.47,2.18,6.84,6.84,0,0,0,.05.79s0,.06,0,.06A2.41,2.41,0,0,0,25,9.87a2.28,2.28,0,0,0-.71,1.68v2.67a6.32,6.32,0,0,0,.93,3.3s0,.06,0,.07-.15.11-.22.18a2.35,2.35,0,0,0-.7,1.41s0,0,0,0l-.11-.07a5.45,5.45,0,0,0-1.22-.5s-.05,0-.05,0a.41.41,0,0,0,0-.11,6.52,6.52,0,0,0-1.6-4.12c-.72-.87-1.12-1.32-1.89-2.16a2.59,2.59,0,0,0-1.87-.87,2,2,0,0,0-.86.19,0,0,0,0,1-.06,0,6.45,6.45,0,0,0-2.38-2h0c-1.31-.62-2-.92-3.28-1.47a2.23,2.23,0,0,0-.89-.2,1.41,1.41,0,0,0-1,.39,1.39,1.39,0,0,0-.44,1,2.13,2.13,0,0,0,.31,1.07,26.85,26.85,0,0,1,1.5,2.92A6.61,6.61,0,0,0,12,15.44a.09.09,0,0,1,0,.07,1.93,1.93,0,0,0-.33,1.11,2.39,2.39,0,0,0,.52,1.46c.6.78.86,1.14,1.42,1.94A6.75,6.75,0,0,0,15.72,22h-.33a2.46,2.46,0,0,0-1.62.59,2.35,2.35,0,0,0-.84,1.56,5,5,0,0,1-.19.86c-.15.57-.37,1.26-.56,1.83s-.36,1-.42,1.24A9.32,9.32,0,0,0,11.4,32a2.69,2.69,0,0,0,2,2.27h.06a2.83,2.83,0,0,0,.53.07l.81,0h.26a15.73,15.73,0,0,0,4.94-.88,1.3,1.3,0,0,1,.37-.08h.11l.72.14c.73.15,1.8.38,2.83.65a15.26,15.26,0,0,1,2.48.81,2.05,2.05,0,0,0,.62.22,6.24,6.24,0,0,0,1.22.13,3.39,3.39,0,0,0,.45,0,43.92,43.92,0,0,0,9.77-1.57.66.66,0,0,1,.21,0,1.08,1.08,0,0,1,.38.08,7.63,7.63,0,0,0,2.31.53c.28,0,.57,0,.85,0h.72a2.68,2.68,0,0,0,1.7-.71,3,3,0,0,0,.91-1.54.36.36,0,0,0,0-.1A8.28,8.28,0,0,0,46,30a5.82,5.82,0,0,0-.1-1.09c-.1-.55-.21-1.14-.37-1.73l0-.06-.61-1.77a.3.3,0,0,1,0-.1c-.07-.55-.2-.92-.2-1.09a2.32,2.32,0,0,0-.48-1.27v-.05a2.14,2.14,0,0,0-.11-.67.06.06,0,0,1,0-.07A6.69,6.69,0,0,0,46.38,20c.56-.8.83-1.16,1.42-1.94a2.39,2.39,0,0,0,.52-1.46A2,2,0,0,0,48,15.51a.09.09,0,0,1,0-.07,6.61,6.61,0,0,0,1.62-2.18,26.85,26.85,0,0,1,1.5-2.92,2.13,2.13,0,0,0,.31-1.07A1.39,1.39,0,0,0,51,8.23ZM36.21,21.55a1.88,1.88,0,0,1,.67-.64,2.75,2.75,0,0,1,.59-.25,0,0,0,0,1,.06,0,7.66,7.66,0,0,0,.64,2.07,3.4,3.4,0,0,1-.45,0l.13.14s0,0,0,.05l-2.21.55h-.07s0,0,0-.06A7.17,7.17,0,0,1,36.21,21.55ZM28.55,7.11l1.43-3a0,0,0,0,1,0,0l1.43,3a3,3,0,0,1,.28,1.3,3.07,3.07,0,0,1-.28,1.31s-.81,1.53-1.45,1.53-1.45-1.53-1.45-1.53a3.07,3.07,0,0,1-.28-1.31A3,3,0,0,1,28.55,7.11Zm-2.23,4.44a.23.23,0,0,1,.08-.19.29.29,0,0,1,.19-.08h0a.15.15,0,0,1,.11,0l.07,0c.23.19,2.15,1.65,2.6,2a1,1,0,0,0,1.24,0l1.95-1.5h0l.68-.52a.25.25,0,0,1,.16-.05.29.29,0,0,1,.19.08.23.23,0,0,1,.08.19v2.67A4.27,4.27,0,0,1,32,17.59l-.07.05L30.17,19l-.13.1a.06.06,0,0,1-.08,0l-2-1.5a4.28,4.28,0,0,1-1.67-3.39Zm0,7.89a.24.24,0,0,1,.08-.19.36.36,0,0,1,.19-.08h0a.27.27,0,0,1,.16.06L29,21l.38.29a1.23,1.23,0,0,0,.4.19H30a1,1,0,0,0,.48-.12.42.42,0,0,0,.14-.09l2.63-2a.27.27,0,0,1,.16-.06.29.29,0,0,1,.19.08.24.24,0,0,1,.08.19v2.68a4.38,4.38,0,0,1-.18,1.14c-.29,0-.58-.07-.87-.12l-.11,0A13.12,13.12,0,0,0,30.64,23a11.46,11.46,0,0,0-1.17.06l-3,.29c0-.09-.06-.18-.08-.27v0a4.61,4.61,0,0,1-.1-.91Zm-3.9,1.43c0-.05,0-.15.06-.2s0,0,.05,0a2.75,2.75,0,0,1,.59.25,2,2,0,0,1,.87,1,13.88,13.88,0,0,1,.44,1.53v0l-.62.05h-.16a2.52,2.52,0,0,1-.78-.14L21.56,23A4.36,4.36,0,0,0,22.42,20.87ZM12.24,12.42c-.36-.8-.63-1.36-1-2,0,0,0,0,0,0,.64.28,1.2.54,2,.93a4.48,4.48,0,0,1,2,2.05c.1.24.44,1.16.18,1.43s-1.25-.27-1.49-.41A4.62,4.62,0,0,1,12.24,12.42Zm1.58,4.42,0-.06s0,0,0,0c.52,0,1.76.13,2.54.21a1,1,0,0,0,1.11-.89c.1-.8.19-2,.23-2.57a0,0,0,0,1,0,0,.81.81,0,0,1,.15.13c.76.83,1.11,1.23,1.83,2.09a4.39,4.39,0,0,1,1.11,2.8,3.51,3.51,0,0,1-.07.72s-.41,1.5-.52,1.86c0,0,0,0,0,0l-2-.35a4.44,4.44,0,0,1-2.88-1.9C14.73,18,14.42,17.62,13.82,16.84ZM43.74,31.52l0,.12a1,1,0,0,1-.28.49.77.77,0,0,1-.44.18h-.05s0,0,0,0h0l-.55,0q-.34,0-.69,0A5.62,5.62,0,0,1,40,31.92a3,3,0,0,0-1.16-.23,3,3,0,0,0-.82.12,42.6,42.6,0,0,1-9.32,1.49H28.4a3.79,3.79,0,0,1-.81-.09l-.11,0a11.73,11.73,0,0,0-1.87-.69c-1.06-.31-2.26-.59-3.21-.8l-1.18-.24-.35-.07h0l-.08,0c-.24-.1-.44-.16-.61-.22a5.85,5.85,0,0,1-.94-.4,15.47,15.47,0,0,1-1.79-1.19,1,1,0,0,0-1.23,1.64,0,0,0,0,1,0,0s0,0,0,0c.47.35.87.62,1.21.85,0,0,0,0,0,0a12.36,12.36,0,0,1-2.32.24h-1l-.13,0h-.05a.67.67,0,0,1-.51-.54,7.14,7.14,0,0,1-.06-.93,7,7,0,0,1,.34-2.16l.22-.64c.17-.49.39-1.17.6-1.83A11.51,11.51,0,0,0,15,24.33a.34.34,0,0,1,.13-.23.42.42,0,0,1,.3-.11h0l1.42.17a27.15,27.15,0,0,1,5.37,1.2,4.41,4.41,0,0,0,1.42.24H24c2-.17,3.91-.33,5.71-.52a7.46,7.46,0,0,1,.95-.05,9.92,9.92,0,0,1,1.43.1s0,0,0,0c-.7.45-1.55,1.07-2.68,2a1,1,0,0,0,1.27,1.6,22.7,22.7,0,0,1,3.48-2.41c.67-.34,1.11-.45,1.83-.75L42.2,24h.09a.41.41,0,0,1,.24.1.24.24,0,0,1,.1.18c.06.64.22,1,.22,1.28a.93.93,0,0,0,0,.29l.66,1.9c.13.48.23,1,.32,1.52a3.39,3.39,0,0,1,.06.72A6,6,0,0,1,43.74,31.52Zm2.44-14.68c-.6.78-.91,1.2-1.48,2a4.44,4.44,0,0,1-2.88,1.9l-2,.34s0,0-.06,0c-.08-.29-.17-.59-.24-.86s-.16-.57-.21-.75-.06-.22-.07-.25a3.51,3.51,0,0,1-.07-.72,4.39,4.39,0,0,1,1.11-2.8c.72-.86,1.07-1.26,1.84-2.09a.79.79,0,0,1,.14-.13s.05,0,.05,0c0,.28.17,2.09.23,2.58a1,1,0,0,0,1.11.89c.78-.08,2-.17,2.54-.21,0,0,0,0,0,0A.21.21,0,0,1,46.18,16.84Zm1.58-4.42a4.62,4.62,0,0,1-1.81,2c-.24.14-1.25.57-1.48.41s.07-1.19.17-1.43a4.45,4.45,0,0,1,2-2.05h0c.82-.39,1.38-.64,2-.92,0,0,0,0,0,0C48.39,11.06,48.12,11.62,47.76,12.42Z"/><path d="M44.05,38.6c-.14-.77-.3-1.55-.44-2.31a1.09,1.09,0,0,0-1.28-.88,1.11,1.11,0,0,0-.87,1.28c.14.78.3,1.55.43,2.3.67,3.71.87,7.74,1.63,11.63a3.17,3.17,0,0,1,0,.53A11.71,11.71,0,0,1,43,53.74a1.68,1.68,0,0,1-.41.81,2.66,2.66,0,0,1-1.26.71,8.5,8.5,0,0,1-1.87.29c-2.52.15-5.1.35-7.6.44-1.6,0-3.2.08-4.8.08-3.59,0-7.18-.14-10.74-.43a2,2,0,0,1-1.15-.4,1.73,1.73,0,0,1-.55-.79c-.57-1.55-.42-3.65-.58-5.74,0-.33,0-.65,0-1,0-1.66.31-3.47.43-5.35a44.44,44.44,0,0,1,.93-5.9,1.11,1.11,0,0,0-.87-1.29,1.1,1.1,0,0,0-1.28.86h0a49.16,49.16,0,0,0-1,6.18c-.1,1.71-.43,3.56-.43,5.48a11.77,11.77,0,0,0,0,1.18c.17,1.82-.06,4.09.7,6.28A3.9,3.9,0,0,0,13.83,57a4.25,4.25,0,0,0,2.31.85c3.62.3,7.28.44,10.92.44,1.63,0,3.25,0,4.87-.08,2.57-.09,5.16-.29,7.66-.44a8.86,8.86,0,0,0,3.16-.68,4.45,4.45,0,0,0,1.47-1,4,4,0,0,0,.91-1.77,12.41,12.41,0,0,0,.63-3.1,5.26,5.26,0,0,0-.09-.95C44.94,46.52,44.74,42.5,44.05,38.6Z"/><path d="M29.74,39.29a1,1,0,0,0-1.07,1h0c0,.37,0,.76-.05,1.15a0,0,0,0,1,0,0l-.71.22A1,1,0,0,0,27.22,43a1,1,0,0,0,1,.71,1.25,1.25,0,0,0,.32,0,34.74,34.74,0,0,1,4.38-1.13s0,0,0,0,0,.22,0,.33v0c.1,1,.17,2,.24,3,0,0,0,0,0,0q-1.21.2-2.34.33a0,0,0,0,1,0-.05c0-.23,0-.47-.05-.7a1,1,0,0,0-2,.13q0,.41.06.78s0,.06,0,.06l-.42,0a1,1,0,0,0,.1,2h.11l.45,0s0,0,0,0c.12.79.24,1.56.38,2.29,0,0,0,0,0,0h-.06a1,1,0,0,0-1.08.95,1,1,0,0,0,1,1.09l.63,0a0,0,0,0,1,.05,0c.06.24.12.47.17.69a1,1,0,0,0,1,.8.91.91,0,0,0,.23,0A1,1,0,0,0,32,53.24L31.92,53s0,0,0,0c.56,0,1.14-.07,1.72-.14a0,0,0,0,1,0,0c0,.17,0,.34,0,.51a1,1,0,0,0,1,.92h.1a1,1,0,0,0,.91-1.12c0-.2,0-.41,0-.62a0,0,0,0,1,0,0c.62-.11,1.22-.24,1.81-.39a0,0,0,0,1,0,0v.27a1,1,0,0,0,1,1h0a1,1,0,0,0,1-1c0-.29,0-.58,0-.88,0,0,0,0,.05,0l.76-.24A1,1,0,0,0,41.12,50a1,1,0,0,0-1.28-.66,0,0,0,0,1,0,0s0,0,0,0l-.12,0s0,0,0,0q0-1.2-.06-2.52a.07.07,0,0,1,0,0l.63-.12a1,1,0,1,0-.34-2c-.92.16-1.84.39-2.76.56h0l-1.9.38a0,0,0,0,1,0,0c-.06-.94-.13-1.88-.22-2.81,0-.17,0-.34,0-.5s0,0,0,0c.7-.1,1.37-.18,2-.24h.15s0,0,0,0c0,.37.08.74.11,1.11a1,1,0,0,0,1,.93h.09a1,1,0,0,0,.93-1.11c0-.37-.07-.73-.11-1.1a0,0,0,0,1,0,0l.49,0a1,1,0,1,0-.18-2h0l-.55,0a.05.05,0,0,1-.05,0c0-.33-.08-.65-.13-1a1,1,0,0,0-2,.3c0,.26.07.54.11.81,0,0,0,.06,0,.06h-.1c-.65.05-1.31.14-2,.23,0,0,0,0,0,0,0-.29,0-.58-.07-.87a1,1,0,0,0-2,.18l.09,1a0,0,0,0,1,0,0c-.7.13-1.37.28-2,.44a0,0,0,0,1,0,0c0-.17,0-.34,0-.5A1,1,0,0,0,29.74,39.29Zm5.65,8.33,2.13-.42a0,0,0,0,1,0,0c0,.94,0,1.84,0,2.69,0,0,0,0,0,0-.65.17-1.32.32-2,.46,0,0,0,0,0,0s0-.07,0-.11q-.09-1.24-.18-2.61A0,0,0,0,1,35.39,47.62Zm-2.06.4c.06.85.12,1.66.17,2.42v0l0,.26a.05.05,0,0,1,0,0q-1,.12-2,.15a0,0,0,0,1,0,0l-.06-.28h0c-.13-.7-.26-1.45-.37-2.24,0,0,0,0,0,0,.71-.09,1.46-.19,2.24-.31C33.31,48,33.33,48,33.33,48Z"/></svg>