<svg id="Слой_1" data-name="Слой 1" xmlns="http://www.w3.org/2000/svg" viewBox="0 0 32.07 28.11"><defs><style>.cls-1{fill:#050505;}</style></defs><title>Монтажная область 3</title><path class="cls-1" d="M10.11,20.88h18.1a.87.87,0,0,0,.28-.05l.08,0,.16-.1.07-.08a.67.67,0,0,0,.09-.14l.05-.1,0-.06L32,8.75a.78.78,0,0,0-.75-1H28.61v-7A.78.78,0,0,0,27.83,0H18.32a.79.79,0,0,0-.79.78v2H12.75a.79.79,0,0,0-.78.79V7.63H9.75L8.88.88A.79.79,0,0,0,8.1.2H.78a.79.79,0,0,0,0,1.57H7.41L9.7,19.36a2.46,2.46,0,0,0,.41,4.89h.79a2.58,2.58,0,0,0-.26,1.14,2.72,2.72,0,1,0,5.43,0,2.59,2.59,0,0,0-.27-1.14h8a2.71,2.71,0,1,0,2.46-1.57H10.11a.9.9,0,0,1,0-1.8Zm9-19.31H27V7.62H19.1v-6ZM13.54,4.3h4V7.62h-4Zm16.72,5-2.66,10H11.28L10,9.19ZM14.5,25.39a1.15,1.15,0,1,1-1.15-1.14A1.15,1.15,0,0,1,14.5,25.39Zm12.92,0a1.15,1.15,0,1,1-1.14-1.14A1.14,1.14,0,0,1,27.42,25.39Z"/><path class="cls-1" d="M14.85,17.85h.08a.78.78,0,0,0,.7-.85l-.52-5.16a.78.78,0,0,0-1.56.16l.52,5.15A.78.78,0,0,0,14.85,17.85Z"/><path class="cls-1" d="M20.12,17.68a.78.78,0,0,0,.78-.78V11.75a.79.79,0,1,0-1.57,0V16.9A.78.78,0,0,0,20.12,17.68Z"/><path class="cls-1" d="M25.29,17.68h.09a.77.77,0,0,0,.78-.69l.59-5.16a.79.79,0,0,0-.7-.86.78.78,0,0,0-.86.69l-.59,5.15A.79.79,0,0,0,25.29,17.68Z"/></svg>