<svg id="Слой_1" data-name="Слой 1" xmlns="http://www.w3.org/2000/svg" viewBox="0 0 60 60"><title>Монтажная область 2 копия 2</title><path d="M48.73,32c-.17-.94-.36-1.89-.54-2.81a1.33,1.33,0,1,0-2.61.49c.17.94.36,1.88.52,2.79.81,4.52,1.06,9.42,2,14.16a3.36,3.36,0,0,1,.06.63,14.73,14.73,0,0,1-.68,3.16,2.21,2.21,0,0,1-.5,1,3.24,3.24,0,0,1-1.55.87,9.47,9.47,0,0,1-2.27.35c-3.07.19-6.2.43-9.25.54-1.94.06-3.88.1-5.83.1-4.37,0-8.74-.17-13.07-.53a2.6,2.6,0,0,1-1.4-.48,2,2,0,0,1-.66-1c-.7-1.89-.52-4.44-.72-7,0-.4-.05-.8-.05-1.2,0-2,.39-4.23.52-6.51a58.66,58.66,0,0,1,1.13-7.19,1.32,1.32,0,0,0-1.05-1.56,1.34,1.34,0,0,0-1.56,1v0h0A57,57,0,0,0,10,36.47c-.12,2.07-.53,4.32-.53,6.67,0,.47,0,1,.06,1.43.21,2.21-.07,5,.86,7.65A4.66,4.66,0,0,0,12,54.39a5.06,5.06,0,0,0,2.81,1c4.41.37,8.85.54,13.29.54,2,0,3.95,0,5.92-.1,3.12-.11,6.28-.35,9.32-.54a10.86,10.86,0,0,0,3.85-.81,5.59,5.59,0,0,0,1.78-1.28,4.81,4.81,0,0,0,1.12-2.15,16.1,16.1,0,0,0,.76-3.78,6.46,6.46,0,0,0-.11-1.14C49.81,41.67,49.57,36.79,48.73,32Z"/><path d="M11.5,26.74h.06a4.25,4.25,0,0,0,.65.09l1,0h.31a18.82,18.82,0,0,0,6-1.07A1.8,1.8,0,0,1,20,25.7h.13l.88.17c.88.18,2.19.46,3.44.79a18.41,18.41,0,0,1,3,1,3,3,0,0,0,.77.27,7.21,7.21,0,0,0,1.48.16l.55,0a53.46,53.46,0,0,0,11.88-1.91,1.09,1.09,0,0,1,.26,0,1.25,1.25,0,0,1,.46.09,9.12,9.12,0,0,0,2.81.64c.34,0,.69,0,1,0s.53,0,.78,0h.09A3.35,3.35,0,0,0,49.63,26a3.6,3.6,0,0,0,1.1-1.88l0-.12a10.29,10.29,0,0,0,.33-2.46A7.37,7.37,0,0,0,51,20.23c-.12-.68-.26-1.39-.46-2.11l0-.07-.74-2.16a.45.45,0,0,1,0-.11c-.07-.68-.24-1.13-.24-1.33a2.85,2.85,0,0,0-1-2,3,3,0,0,0-2-.72l-.36,0-.16,0-2.18.54s-.05,0-.06,0A1.45,1.45,0,0,0,43.6,12,22.71,22.71,0,0,0,36.86,6.2a15.08,15.08,0,0,0-7-2.16A15.16,15.16,0,0,0,22.78,6.2,22.64,22.64,0,0,0,16.08,12,.09.09,0,0,1,16,12h0L14.2,11.8a2.06,2.06,0,0,0-.35,0,3.11,3.11,0,0,0-2,.71,2.9,2.9,0,0,0-1,1.9,9.32,9.32,0,0,1-.23,1.06c-.19.69-.46,1.52-.69,2.22s-.44,1.26-.51,1.5a11.06,11.06,0,0,0-.53,3.37A13.22,13.22,0,0,0,9,24,3.33,3.33,0,0,0,11.5,26.74Zm7.43-14.3A20.27,20.27,0,0,1,24,8.37a12.64,12.64,0,0,1,5.84-1.84,12.61,12.61,0,0,1,5.8,1.84A20.37,20.37,0,0,1,41.18,13s0,.06,0,.06l-2.69.67h-.1c-1.18-.15-2.33-.29-3.55-.48l-.13,0A14.54,14.54,0,0,0,32.41,13,13.52,13.52,0,0,0,31,13.1c-2.14.23-4.46.42-6.89.63h-.19a3.14,3.14,0,0,1-1-.17,35.63,35.63,0,0,0-4-1.08S18.91,12.46,18.93,12.44Zm-7.12,7.47c0-.08.13-.39.27-.78.2-.6.48-1.43.73-2.23a15,15,0,0,0,.53-2.23.43.43,0,0,1,.15-.28.6.6,0,0,1,.36-.13h.07l1.73.21a31.45,31.45,0,0,1,6.53,1.45,5.65,5.65,0,0,0,1.73.3l.4,0c2.43-.21,4.76-.4,7-.64a10.93,10.93,0,0,1,1.15-.06,12.74,12.74,0,0,1,1.74.13s0,0,0,0c-.85.54-1.89,1.3-3.26,2.38a1.26,1.26,0,0,0-.2,1.75,1.24,1.24,0,0,0,1.75.2,27.14,27.14,0,0,1,4.23-2.93c.81-.42,1.35-.55,2.22-.92l7.58-1.89h.11a.51.51,0,0,1,.29.12.31.31,0,0,1,.12.23c.07.78.27,1.26.26,1.55a1.36,1.36,0,0,0,.07.35l.8,2.32c.16.57.28,1.2.4,1.85a4.94,4.94,0,0,1,.07.87,8.53,8.53,0,0,1-.25,1.88.74.74,0,0,0,0,.14,1.09,1.09,0,0,1-.34.59.85.85,0,0,1-.53.23h-.06s0,0,0,0h0l-.67,0a7.94,7.94,0,0,1-.85,0,6.44,6.44,0,0,1-2.05-.46,3.73,3.73,0,0,0-1.41-.28,3.52,3.52,0,0,0-1,.15A51.35,51.35,0,0,1,30,25.59h-.35a5.63,5.63,0,0,1-1-.1l-.13-.06a15.11,15.11,0,0,0-2.28-.84c-1.29-.38-2.75-.72-3.9-1L21,23.34l-.43-.08h-.05l-.1,0c-.28-.12-.53-.2-.74-.27a6.51,6.51,0,0,1-1.14-.49A18.12,18.12,0,0,1,16.31,21a1.24,1.24,0,0,0-1.49,2h0c.57.42,1.05.75,1.46,1,0,0,0,0,0,0a16.26,16.26,0,0,1-2.82.29H13.2l-.89,0-.16,0H12.1a.83.83,0,0,1-.63-.67,10.2,10.2,0,0,1-.07-1.12A8.67,8.67,0,0,1,11.81,19.91Z"/><path d="M42.1,50.06h0a1.24,1.24,0,0,0,1.24-1.22c0-.35,0-.7,0-1.06,0,0,0-.05.06-.06l.93-.29a1.24,1.24,0,0,0-.76-2.37h0l-.14,0a0,0,0,0,1,0,0c0-1,0-2-.07-3.07,0,0,0-.05,0-.06l.76-.15a1.23,1.23,0,0,0,1-1.43,1.24,1.24,0,0,0-1.43-1c-1.13.19-2.24.48-3.36.69h0L38,40.52s0,0-.05-.05c-.07-1.14-.16-2.29-.27-3.41,0-.21,0-.42,0-.62a.05.05,0,0,1,0,0c.84-.11,1.66-.22,2.45-.28h.18s.05,0,.05,0c0,.44.1.89.14,1.35a1.24,1.24,0,0,0,1.24,1.12h.11A1.23,1.23,0,0,0,43,37.25c0-.45-.08-.9-.13-1.34a0,0,0,0,1,0,0l.59,0a1.24,1.24,0,0,0-.21-2.48h0l-.68.06a.07.07,0,0,1-.05,0c0-.39-.11-.78-.16-1.16a1.24,1.24,0,1,0-2.46.36c0,.32.09.66.14,1,0,0,0,.07,0,.07h-.12c-.8.07-1.6.17-2.4.28,0,0,0,0,0,0l-.09-1.06a1.24,1.24,0,0,0-2.48.22c0,.39.07.8.1,1.21a.07.07,0,0,1,0,0c-.85.15-1.67.33-2.47.52,0,0,0,0,0,0,0-.21,0-.41,0-.61A1.24,1.24,0,0,0,30,34v0h0c0,.46,0,.93-.05,1.4a.09.09,0,0,1-.06.07L29,35.8a1.25,1.25,0,0,0,.39,2.43,1.32,1.32,0,0,0,.39-.06,44,44,0,0,1,5.32-1.38,0,0,0,0,1,0,.05l0,.4v0c.12,1.17.21,2.4.29,3.63,0,0,0,.06,0,.06-1,.16-1.94.29-2.85.4,0,0,0,0,0,0l-.06-.86a1.24,1.24,0,0,0-2.48.16c0,.32,0,.64.07,1,0,0,0,.07,0,.07l-.51,0a1.24,1.24,0,0,0,.12,2.48h.12l.55,0s0,0,0,0c.14,1,.29,1.9.46,2.79,0,0,0,0-.06,0h-.06a1.24,1.24,0,0,0-.16,2.48l.77,0a.07.07,0,0,1,.07.06c.07.29.14.57.2.84a1.24,1.24,0,0,0,1.21,1l.27,0A1.25,1.25,0,0,0,34,49.85c0-.11,0-.21-.07-.32s0-.05.05-.05c.68,0,1.38-.09,2.09-.17,0,0,0,0,0,0l.06.62a1.24,1.24,0,0,0,1.23,1.12h.13a1.24,1.24,0,0,0,1.11-1.36c0-.25,0-.5-.07-.75,0,0,0-.06,0-.06.75-.14,1.49-.3,2.21-.48,0,0,0,0,0,0s0,.22,0,.32A1.25,1.25,0,0,0,42.1,50.06Zm-6.21-3.23c-.84.1-1.66.16-2.45.19,0,0,0,0,0-.05l-.06-.34v0c-.16-.85-.31-1.76-.45-2.72,0,0,0,0,0,0,.87-.1,1.78-.22,2.73-.38a.05.05,0,0,1,0,0c.07,1,.14,2,.2,2.94v0c0,.11,0,.21,0,.31A0,0,0,0,1,35.89,46.83Zm5-1c-.8.21-1.61.39-2.44.56a0,0,0,0,1,0,0s0-.08,0-.13c-.07-1-.14-2.07-.22-3.18a.06.06,0,0,1,0-.06c.89-.16,1.75-.34,2.59-.51,0,0,.07,0,.07,0,0,1.14.06,2.23.06,3.28A0,0,0,0,1,40.87,45.86Z"/></svg>