<svg width="20" height="30" viewBox="0 0 20 30" fill="none" xmlns="http://www.w3.org/2000/svg">
<path d="M0.901221 16.1014C0.13497 17.6076 1.00497 18.3276 2.98997 19.5576C4.67747 20.6001 7.00872 20.9814 8.50622 21.1339C7.89247 21.7239 10.705 19.0189 2.60497 26.8101C0.88747 28.4563 3.65247 31.0976 5.36872 29.4863L10.015 25.0051C11.7937 26.7163 13.4987 28.3563 14.6612 29.4926C16.3787 31.1101 19.1425 28.4913 17.4437 26.8163C17.3162 26.6951 11.1475 20.7776 11.5237 21.1401C13.04 20.9876 15.3362 20.5839 17.0037 19.5639L17.0025 19.5626C18.9875 18.3264 19.8575 17.6076 19.1025 16.1014C18.6462 15.2464 17.4162 14.5314 15.7787 15.7676C15.7787 15.7676 13.5675 17.4614 10.0012 17.4614C6.43372 17.4614 4.22372 15.7676 4.22372 15.7676C2.58747 14.5251 1.35247 15.2464 0.901221 16.1014Z" fill="#DE1B1B"/>
<path d="M9.99885 15.1775C14.3463 15.1775 17.8963 11.78 17.8963 7.5975C17.8963 3.3975 14.3463 0 9.99885 0C5.6501 0 2.1001 3.3975 2.1001 7.5975C2.1001 11.78 5.6501 15.1775 9.99885 15.1775ZM9.99885 3.84875C12.1351 3.84875 13.8776 5.525 13.8776 7.5975C13.8776 9.6525 12.1351 11.3288 9.99885 11.3288C7.8626 11.3288 6.1201 9.6525 6.1201 7.5975C6.11885 5.52375 7.86135 3.84875 9.99885 3.84875Z" fill="#DE1B1B"/>
</svg>
