<svg width="24" height="32" viewBox="0 0 24 32" fill="none" xmlns="http://www.w3.org/2000/svg">
<path d="M2.85724 32.0002H22.2859C23.2325 32.0002 24 31.2327 24 30.2858V1.7144C24 0.767477 23.2325 0 22.2859 0H2.85724C1.27991 0.00183108 0.00183107 1.27991 0 2.85724V29.1429C0.00183107 30.7203 1.27991 31.9983 2.85724 32.0002ZM22.8572 1.7144V30.2858C22.8572 30.6015 22.6013 30.8573 22.2859 30.8573H5.71422V29.1429H6.28578C6.60124 29.1429 6.85707 28.8871 6.85707 28.5716C6.85707 28.2559 6.60124 28.0001 6.28578 28.0001H5.71422V26.8572H6.28578C6.60124 26.8572 6.85707 26.6014 6.85707 26.286C6.85707 25.9702 6.60124 25.7144 6.28578 25.7144H5.71422V24.5716H6.28578C6.60124 24.5716 6.85707 24.3157 6.85707 24.0003C6.85707 23.6845 6.60124 23.4287 6.28578 23.4287H5.71422V22.2859H6.28578C6.60124 22.2859 6.85707 22.03 6.85707 21.7143C6.85707 21.3988 6.60124 21.143 6.28578 21.143H5.71422V20.0002H6.28578C6.60124 20.0002 6.85707 19.7444 6.85707 19.4286C6.85707 19.1132 6.60124 18.8573 6.28578 18.8573H5.71422V17.7145H6.28578C6.60124 17.7145 6.85707 17.4587 6.85707 17.1429C6.85707 16.8275 6.60124 16.5716 6.28578 16.5716H5.71422V15.4288H6.28578C6.60124 15.4288 6.85707 15.1727 6.85707 14.8572C6.85707 14.5418 6.60124 14.2857 6.28578 14.2857H5.71422V13.1428H6.28578C6.60124 13.1428 6.85707 12.887 6.85707 12.5716C6.85707 12.2558 6.60124 12 6.28578 12H5.71422V10.8572H6.28578C6.60124 10.8572 6.85707 10.6013 6.85707 10.2859C6.85707 9.97014 6.60124 9.71431 6.28578 9.71431H5.71422V8.57147H6.28578C6.60124 8.57147 6.85707 8.31564 6.85707 8.00017C6.85707 7.68445 6.60124 7.42862 6.28578 7.42862H5.71422V6.28578H6.28578C6.60124 6.28578 6.85707 6.02995 6.85707 5.71422C6.85707 5.39876 6.60124 5.14293 6.28578 5.14293H5.71422V4.00009H6.28578C6.60124 4.00009 6.85707 3.74426 6.85707 3.42853C6.85707 3.11307 6.60124 2.85724 6.28578 2.85724H5.71422V1.14284H22.2859C22.6013 1.14284 22.8572 1.39867 22.8572 1.7144ZM1.14284 2.85724C1.14284 1.91032 1.91032 1.14284 2.85724 1.14284H4.57138V2.85724H4.00009C3.68436 2.85724 3.42853 3.11307 3.42853 3.42853C3.42853 3.74426 3.68436 4.00009 4.00009 4.00009H4.57138V5.14293H4.00009C3.68436 5.14293 3.42853 5.39876 3.42853 5.71422C3.42853 6.02995 3.68436 6.28578 4.00009 6.28578H4.57138V7.42862H4.00009C3.68436 7.42862 3.42853 7.68445 3.42853 8.00017C3.42853 8.31564 3.68436 8.57147 4.00009 8.57147H4.57138V9.71431H4.00009C3.68436 9.71431 3.42853 9.97014 3.42853 10.2859C3.42853 10.6013 3.68436 10.8572 4.00009 10.8572H4.57138V12H4.00009C3.68436 12 3.42853 12.2558 3.42853 12.5716C3.42853 12.887 3.68436 13.1428 4.00009 13.1428H4.57138V14.2857H4.00009C3.68436 14.2857 3.42853 14.5418 3.42853 14.8572C3.42853 15.1727 3.68436 15.4288 4.00009 15.4288H4.57138V16.5716H4.00009C3.68436 16.5716 3.42853 16.8275 3.42853 17.1429C3.42853 17.4587 3.68436 17.7145 4.00009 17.7145H4.57138V18.8573H4.00009C3.68436 18.8573 3.42853 19.1132 3.42853 19.4286C3.42853 19.7444 3.68436 20.0002 4.00009 20.0002H4.57138V21.143H4.00009C3.68436 21.143 3.42853 21.3988 3.42853 21.7143C3.42853 22.03 3.68436 22.2859 4.00009 22.2859H4.57138V23.4287H4.00009C3.68436 23.4287 3.42853 23.6845 3.42853 24.0003C3.42853 24.3157 3.68436 24.5716 4.00009 24.5716H4.57138V25.7144H4.00009C3.68436 25.7144 3.42853 25.9702 3.42853 26.286C3.42853 26.6014 3.68436 26.8572 4.00009 26.8572H4.57138V28.0001H4.00009C3.68436 28.0001 3.42853 28.2559 3.42853 28.5716C3.42853 28.8871 3.68436 29.1429 4.00009 29.1429H4.57138V30.8573H2.85724C1.91032 30.8573 1.14284 30.0899 1.14284 29.1429V2.85724Z" fill="black"/>
<path d="M10.3463 13.0931L10.5749 14.9281L10.8605 17.2138C10.8964 17.5002 11.1399 17.715 11.4287 17.7145H18.2858C18.574 17.7142 18.817 17.4997 18.8526 17.2138L19.1382 14.9281L19.3669 13.0931C20.7229 12.8491 21.7109 11.6712 21.7148 10.2934C21.7187 8.91542 20.7375 7.73177 19.3828 7.48012C19.6319 5.71106 18.8275 3.95925 17.3237 2.99506C15.8198 2.03062 13.8923 2.03062 12.3884 2.99506C10.8846 3.95925 10.0803 5.71106 10.3293 7.48012C8.9735 7.73046 7.99075 8.91463 7.99467 10.2934C7.99859 11.672 8.98815 12.8506 10.3452 13.0931H10.3463ZM14.8572 16.5716H11.9333L11.7902 15.4288H17.924L17.7812 16.5716H14.8572ZM9.64524 9.07315C9.96594 8.75088 10.4023 8.57013 10.8571 8.57144H10.9223L10.9796 8.57484C11.4099 8.60675 11.8124 8.7998 12.107 9.11553C12.3243 9.33656 12.6783 9.34389 12.9048 9.13227C13.1313 8.92039 13.1473 8.56647 12.9412 8.33497C12.5524 7.92063 12.0489 7.63236 11.4949 7.50681C11.4525 7.29283 11.4303 7.07546 11.4287 6.8573C11.4287 4.96372 12.9636 3.4285 14.8572 3.4285C16.7508 3.4285 18.2858 4.96372 18.2858 6.8573C18.2834 7.07572 18.2604 7.29362 18.2172 7.50811C17.6632 7.63315 17.1594 7.92141 16.7709 8.33549C16.6255 8.48355 16.5716 8.69857 16.6302 8.89763C16.6891 9.09669 16.851 9.24841 17.0535 9.29366C17.2559 9.33892 17.4673 9.27117 17.6051 9.11605C17.8997 8.80032 18.3022 8.60728 18.7325 8.57536L18.7898 8.57196H18.8573C19.4697 8.57196 20.0355 8.89868 20.3418 9.42916C20.6481 9.95965 20.6481 10.6131 20.3418 11.1436C20.0355 11.6738 19.4697 12.0008 18.8573 12.0008C18.833 12.0039 18.8089 12.0086 18.7851 12.0149C18.7446 12.0188 18.7045 12.0269 18.6658 12.0395C18.6352 12.0518 18.6057 12.0667 18.5777 12.0839C18.5434 12.1023 18.511 12.1242 18.4812 12.1491C18.4563 12.1731 18.4336 12.199 18.4131 12.227C18.3598 12.3123 18.3185 12.4046 18.2905 12.5012L18.0668 14.2857H11.6474L11.424 12.5006C11.4174 12.4758 11.4093 12.4517 11.3994 12.4282C11.3861 12.3552 11.3534 12.2872 11.3047 12.2315C11.2825 12.2006 11.2576 12.1721 11.2296 12.1465C11.2022 12.1237 11.1723 12.1036 11.1412 12.0863C11.0784 12.0442 11.0055 12.0193 10.9299 12.0149C10.9061 12.0083 10.8817 12.0034 10.8571 12C10.1637 12.0002 9.53852 11.5825 9.27301 10.9416C9.00777 10.301 9.15452 9.56335 9.64524 9.07315Z" fill="black"/>
<path d="M9.14303 21.7141H10.2859C10.6013 21.7141 10.8572 21.4583 10.8572 21.1428C10.8572 20.8271 10.6013 20.5713 10.2859 20.5713H9.14303C8.8273 20.5713 8.57147 20.8271 8.57147 21.1428C8.57147 21.4583 8.8273 21.7141 9.14303 21.7141Z" fill="black"/>
<path d="M20.5715 20.5713H12.5716C12.2559 20.5713 12 20.8271 12 21.1428C12 21.4583 12.2559 21.7141 12.5716 21.7141H20.5715C20.8872 21.7141 21.143 21.4583 21.143 21.1428C21.143 20.8271 20.8872 20.5713 20.5715 20.5713Z" fill="black"/>
<path d="M10.2859 25.1431H9.14303C8.8273 25.1431 8.57147 25.3989 8.57147 25.7144C8.57147 26.0301 8.8273 26.2859 9.14303 26.2859H10.2859C10.6013 26.2859 10.8572 26.0301 10.8572 25.7144C10.8572 25.3989 10.6013 25.1431 10.2859 25.1431Z" fill="black"/>
<path d="M20.5715 25.1431H12.5716C12.2559 25.1431 12 25.3989 12 25.7144C12 26.0301 12.2559 26.2859 12.5716 26.2859H20.5715C20.8872 26.2859 21.143 26.0301 21.143 25.7144C21.143 25.3989 20.8872 25.1431 20.5715 25.1431Z" fill="black"/>
<path d="M9.14303 24.0002H14.8572C15.1727 24.0002 15.4285 23.7441 15.4285 23.4286C15.4285 23.1131 15.1727 22.8571 14.8572 22.8571H9.14303C8.8273 22.8571 8.57147 23.1131 8.57147 23.4286C8.57147 23.7441 8.8273 24.0002 9.14303 24.0002Z" fill="black"/>
<path d="M20.5715 22.8571H17.143C16.8275 22.8571 16.5714 23.1131 16.5714 23.4286C16.5714 23.7441 16.8275 24.0002 17.143 24.0002H20.5715C20.8872 24.0002 21.1431 23.7441 21.1431 23.4286C21.1431 23.1131 20.8872 22.8571 20.5715 22.8571Z" fill="black"/>
</svg>
