<svg width="26" height="26" viewBox="0 0 26 26" fill="none" xmlns="http://www.w3.org/2000/svg">
<path d="M12.1875 22.75H13.8125V21.125H12.1875V22.75ZM13 3.25C12.5515 3.25 12.1875 3.614 12.1875 4.0625V12.207H5.6875C5.239 12.207 4.875 12.571 4.875 13.0195C4.875 13.468 5.239 13.832 5.6875 13.832H13C13.4485 13.832 13.8125 13.468 13.8125 13.0195V4.0625C13.8125 3.614 13.4485 3.25 13 3.25ZM5.47058 18.551L6.59508 19.6779L7.71958 18.551L6.59508 17.4241L5.47058 18.551ZM7.87554 6.76242L6.72584 5.61358L5.57696 6.76242L6.72584 7.91131L7.87554 6.76242ZM17.9367 6.72181L19.0613 7.84873L20.1858 6.72181L19.0613 5.59489L17.9367 6.72181ZM17.6987 18.5071L18.8476 19.656L19.9965 18.5071L18.8476 17.3583L17.6987 18.5071ZM21.125 12.1875V13.8125H22.75V12.1875H21.125ZM13 0C5.81992 0 0 5.82077 0 13C0 20.1801 5.81992 26 13 26C20.1801 26 26 20.1792 26 13C26 5.82077 20.1801 0 13 0ZM13 24.375C6.71773 24.375 1.625 19.2823 1.625 13C1.625 6.71773 6.71773 1.625 13 1.625C19.2823 1.625 24.375 6.71773 24.375 13C24.375 19.2823 19.2823 24.375 13 24.375Z" fill="white"/>
</svg>
